<svg xmlns="http://www.w3.org/2000/svg" xmlns:xlink="http://www.w3.org/1999/xlink" width="1500" height="1500" viewBox="0 0 1500 1500">
  <defs>
    <clipPath id="clip-undraw_happy_2021_h01d">
      <rect width="1500" height="1500"/>
    </clipPath>
  </defs>
  <g id="undraw_happy_2021_h01d" clip-path="url(#clip-undraw_happy_2021_h01d)">
    <rect width="1500" height="1500" fill="#fff"/>
    <g id="undraw_happy_2021_h01d-2" data-name="undraw_happy_2021_h01d">
      <path id="Path_3302" data-name="Path 3302" d="M1002.6,720.661a45.314,45.314,0,0,0,43.757-7.708c15.326-12.864,20.131-34.056,24.041-53.68l11.564-58.042L1057.754,617.9c-17.411,11.989-35.215,24.362-47.271,41.727s-17.318,41.07-7.632,59.86" transform="translate(324.356 366.21)" fill="#aadaf2"/>
      <path id="Path_3303" data-name="Path 3303" d="M1003.749,768.482c-2.45-17.849-4.97-35.929-3.251-53.969,1.526-16.022,6.415-31.672,16.366-44.5a74.038,74.038,0,0,1,18.994-17.212c1.9-1.2,3.648,1.811,1.757,3a70.38,70.38,0,0,0-27.839,33.59c-6.061,15.416-7.034,32.221-5.99,48.6.632,9.9,1.97,19.742,3.319,29.567a1.8,1.8,0,0,1-1.215,2.141A1.751,1.751,0,0,1,1003.749,768.482Z" transform="translate(325.28 388.662)" fill="#018ff9"/>
      <path id="Path_3304" data-name="Path 3304" d="M1019,722.2a33.357,33.357,0,0,0,29.064,15c14.713-.7,26.978-10.967,38.02-20.716l32.658-28.835-21.614-1.034c-15.544-.744-31.489-1.438-46.293,3.356s-28.459,16.329-31.166,31.654" transform="translate(333.629 403.355)" fill="#aadaf2"/>
      <path id="Path_3305" data-name="Path 3305" d="M997.84,756.711c11.795-20.87,25.475-44.065,49.921-51.478a55.706,55.706,0,0,1,21-2.168c2.229.192,1.672,3.629-.553,3.437a51.752,51.752,0,0,0-33.509,8.865c-9.448,6.431-16.8,15.372-23.031,24.854-3.814,5.808-7.23,11.862-10.647,17.908C999.927,760.061,996.735,758.666,997.84,756.711Z" transform="translate(324.264 410.693)" fill="#018ff9"/>
      <ellipse id="Ellipse_604" data-name="Ellipse 604" cx="15.676" cy="5.878" rx="15.676" ry="5.878" transform="translate(184.007 1165.157)" fill="#fec230"/>
      <ellipse id="Ellipse_605" data-name="Ellipse 605" cx="15.676" cy="5.878" rx="15.676" ry="5.878" transform="translate(221.629 1164.374)" fill="#2f2e41"/>
      <ellipse id="Ellipse_606" data-name="Ellipse 606" cx="30.96" cy="9.719" rx="30.96" ry="9.719" transform="translate(250.715 1075.946) rotate(-29.962)" fill="#fec230"/>
      <circle id="Ellipse_607" data-name="Ellipse 607" cx="61.92" cy="61.92" r="61.92" transform="translate(150.304 1026.426)" fill="#fec230"/>
      <rect id="Rectangle_847" data-name="Rectangle 847" width="18.811" height="33.703" transform="translate(184.007 1136.94)" fill="#fec230"/>
      <rect id="Rectangle_848" data-name="Rectangle 848" width="18.811" height="33.703" transform="translate(221.629 1136.94)" fill="#fec230"/>
      <circle id="Ellipse_608" data-name="Ellipse 608" cx="21.162" cy="21.162" r="21.162" transform="translate(205.568 1051.507)" fill="#fff"/>
      <ellipse id="Ellipse_609" data-name="Ellipse 609" cx="7.025" cy="7.074" rx="7.025" ry="7.074" transform="translate(226.821 1069.766) rotate(-45.026)" fill="#3f3d56"/>
      <ellipse id="Ellipse_610" data-name="Ellipse 610" cx="30.96" cy="9.719" rx="30.96" ry="9.719" transform="matrix(0.257, -0.966, 0.966, 0.257, 138.079, 1133.045)" fill="#fec230"/>
      <path id="Path_3306" data-name="Path 3306" d="M242.147,699.231c11.368,0,22.026-7.236,22.026-1.176s-10.659,23.122-22.026,23.122-21.612-11.967-21.612-18.027S230.779,699.231,242.147,699.231Z" transform="translate(-15.896 407.535)" fill="#fff"/>
      <ellipse id="Ellipse_611" data-name="Ellipse 611" cx="15.676" cy="5.878" rx="15.676" ry="5.878" transform="translate(1001.511 952.292)" fill="#2f2e41"/>
      <ellipse id="Ellipse_612" data-name="Ellipse 612" cx="15.676" cy="5.878" rx="15.676" ry="5.878" transform="translate(963.889 951.508)" fill="#2f2e41"/>
      <ellipse id="Ellipse_613" data-name="Ellipse 613" cx="9.719" cy="30.96" rx="9.719" ry="30.96" transform="translate(902.792 848.996) rotate(-60.038)" fill="#fec230"/>
      <circle id="Ellipse_614" data-name="Ellipse 614" cx="61.92" cy="61.92" r="61.92" transform="translate(942.726 813.561)" fill="#fec230"/>
      <rect id="Rectangle_849" data-name="Rectangle 849" width="18.811" height="33.703" transform="translate(1014.051 924.076)" fill="#fec230"/>
      <rect id="Rectangle_850" data-name="Rectangle 850" width="18.811" height="33.703" transform="translate(976.429 924.076)" fill="#fec230"/>
      <circle id="Ellipse_615" data-name="Ellipse 615" cx="21.162" cy="21.162" r="21.162" transform="translate(968.976 838.642)" fill="#fff"/>
      <ellipse id="Ellipse_616" data-name="Ellipse 616" cx="7.074" cy="7.025" rx="7.074" ry="7.025" transform="translate(970.101 856.956) rotate(-44.974)" fill="#3f3d56"/>
      <path id="Path_3307" data-name="Path 3307" d="M792.861,529.16c-24.715-5.519-41.094-13.777-36.094-36.168s29.088-36.069,53.8-30.55,40.7,28.144,35.7,50.535S817.576,534.678,792.861,529.16Z" transform="translate(218.443 304.92)" fill="#01c9fc"/>
      <ellipse id="Ellipse_617" data-name="Ellipse 617" cx="9.719" cy="30.96" rx="9.719" ry="30.96" transform="matrix(0.966, -0.257, 0.257, 0.966, 1044.104, 865.334)" fill="#fec230"/>
      <path id="Path_3308" data-name="Path 3308" d="M773.916,551.176c-11.368,0-22.026-7.236-22.026-1.176s10.659,23.122,22.026,23.122,21.612-11.967,21.612-18.027S785.284,551.176,773.916,551.176Z" transform="translate(216.701 342.725)" fill="#fff"/>
      <path id="Path_3309" data-name="Path 3309" d="M370.036,701.3a146.65,146.65,0,1,1,146.65-146.65A146.65,146.65,0,0,1,370.036,701.3Zm0-264.545A117.895,117.895,0,1,0,487.931,554.65,117.895,117.895,0,0,0,370.036,436.755Z" transform="translate(-14.647 281.625)" fill="#028ffa"/>
      <path id="Path_3310" data-name="Path 3310" d="M602.036,895.395c-40.687,0-78.326-26.408-105.985-74.36-26.223-45.463-40.665-105.6-40.665-169.337S469.827,527.823,496.05,482.36C523.71,434.408,561.349,408,602.036,408s78.326,26.408,105.985,74.36c26.223,45.463,40.665,105.6,40.665,169.337s-14.442,123.874-40.665,169.337C680.362,868.987,642.722,895.395,602.036,895.395Zm0-458.64c-29.976,0-58.769,21.3-81.077,59.972-23.743,41.162-36.818,96.2-36.818,154.97s13.076,113.808,36.818,154.97c22.307,38.674,51.1,59.972,81.077,59.972s58.77-21.3,81.077-59.972c23.743-41.162,36.818-96.2,36.818-154.97s-13.076-113.808-36.818-154.97C660.805,458.054,632.012,436.755,602.036,436.755Z" transform="translate(86.909 281.625)" fill="#028ffa"/>
      <path id="Path_3311" data-name="Path 3311" d="M502.308,821.931H237.763a14.378,14.378,0,0,1-10.369-24.338L437.621,578.742a14.378,14.378,0,0,1,20.737,19.921L271.51,793.176h230.8a14.377,14.377,0,0,1,0,28.755Z" transform="translate(-14.647 354.432)" fill="#028ffa"/>
      <path id="Path_3312" data-name="Path 3312" d="M823.036,701.3a146.65,146.65,0,1,1,146.65-146.65A146.65,146.65,0,0,1,823.036,701.3Zm0-264.545a117.895,117.895,0,1,0,117.9,117.895,117.895,117.895,0,0,0-117.9-117.895Z" transform="translate(183.65 281.625)" fill="#028ffa"/>
      <path id="Path_3313" data-name="Path 3313" d="M955.308,821.931H690.763a14.377,14.377,0,0,1-10.369-24.338L890.621,578.742a14.378,14.378,0,1,1,20.737,19.921L724.51,793.176h230.8a14.377,14.377,0,0,1,0,28.755Z" transform="translate(183.65 354.432)" fill="#028ffa"/>
      <path id="Path_3314" data-name="Path 3314" d="M1045.427,895.4a14.377,14.377,0,0,1-14.377-14.378V457.088L922.036,566.1A14.378,14.378,0,0,1,901.7,545.768l133.557-133.557a14.378,14.378,0,0,1,24.544,10.167v458.64A14.377,14.377,0,0,1,1045.427,895.4Z" transform="translate(280.438 281.625)" fill="#028ffa"/>
      <path id="Path_3315" data-name="Path 3315" d="M271.794,667.529l-10.46-12.5-8.3-9.936-12.041-14.4-8.316-9.933-11.3-13.526a1.632,1.632,0,0,0-2.778.485l-4.4,12.038-3.411,9.3-4.934,13.481-3.392,9.313-4.934,13.481-3.395,9.3-2.528,6.908a1.509,1.509,0,0,0-.084.837,1.7,1.7,0,0,0,.347.762,1.616,1.616,0,0,0,1.529.556l77.436-13.524a1.53,1.53,0,0,0,1.139-.824,1.216,1.216,0,0,0,.11-.217,1.7,1.7,0,0,0,.068-.835,1.508,1.508,0,0,0-.363-.759Z" transform="translate(-28.604 368.582)" fill="#028ffa"/>
      <path id="Path_3316" data-name="Path 3316" d="M125.619,473.7l-30.2-1.636,3.409-9.3,18.472,1Z" transform="translate(86.771 525.572)" fill="#fff"/>
      <path id="Path_3317" data-name="Path 3317" d="M148.5,491.1,89.63,487.921l3.393-9.312,47.172,2.553Z" transform="translate(84.235 532.508)" fill="#fff"/>
      <path id="Path_3318" data-name="Path 3318" d="M271.176,651.474a1.529,1.529,0,0,1-1.139.824l-37.648,6.575-39.051-2.114,3.395-9.3Z" transform="translate(-27.801 386.448)" fill="#fff"/>
      <circle id="Ellipse_618" data-name="Ellipse 618" cx="12.966" cy="12.966" r="12.966" transform="translate(177.166 955.904)" fill="#fec230"/>
      <path id="Path_3319" data-name="Path 3319" d="M1050.4,444.939l-5.926-15.187-4.7-12.064-6.82-17.488-4.714-12.067-6.393-16.422a1.632,1.632,0,0,0-2.788-.426l-8.006,10.007-6.2,7.726-8.976,11.2-6.185,7.745-8.976,11.2-6.182,7.729-4.6,5.741a1.509,1.509,0,0,0-.347.767,1.7,1.7,0,0,0,.086.833,1.616,1.616,0,0,0,1.271,1.014l77.706,11.878a1.529,1.529,0,0,0,1.343-.418,1.224,1.224,0,0,0,.174-.17,1.7,1.7,0,0,0,.331-.769,1.51,1.51,0,0,0-.1-.835Z" transform="translate(311.991 265.287)" fill="#fec230"/>
      <path id="Path_3320" data-name="Path 3320" d="M912.714,243.968l-28.1-11.181,6.2-7.726L908,231.9Z" transform="translate(432.233 421.519)" fill="#fff"/>
      <path id="Path_3321" data-name="Path 3321" d="M928.848,267.757,874.07,245.971l6.185-7.744,43.894,17.464Z" transform="translate(427.618 427.282)" fill="#fff"/>
      <path id="Path_3322" data-name="Path 3322" d="M1048.486,431.95a1.529,1.529,0,0,1-1.343.418l-37.78-5.775-36.337-14.458,6.182-7.729Z" transform="translate(313.503 280.051)" fill="#fff"/>
      <circle id="Ellipse_619" data-name="Ellipse 619" cx="12.966" cy="12.966" r="12.966" transform="translate(1320.583 616.608)" fill="#fec230"/>
      <path id="Path_3323" data-name="Path 3323" d="M751.37,440.549H729.826a6.47,6.47,0,0,1-6.31-7.9l3.99-17.607c-51.2-8.323-89.707-64.247-89.707-130.489C637.8,212.015,683.914,153,740.6,153s102.8,59.015,102.8,131.553c0,66.241-38.512,122.165-89.707,130.489l3.99,17.607a6.47,6.47,0,0,1-6.31,7.9Z" transform="translate(166.759 170)" fill="#028ffa"/>
      <path id="Path_3324" data-name="Path 3324" d="M734.837,342.064H700.331a5.032,5.032,0,0,1,0-10.064h34.506a5.032,5.032,0,1,1,0,10.064Z" transform="translate(191.93 248.356)" fill="#3f3d56"/>
      <path id="Path_3325" data-name="Path 3325" d="M711.02,334.96a35.621,35.621,0,0,0-30.695,6.593,34.982,34.982,0,0,0-12.745,28.633c1.052,23.491,24.7,36.117,41.187,48.751,19.481,14.93,37.767,32.155,50.967,53.011,13.072,20.653,21.27,45.127,19.371,69.776-1.643,21.319-11.3,42.455-27.873,56.253a65.968,65.968,0,0,1-6.565,4.781c-2.328,1.5-.167,5.231,2.177,3.724,18.154-11.669,30.163-31.122,34.712-52.021,5.06-23.252.552-47.457-9.394-68.8-10.332-22.174-26.585-41.025-44.847-57.075-9.059-7.961-18.68-15.187-28.425-22.277-8.569-6.234-17.551-12.947-22.876-22.333a31.11,31.11,0,0,1-.326-30.284,30.5,30.5,0,0,1,26.4-15.523,30.014,30.014,0,0,1,7.788.951c2.691.688,3.838-3.471,1.147-4.159Z" transform="translate(179.779 249.187)" fill="#3f3d56"/>
      <path id="Path_3326" data-name="Path 3326" d="M668.4,296.72a9.356,9.356,0,0,1-9.345-9.226,106.761,106.761,0,0,1,0-69.25,9.345,9.345,0,1,1,18.69.119l-.044.248c-8.171,22.269-8.17,45.324,0,68.525l.041.239A9.356,9.356,0,0,1,668.4,296.72Z" transform="translate(173.538 194.495)" fill="#fff"/>
      <path id="Path_3327" data-name="Path 3327" d="M1518.488,747.876H110.938a1.438,1.438,0,0,1,0-2.875h1407.55a1.438,1.438,0,0,1,0,2.875Z" transform="translate(-64.5 429.144)" fill="#3f3d56"/>
      <rect id="Rectangle_851" data-name="Rectangle 851" width="8.626" height="27.317" transform="translate(493.412 603.36)" fill="#aadaf2" style="isolation: isolate"/>
      <rect id="Rectangle_852" data-name="Rectangle 852" width="8.626" height="27.317" transform="translate(632.873 525.722)" fill="#aadaf2" style="isolation: isolate"/>
      <rect id="Rectangle_853" data-name="Rectangle 853" width="8.626" height="27.317" transform="translate(599.428 614.767) rotate(-38.519)" fill="#aadaf2" style="isolation: isolate"/>
      <rect id="Rectangle_854" data-name="Rectangle 854" width="27.317" height="8.626" transform="translate(551.861 715.828) rotate(-60)" fill="#aadaf2" style="isolation: isolate"/>
      <rect id="Rectangle_855" data-name="Rectangle 855" width="27.317" height="8.626" transform="translate(513.041 449.845) rotate(-60)" fill="#aadaf2" style="isolation: isolate"/>
      <rect id="Rectangle_856" data-name="Rectangle 856" width="8.626" height="27.317" transform="translate(1080.011 548.726)" fill="#aadaf2" style="isolation: isolate"/>
      <rect id="Rectangle_857" data-name="Rectangle 857" width="8.626" height="27.317" transform="translate(1219.472 471.087)" fill="#aadaf2" style="isolation: isolate"/>
      <rect id="Rectangle_858" data-name="Rectangle 858" width="8.626" height="27.317" transform="translate(1186.027 560.131) rotate(-38.519)" fill="#aadaf2" style="isolation: isolate"/>
      <rect id="Rectangle_859" data-name="Rectangle 859" width="27.317" height="8.626" transform="translate(1138.46 661.19) rotate(-60)" fill="#aadaf2" style="isolation: isolate"/>
      <rect id="Rectangle_860" data-name="Rectangle 860" width="27.317" height="8.626" transform="translate(1099.64 395.208) rotate(-60)" fill="#aadaf2" style="isolation: isolate"/>
      <path id="Path_3328" data-name="Path 3328" d="M577.787,703.661a45.313,45.313,0,0,1-43.757-7.708C518.7,683.09,513.9,661.9,509.989,642.274l-11.564-58.042L522.636,600.9c17.411,11.989,35.215,24.362,47.271,41.727s17.318,41.07,7.632,59.86" transform="translate(105.749 358.769)" fill="#01c9fc"/>
      <path id="Path_3329" data-name="Path 3329" d="M562.743,751.482c2.451-17.85,4.97-35.929,3.251-53.97-1.527-16.022-6.415-31.672-16.366-44.5A74.035,74.035,0,0,0,530.635,635.8c-1.9-1.2-3.648,1.811-1.757,3a70.38,70.38,0,0,1,27.839,33.59c6.061,15.416,7.034,32.221,5.99,48.6-.632,9.9-1.97,19.742-3.319,29.568a1.8,1.8,0,0,0,1.215,2.14A1.751,1.751,0,0,0,562.743,751.482Z" transform="translate(118.724 381.22)" fill="#aadaf2"/>
      <path id="Path_3330" data-name="Path 3330" d="M566.136,705.2a33.357,33.357,0,0,1-29.064,15c-14.713-.7-26.978-10.967-38.02-20.716l-32.658-28.835,21.614-1.034c15.544-.744,31.488-1.438,46.293,3.356s28.459,16.329,31.166,31.654" transform="translate(91.728 395.914)" fill="#01c9fc"/>
      <path id="Path_3331" data-name="Path 3331" d="M579.026,739.711c-11.795-20.87-25.476-44.065-49.921-51.478a55.7,55.7,0,0,0-21-2.168c-2.229.192-1.673,3.629.553,3.437a51.753,51.753,0,0,1,33.509,8.865c9.448,6.431,16.8,15.372,23.031,24.854,3.814,5.808,7.23,11.862,10.647,17.908C576.939,743.061,580.131,741.666,579.026,739.711Z" transform="translate(109.366 403.252)" fill="#aadaf2"/>
      <path id="Path_3332" data-name="Path 3332" d="M349.787,568.661a45.313,45.313,0,0,1-43.757-7.708C290.7,548.09,285.9,526.9,281.989,507.274l-11.564-58.042L294.636,465.9c17.411,11.989,35.215,24.362,47.271,41.727s17.318,41.07,7.632,59.86" transform="translate(5.943 299.673)" fill="#aadaf2"/>
      <path id="Path_3333" data-name="Path 3333" d="M334.743,616.482c2.451-17.85,4.97-35.929,3.251-53.969-1.527-16.022-6.415-31.672-16.366-44.5A74.03,74.03,0,0,0,302.635,500.8c-1.9-1.2-3.648,1.811-1.756,3a70.38,70.38,0,0,1,27.839,33.59c6.061,15.416,7.034,32.221,5.99,48.6-.632,9.9-1.97,19.742-3.319,29.567a1.8,1.8,0,0,0,1.215,2.14,1.75,1.75,0,0,0,2.14-1.215Z" transform="translate(18.918 322.125)" fill="#028ffa"/>
      <path id="Path_3334" data-name="Path 3334" d="M338.136,570.2a33.357,33.357,0,0,1-29.064,15c-14.713-.7-26.978-10.967-38.02-20.716l-32.658-28.835,21.614-1.034c15.544-.744,31.488-1.438,46.293,3.356s28.459,16.329,31.166,31.654" transform="translate(-8.077 336.818)" fill="#aadaf2"/>
      <path id="Path_3335" data-name="Path 3335" d="M351.026,604.711c-11.795-20.87-25.475-44.065-49.921-51.478a55.7,55.7,0,0,0-21-2.168c-2.229.192-1.673,3.629.553,3.437a51.753,51.753,0,0,1,33.509,8.865c9.448,6.431,16.8,15.372,23.031,24.854,3.814,5.808,7.23,11.862,10.647,17.908C348.939,608.061,352.131,606.666,351.026,604.711Z" transform="translate(9.561 344.156)" fill="#028ffa"/>
      <rect id="Rectangle_903" data-name="Rectangle 903" width="1500" height="1500" fill="#fff" opacity="0"/>
    </g>
  </g>
</svg>
