<svg width="1500" height="1500" viewBox="0 0 1500 1500" fill="none" xmlns="http://www.w3.org/2000/svg">
<g clip-path="url(#clip0_6_461)">
<path d="M1022.55 1148.88H998.994L987.782 1058.01H1022.55V1148.88Z" fill="#9E616A"/>
<path d="M1034.99 1189.7H1018.09L1015.08 1173.75L1007.35 1189.7H962.545C960.397 1189.7 958.305 1189.02 956.575 1187.75C954.845 1186.47 953.567 1184.68 952.928 1182.63C952.289 1180.58 952.322 1178.38 953.022 1176.35C953.723 1174.32 955.054 1172.56 956.821 1171.34L992.604 1146.63V1130.5L1030.24 1132.75L1034.99 1189.7Z" fill="#2F2E41"/>
<path d="M1162.51 1119.15L1143.61 1133.21L1080.39 1066.98L1108.29 1046.23L1162.51 1119.15Z" fill="#FFB8B8"/>
<path d="M1196.85 1144.49L1183.29 1154.57L1171.35 1143.57L1174.67 1160.98L1138.72 1187.72C1136.99 1189 1134.9 1189.7 1132.76 1189.71C1130.61 1189.72 1128.51 1189.04 1126.78 1187.78C1125.04 1186.52 1123.75 1184.73 1123.1 1182.68C1122.45 1180.63 1122.48 1178.43 1123.17 1176.4L1137.13 1135.21L1127.51 1122.27L1159.05 1101.61L1196.85 1144.49Z" fill="#2F2E41"/>
<path d="M1049.98 680.016C1049.98 680.016 1094.68 718.636 1074.06 828.734L1048.88 936.612L1130.99 1072.85L1104.81 1104.7L998.061 957.242L959.379 866.497L948.524 704.99L1049.98 680.016Z" fill="#2F2E41"/>
<path d="M977.345 804.802L973.516 864.092L985.234 1116.75L1040.37 1107.15L1050.91 927.259L977.345 804.802Z" fill="#2F2E41"/>
<path d="M483.877 1170.25L504.945 1170.25L514.966 1088.98L483.874 1088.98L483.877 1170.25Z" fill="#FFB6B6"/>
<path d="M478.503 1163.37L484.433 1163.37L507.584 1153.95L519.993 1163.37H519.994C527.007 1163.37 533.732 1166.16 538.69 1171.11C543.649 1176.07 546.434 1182.8 546.435 1189.81V1190.67L478.504 1190.67L478.503 1163.37Z" fill="#2F2E41"/>
<path d="M565.519 1156.97L586.068 1161.61L613.744 1084.55L583.415 1077.7L565.519 1156.97Z" fill="#FFB6B6"/>
<path d="M561.791 1149.08L567.576 1150.39L592.232 1146.3L602.262 1158.22L602.264 1158.22C609.104 1159.76 615.05 1163.96 618.794 1169.89C622.539 1175.82 623.775 1182.99 622.231 1189.84L622.041 1190.67L555.779 1175.71L561.791 1149.08Z" fill="#2F2E41"/>
<path d="M457.194 673.422C447.317 703.215 448.361 735.554 459.568 770.263L464.359 965.685C464.359 965.685 457.221 1093.84 480.255 1138.93H513.66L530.199 953.981L532.276 829.84L603.893 934.573L558.278 1135.91L599.391 1139.59L673.412 921.088L582.085 709.108L457.194 673.422Z" fill="#2F2E41"/>
<path d="M842.428 588.56C867.979 565.533 905.983 553.955 937.863 566.866C905.162 585.024 879.936 614.163 866.65 649.13C861.575 662.634 857.336 678.182 844.853 685.411C837.086 689.91 827.423 690.13 818.714 687.958C810.005 685.786 802.022 681.433 794.149 677.123L791.909 677.072C801.966 644.178 816.877 611.586 842.428 588.56Z" fill="#E6E6E6"/>
<path d="M937.684 567.566C909.45 571.215 883.083 583.668 862.329 603.157C857.787 607.273 853.922 612.079 850.876 617.399C848.076 622.677 846.741 628.609 847.009 634.578C847.147 640.148 847.933 645.83 846.715 651.337C846.049 654.146 844.798 656.783 843.041 659.075C841.285 661.367 839.065 663.261 836.525 664.635C830.286 668.221 823.131 669.352 816.095 670.214C808.283 671.172 800.154 672.043 793.392 676.425C792.573 676.956 791.797 675.653 792.615 675.123C804.38 667.499 819.267 670.273 831.917 665.185C837.82 662.811 843.044 658.643 844.892 652.342C846.509 646.832 845.703 640.972 845.515 635.333C845.168 629.514 846.252 623.699 848.67 618.395C851.435 612.938 855.109 607.99 859.534 603.765C869.344 594.094 880.613 586.026 892.93 579.856C906.947 572.736 922.079 568.066 937.67 566.05C938.635 565.925 938.643 567.442 937.684 567.566H937.684Z" fill="white"/>
<path d="M868.643 596.488C865.846 592.562 864.536 587.769 864.946 582.966C865.357 578.163 867.461 573.662 870.883 570.267C871.578 569.582 872.674 570.63 871.978 571.315C868.786 574.471 866.826 578.664 866.453 583.137C866.08 587.611 867.318 592.07 869.944 595.711C870.514 596.503 869.209 597.275 868.643 596.488V596.488Z" fill="white"/>
<path d="M846.567 631.763C856.27 633.482 866.264 631.48 874.556 626.158C875.377 625.63 876.154 626.932 875.333 627.459C866.694 632.982 856.289 635.044 846.196 633.232C845.234 633.059 845.611 631.59 846.567 631.762V631.763Z" fill="white"/>
<path d="M907.07 574.742C907.836 576.487 909.022 578.014 910.524 579.186C912.026 580.359 913.795 581.14 915.673 581.46C916.637 581.621 916.26 583.09 915.302 582.93C913.229 582.567 911.276 581.702 909.614 580.41C907.952 579.118 906.632 577.439 905.768 575.519C905.672 575.345 905.645 575.141 905.694 574.948C905.743 574.755 905.863 574.587 906.031 574.48C906.203 574.378 906.41 574.348 906.604 574.397C906.799 574.446 906.966 574.57 907.07 574.742Z" fill="white"/>
<path d="M972.967 677.912C972.362 677.829 971.757 677.745 971.144 677.671C963.011 676.591 954.803 676.174 946.602 676.424C945.968 676.433 945.325 676.452 944.692 676.48C924.941 677.292 905.512 681.765 887.393 689.67C880.186 692.823 873.229 696.519 866.583 700.727C857.405 706.539 847.915 713.571 837.655 715.941C836.587 716.2 835.505 716.393 834.413 716.518L792.021 679.809C791.966 679.677 791.903 679.555 791.848 679.422L790.088 678.034C790.416 677.793 790.761 677.55 791.089 677.309C791.278 677.169 791.477 677.036 791.666 676.896C791.796 676.805 791.926 676.714 792.037 676.624C792.08 676.594 792.123 676.564 792.158 676.543C792.269 676.453 792.382 676.382 792.485 676.302C794.41 674.939 796.347 673.587 798.298 672.247C798.306 672.237 798.306 672.237 798.324 672.235C813.088 661.878 829.029 653.308 845.812 646.707C846.315 646.517 846.826 646.316 847.349 646.143C854.907 643.332 862.683 641.144 870.597 639.601C874.934 638.769 879.309 638.158 883.708 637.769C895.074 636.786 906.524 637.598 917.639 640.173C939.794 645.311 960.06 657.478 972.064 676.453C972.37 676.939 972.668 677.417 972.967 677.912Z" fill="#E6E6E6"/>
<path d="M972.406 678.368C947.665 664.281 919.116 658.348 890.812 661.412C884.708 661.963 878.728 663.474 873.093 665.888C867.68 668.416 863.044 672.348 859.664 677.275C856.421 681.806 853.628 686.816 849.34 690.479C847.117 692.322 844.53 693.674 841.748 694.446C838.967 695.218 836.053 695.394 833.198 694.961C826.058 694.069 819.664 690.663 813.527 687.115C806.713 683.176 799.698 678.977 791.661 678.404C790.687 678.334 790.852 676.827 791.824 676.897C805.808 677.893 816.024 689.072 829.188 692.626C835.331 694.285 842.01 694.102 847.28 690.184C851.888 686.758 854.772 681.594 858.016 676.979C861.243 672.124 865.608 668.133 870.732 665.355C876.226 662.662 882.137 660.924 888.214 660.214C901.869 658.399 915.724 658.743 929.273 661.232C944.751 663.988 959.644 669.371 973.307 677.149C974.152 677.63 973.245 678.846 972.405 678.368L972.406 678.368Z" fill="white"/>
<path d="M899.868 659.889C899.999 655.07 901.838 650.455 905.057 646.867C908.276 643.279 912.666 640.952 917.442 640.302C918.409 640.174 918.654 641.671 917.686 641.799C913.237 642.396 909.148 644.564 906.157 647.911C903.166 651.258 901.47 655.564 901.375 660.052C901.353 661.028 899.846 660.859 899.868 659.889Z" fill="white"/>
<path d="M861.006 674.762C867.718 681.977 876.902 686.396 886.728 687.139C887.701 687.212 887.537 688.719 886.565 688.647C876.341 687.854 866.793 683.235 859.825 675.712C859.161 674.995 860.346 674.048 861.006 674.762Z" fill="white"/>
<path d="M943.641 665.664C943.202 667.518 943.231 669.452 943.724 671.293C944.217 673.133 945.159 674.822 946.466 676.208C947.139 676.917 945.953 677.863 945.285 677.158C943.848 675.62 942.81 673.754 942.261 671.722C941.711 669.689 941.668 667.554 942.134 665.501C942.162 665.304 942.264 665.125 942.419 665C942.574 664.875 942.771 664.814 942.969 664.829C943.169 664.852 943.351 664.952 943.477 665.108C943.603 665.265 943.662 665.464 943.641 665.664Z" fill="white"/>
<path d="M228.369 1168.77C226.379 1176.24 221.15 1182.46 214.837 1186.99C213.807 1187.73 212.751 1188.42 211.68 1189.06C211.351 1189.25 211.021 1189.46 210.678 1189.64C210.308 1189.86 209.937 1190.06 209.567 1190.25H179.881C179.346 1189.17 178.824 1188.07 178.303 1186.99C165.58 1160.25 156.646 1131.4 158.169 1102.01C158.773 1090.62 161.168 1079.38 165.265 1068.73C173.417 1047.5 188.294 1029.12 208.757 1019.87C209.265 1019.63 209.8 1019.4 210.321 1019.18C210.157 1019.77 209.992 1020.35 209.827 1020.94C207.632 1028.85 206.081 1036.92 205.189 1045.08C205.106 1045.71 205.038 1046.34 204.983 1046.99C203.033 1066.67 204.764 1086.54 210.088 1105.58C210.102 1105.62 210.116 1105.68 210.129 1105.72C211.296 1109.93 212.65 1114.08 214.192 1118.17C215.399 1121.39 216.703 1124.58 218.131 1127.71C224.087 1140.84 232.074 1154.84 228.369 1168.77Z" fill="#E6E6E6"/>
<path d="M210.692 1019.8C210.404 1020.18 210.116 1020.55 209.827 1020.94C203.799 1028.93 198.681 1037.56 194.566 1046.69C194.346 1047.14 194.141 1047.59 193.962 1048.06C188.324 1060.8 184.703 1074.34 183.23 1088.19C183.214 1088.29 183.205 1088.38 183.202 1088.48C182.859 1091.72 182.653 1094.99 182.571 1098.25C182.266 1104.38 182.928 1110.51 184.534 1116.43C185.997 1121.26 188.563 1125.68 192.027 1129.35C192.37 1129.73 192.713 1130.1 193.084 1130.45C193.358 1130.74 193.66 1131.03 193.948 1131.3C196.721 1133.95 199.754 1136.41 202.361 1139.25C203.557 1140.52 204.636 1141.9 205.587 1143.37C207.104 1145.82 208.084 1148.57 208.462 1151.44C208.841 1154.3 208.609 1157.21 207.783 1159.98C205.916 1166.92 201.648 1172.78 197.283 1178.37C195.101 1181.17 192.85 1184 190.902 1186.99C190.188 1188.06 189.529 1189.14 188.925 1190.25H187.196C187.773 1189.14 188.404 1188.06 189.09 1186.99C194.099 1179.1 201.222 1172.32 204.914 1163.63C207.412 1157.77 208.167 1151.12 205.01 1145.37C204.085 1143.7 202.966 1142.14 201.675 1140.73C199.164 1137.89 196.158 1135.46 193.427 1132.9C192.741 1132.25 192.068 1131.59 191.423 1130.91C188.003 1127.43 185.364 1123.27 183.683 1118.69C181.778 1112.88 180.878 1106.78 181.02 1100.67C181.02 1096.77 181.226 1092.84 181.61 1088.95C181.652 1088.45 181.706 1087.94 181.761 1087.44C184.568 1062.91 193.889 1039.58 208.757 1019.87C209.032 1019.48 209.32 1019.11 209.608 1018.74C210.198 1017.97 211.282 1019.04 210.692 1019.8Z" fill="white"/>
<path d="M182.315 1089.08C177.561 1088.28 173.246 1085.82 170.14 1082.13C167.035 1078.44 165.34 1073.77 165.36 1068.95C165.362 1068.76 165.441 1068.57 165.58 1068.43C165.718 1068.29 165.905 1068.21 166.102 1068.2C166.298 1068.2 166.489 1068.27 166.633 1068.4C166.778 1068.54 166.864 1068.72 166.876 1068.92C166.849 1073.41 168.428 1077.76 171.327 1081.19C174.226 1084.61 178.255 1086.89 182.686 1087.61C183.649 1087.76 183.272 1089.23 182.315 1089.08V1089.08Z" fill="white"/>
<path d="M191.646 1129.63C199.722 1123.99 205.374 1115.5 207.474 1105.88C207.682 1104.92 209.151 1105.29 208.944 1106.25C206.74 1116.26 200.84 1125.08 192.423 1130.93C191.62 1131.49 190.848 1130.19 191.646 1129.63L191.646 1129.63Z" fill="white"/>
<path d="M194.112 1046.53C195.887 1047.22 197.806 1047.46 199.697 1047.23C201.587 1046.99 203.391 1046.29 204.945 1045.19C205.74 1044.62 206.512 1045.93 205.722 1046.49C203.999 1047.7 202.007 1048.47 199.918 1048.73C197.83 1049 195.709 1048.74 193.741 1048C193.55 1047.94 193.386 1047.82 193.284 1047.64C193.182 1047.47 193.149 1047.27 193.191 1047.08C193.241 1046.88 193.366 1046.71 193.539 1046.61C193.711 1046.51 193.917 1046.48 194.112 1046.53Z" fill="white"/>
<path d="M313.652 1072.87C313.171 1073.25 312.677 1073.62 312.197 1074C305.681 1078.99 299.581 1084.5 293.957 1090.47C293.518 1090.92 293.079 1091.39 292.654 1091.86L292.64 1091.87C279.305 1106.35 268.762 1123.16 261.541 1141.47L261.499 1141.6C261.486 1141.64 261.472 1141.67 261.458 1141.71C258.596 1149.04 256.288 1156.57 254.555 1164.24C252.881 1171.74 251.508 1179.77 248.887 1186.99C248.489 1188.1 248.05 1189.2 247.583 1190.25H186.565C186.771 1189.17 186.99 1188.07 187.21 1186.99C190.314 1171.08 195.165 1155.57 201.675 1140.73C201.895 1140.24 202.114 1139.74 202.361 1139.25C205.722 1131.92 209.674 1124.87 214.178 1118.18C214.178 1118.18 214.178 1118.18 214.179 1118.18C214.18 1118.18 214.181 1118.17 214.182 1118.17C214.183 1118.17 214.185 1118.17 214.186 1118.17C214.188 1118.17 214.19 1118.17 214.192 1118.17C216.665 1114.52 219.322 1110.99 222.152 1107.61C229.492 1098.88 238.162 1091.36 247.844 1085.32C247.899 1085.28 247.967 1085.25 248.022 1085.21C267.291 1073.26 290.128 1067.56 311.964 1072.49H311.977C312.54 1072.61 313.089 1072.74 313.652 1072.87Z" fill="#F9E426"/>
<path d="M313.583 1073.6C313.116 1073.73 312.65 1073.86 312.197 1074C302.578 1076.75 293.294 1080.56 284.515 1085.35C284.076 1085.58 283.637 1085.83 283.197 1086.08C271.065 1092.85 260.051 1101.46 250.547 1111.59C250.54 1111.6 250.535 1111.61 250.534 1111.62C250.424 1111.73 250.3 1111.85 250.204 1111.96C248.008 1114.33 245.895 1116.78 243.891 1119.31C239.972 1124.02 236.813 1129.31 234.531 1135C232.787 1139.73 232.172 1144.81 232.733 1149.83C232.774 1150.34 232.843 1150.84 232.912 1151.34C232.966 1151.74 233.021 1152.14 233.09 1152.55C233.996 1158.05 235.56 1163.57 235.121 1169.19C234.854 1172.06 233.981 1174.85 232.559 1177.36C231.138 1179.88 229.2 1182.06 226.873 1183.78C225.291 1185 223.601 1186.07 221.822 1186.99C219.28 1188.3 216.631 1189.39 213.903 1190.25H208.51C209.237 1190.05 209.951 1189.84 210.678 1189.64C213.259 1188.91 215.794 1188.02 218.268 1186.99C219.681 1186.4 221.056 1185.72 222.385 1184.96C227.902 1181.79 232.5 1176.93 233.461 1170.44C234.298 1164.75 232.678 1159.07 231.718 1153.51C231.553 1152.55 231.402 1151.6 231.32 1150.66C230.664 1145.84 231.062 1140.94 232.486 1136.3C234.461 1130.51 237.413 1125.09 241.215 1120.3C243.567 1117.17 246.077 1114.17 248.736 1111.31C249.065 1110.94 249.408 1110.56 249.765 1110.19C259.469 1099.98 270.673 1091.32 282.992 1084.49H283.005C292.165 1079.39 301.882 1075.36 311.964 1072.49H311.977C312.43 1072.35 312.897 1072.22 313.35 1072.09C314.297 1071.84 314.516 1073.34 313.583 1073.6Z" fill="white"/>
<path d="M249.222 1111.83C245.907 1108.33 243.944 1103.76 243.684 1098.95C243.424 1094.14 244.882 1089.39 247.8 1085.55C248.393 1084.77 249.624 1085.66 249.031 1086.43C246.307 1090 244.948 1094.43 245.2 1098.91C245.452 1103.39 247.297 1107.64 250.403 1110.88C251.077 1111.58 249.893 1112.53 249.222 1111.83H249.222Z" fill="white"/>
<path d="M232.258 1149.83C242.105 1150.18 251.725 1146.81 259.198 1140.39C259.938 1139.75 260.887 1140.93 260.148 1141.57C252.359 1148.24 242.341 1151.72 232.095 1151.33C231.118 1151.29 231.287 1149.79 232.258 1149.83Z" fill="white"/>
<path d="M284.258 1084.96C285.258 1086.58 286.646 1087.92 288.295 1088.88C289.945 1089.83 291.806 1090.36 293.71 1090.41C294.687 1090.44 294.517 1091.95 293.547 1091.92C291.443 1091.85 289.389 1091.26 287.564 1090.21C285.739 1089.17 284.198 1087.69 283.077 1085.91C282.957 1085.75 282.902 1085.55 282.923 1085.35C282.945 1085.15 283.041 1084.97 283.192 1084.84C283.349 1084.71 283.549 1084.66 283.749 1084.68C283.948 1084.7 284.131 1084.8 284.258 1084.96Z" fill="white"/>
<path d="M784.353 545.629C782.945 547.482 781.147 549.003 779.087 550.086C777.027 551.169 774.754 551.787 772.43 551.897C770.105 552.007 767.784 551.605 765.632 550.721C763.479 549.836 761.546 548.491 759.969 546.779L708.091 569.343L713.144 540.381L761.634 523.393C764.686 520.935 768.533 519.682 772.447 519.871C776.361 520.06 780.069 521.678 782.869 524.419C785.67 527.16 787.368 530.833 787.641 534.742C787.914 538.651 786.745 542.525 784.353 545.629Z" fill="#FFB8B8"/>
<path d="M749.733 554.672L629.237 608.35L628.979 608.258L491.644 559.314C481.414 553.967 473.615 544.912 469.844 534.002C466.072 523.093 466.614 511.154 471.357 500.63C473.986 494.816 477.817 489.624 482.597 485.397C487.377 481.17 492.998 478.003 499.09 476.105C505.182 474.208 511.607 473.622 517.942 474.386C524.277 475.15 530.378 477.248 535.844 480.541L638.046 542.112L737.151 529.266L749.733 554.672Z" fill="#E6E6E6"/>
<path d="M1342 1191.37C1342 1191.58 1341.96 1191.79 1341.88 1191.99C1341.8 1192.19 1341.68 1192.37 1341.52 1192.52C1341.37 1192.67 1341.19 1192.8 1340.99 1192.88C1340.79 1192.96 1340.58 1193 1340.37 1193H159.679C159.246 1193 158.83 1192.83 158.524 1192.52C158.218 1192.22 158.046 1191.8 158.046 1191.37C158.046 1190.93 158.218 1190.52 158.524 1190.21C158.83 1189.91 159.246 1189.73 159.679 1189.73H1340.37C1340.58 1189.73 1340.79 1189.77 1340.99 1189.86C1341.19 1189.94 1341.37 1190.06 1341.52 1190.21C1341.68 1190.36 1341.8 1190.54 1341.88 1190.74C1341.96 1190.94 1342 1191.15 1342 1191.37Z" fill="#CCCCCC"/>
<path d="M588.042 715.367L466.574 695.937C463.388 694.916 460.461 693.218 457.993 690.96C455.526 688.701 453.576 685.935 452.278 682.852C450.98 679.769 450.364 676.441 450.474 673.097C450.583 669.754 451.414 666.473 452.911 663.481L458.419 652.462L456.28 536.692C456.022 521.633 459.734 506.772 467.043 493.603C474.351 480.435 484.999 469.423 497.914 461.677L509.759 454.594L515.746 439.391L570.945 440.737L571.106 460.677L590.874 492.202L590.874 492.332L589.633 663.92L584.185 681.627L592.423 702.224L588.042 715.367Z" fill="#E6E6E6"/>
<path d="M548.4 420.486C576.1 420.486 598.555 398.029 598.555 370.328C598.555 342.626 576.1 320.169 548.4 320.169C520.701 320.169 498.246 342.626 498.246 370.328C498.246 398.029 520.701 420.486 548.4 420.486Z" fill="#FFB8B8"/>
<path d="M496.174 381.262C494.678 374.959 495.365 366.09 496.211 359.744C498.427 343.107 507.665 327.291 521.701 317.922C524.363 315.901 527.525 314.644 530.848 314.287C534.168 314.148 537.768 315.926 538.787 319.09C539.623 317.002 540.879 315.107 542.476 313.524C544.073 311.94 545.977 310.7 548.072 309.881C552.28 308.269 556.805 307.659 561.29 308.1C569.982 308.817 578.317 311.873 585.413 316.946C592.508 322.018 598.097 328.916 601.588 336.909C602.928 340.092 606.67 328.336 608.367 331.343C609.927 334.469 612.648 336.86 615.948 338.005C619.274 338.933 620.625 352.637 621.934 349.441C622.949 351.803 623.351 354.383 623.1 356.941C622.85 359.5 621.957 361.953 620.503 364.073C619.05 366.194 617.083 367.911 614.787 369.067C612.491 370.222 609.94 370.778 607.371 370.682C603.986 370.555 600.75 369.31 597.405 368.774C585.444 366.857 572.756 375.531 570.199 387.373C569.283 383.948 567.821 380.694 565.868 377.736C564.877 376.265 563.548 375.052 561.994 374.197C560.439 373.343 558.702 372.872 556.929 372.824C553.526 372.952 550.535 375.177 548.327 377.769C546.119 380.362 544.46 383.387 542.236 385.966C535.71 393.533 526.882 411.179 517.581 409.892C510.241 408.877 498.217 389.867 496.174 381.262Z" fill="#2F2E41"/>
<path d="M851.577 602.467C851.928 600.18 851.458 597.843 850.25 595.87C849.043 593.897 847.175 592.415 844.979 591.688L709.914 546.699C708.619 546.266 707.248 546.109 705.889 546.237L672.035 549.439L652.61 551.282L616.764 554.67C614.6 554.877 612.565 555.796 610.98 557.284C609.394 558.772 608.347 560.744 608.003 562.891L589.803 676.589C589.458 678.807 589.881 681.076 591 683.021C592.118 684.967 593.867 686.472 595.957 687.29L732.432 739.974C733.073 740.223 733.738 740.402 734.417 740.507C735.406 740.667 736.413 740.675 737.403 740.53L825.59 727.458C827.67 727.157 829.597 726.194 831.086 724.71C832.575 723.227 833.546 721.303 833.856 719.224L851.577 602.467Z" fill="white"/>
<path d="M599.051 679.278L735.526 731.96C735.725 732.039 735.941 732.064 736.153 732.034L824.327 718.964C824.589 718.928 824.831 718.808 825.018 718.622C825.205 718.436 825.326 718.194 825.363 717.932L843.095 601.174C843.135 600.889 843.075 600.599 842.925 600.353C842.775 600.107 842.544 599.921 842.272 599.827L841.364 599.52L707.199 554.849C707.138 554.827 707.074 554.812 707.01 554.803C706.906 554.784 706.8 554.779 706.694 554.787L624.123 562.601L617.571 563.216C617.302 563.245 617.05 563.36 616.853 563.546C616.656 563.731 616.525 563.976 616.48 564.242L598.283 677.937C598.239 678.214 598.291 678.499 598.43 678.743C598.57 678.987 598.789 679.176 599.051 679.278Z" fill="#F9A826"/>
<path d="M624.123 562.601L706.695 554.787C706.8 554.779 706.906 554.784 707.01 554.803C707.074 554.812 707.138 554.827 707.199 554.849L841.364 599.52L805.974 603.266L792.729 604.662L755.042 608.644C754.932 608.649 754.821 608.648 754.711 608.64C754.644 608.62 754.577 608.599 754.497 608.578L624.123 562.601Z" fill="#2F2E41"/>
<path d="M595.955 687.297L732.43 739.979C733.072 740.226 733.739 740.401 734.42 740.5C735.409 740.663 736.416 740.676 737.409 740.537L825.583 727.467C827.664 727.164 829.592 726.199 831.082 724.715C832.572 723.231 833.545 721.307 833.857 719.227L851.574 602.467C851.836 600.746 851.638 598.986 851 597.366C850.911 597.15 850.821 596.935 850.716 596.732C850.013 595.253 848.944 593.978 847.609 593.03C846.806 592.453 845.919 592.001 844.98 591.689L844.82 591.632L709.922 546.699C709.37 546.523 708.808 546.386 708.237 546.289C707.458 546.179 706.667 546.164 705.884 546.244L672.036 549.435L652.613 551.288L616.76 554.673C615.294 554.81 613.877 555.278 612.618 556.042C612.52 556.089 612.427 556.145 612.34 556.208C612.277 556.249 612.218 556.294 612.161 556.343C611.062 557.094 610.126 558.061 609.412 559.185C608.698 560.309 608.22 561.567 608.007 562.881L589.795 676.588C589.451 678.808 589.874 681.078 590.994 683.025C592.114 684.972 593.864 686.479 595.955 687.297ZM610.424 563.278C610.645 561.915 611.249 560.643 612.166 559.611C612.444 559.279 612.755 558.976 613.094 558.707C614.019 557.958 615.114 557.448 616.283 557.219C616.513 557.172 616.747 557.139 616.982 557.121L677.347 551.417L706.12 548.679C706.315 548.656 706.494 548.66 706.674 548.649C707.11 548.64 707.545 548.673 707.975 548.746C708.37 548.797 708.758 548.89 709.134 549.022L844.193 594.013C844.299 594.051 844.393 594.087 844.499 594.125C845.727 594.582 846.806 595.367 847.619 596.395C848.261 597.181 848.73 598.095 848.995 599.075C849.26 600.056 849.315 601.081 849.157 602.084L831.424 718.856C831.192 720.414 830.465 721.855 829.35 722.967C828.236 724.08 826.794 724.805 825.236 725.035L737.048 738.103C735.787 738.284 734.5 738.138 733.311 737.677L596.836 685.01C595.271 684.393 593.963 683.263 593.125 681.805C592.287 680.347 591.97 678.648 592.225 676.986L610.424 563.278Z" fill="#F9E426"/>
<path d="M611.868 556.963C611.94 556.756 612.067 556.573 612.236 556.433C612.292 556.388 612.351 556.348 612.413 556.312C612.47 556.29 612.528 556.254 612.586 556.232C612.86 556.122 613.164 556.117 613.442 556.217L616.283 557.22L755.057 606.178L787.536 602.746L805.711 600.829L844.179 596.756L847.619 596.395L848.288 596.321C848.576 596.295 848.864 596.37 849.103 596.534C849.341 596.698 849.515 596.94 849.594 597.218C849.613 597.282 849.625 597.348 849.631 597.414C849.659 597.679 849.601 597.945 849.465 598.173C849.328 598.402 849.122 598.579 848.876 598.68C848.767 598.725 848.653 598.756 848.536 598.771L843.857 599.262L805.974 603.267L792.729 604.662L755.042 608.644C754.932 608.65 754.821 608.648 754.711 608.64C754.644 608.62 754.577 608.6 754.497 608.578L613.094 558.707L612.614 558.537C612.504 558.501 612.401 558.445 612.312 558.371C612.098 558.214 611.94 557.993 611.86 557.74C611.78 557.487 611.783 557.215 611.868 556.963Z" fill="#3F3D56"/>
<path d="M880.857 741.242C882.72 741.191 884.389 741.015 885.503 740.753C886.616 740.491 887.083 740.163 886.802 739.843L770.583 607.129C770.3 606.806 769.283 606.516 767.757 606.322C766.23 606.128 764.318 606.046 762.442 606.095L762.378 606.097C760.515 606.148 758.845 606.324 757.732 606.586C756.619 606.848 756.152 607.175 756.433 607.496L872.652 740.21C872.935 740.532 873.952 740.823 875.478 741.017C877.005 741.211 878.917 741.292 880.793 741.244L880.857 741.242Z" fill="#3F3D56"/>
<path d="M785.293 732.47L772.043 733.868L787.542 602.742C787.542 602.742 805.239 599.538 805.713 600.823C806.004 601.59 785.42 731.629 785.293 732.47Z" fill="#3F3D56"/>
<path d="M612.618 558.536L612.261 618.333L718.111 658.67L756.123 607.606L612.618 558.536Z" fill="#3F3D56"/>
<path d="M847.623 596.397C846.738 595.284 845.547 594.456 844.196 594.013L709.141 549.024C708.762 548.897 708.372 548.802 707.977 548.741C707.546 548.667 707.109 548.634 706.672 548.643L706.891 547.274L708.243 546.295L740.315 523.073L847.42 555.901L847.606 593.03L847.623 596.397Z" fill="#3F3D56"/>
<path d="M618.012 654.531C618.164 654.545 618.314 654.577 618.46 654.625L659.898 668.236C660.417 668.406 660.847 668.776 661.093 669.263C661.34 669.75 661.383 670.315 661.212 670.834C661.042 671.353 660.673 671.783 660.186 672.03C659.698 672.276 659.133 672.319 658.614 672.149L617.176 658.537C616.694 658.379 616.289 658.049 616.035 657.611C615.782 657.172 615.699 656.656 615.803 656.16C615.906 655.664 616.189 655.224 616.596 654.923C617.004 654.623 617.508 654.483 618.012 654.531H618.012Z" fill="white"/>
<path d="M785.205 905.383C794.301 905.383 801.674 898.008 801.674 888.912C801.674 879.816 794.301 872.441 785.205 872.441C776.109 872.441 768.736 879.816 768.736 888.912C768.736 898.008 776.109 905.383 785.205 905.383Z" fill="#F2F2F2"/>
<path d="M365.241 965.775C374.337 965.775 381.711 958.401 381.711 949.304C381.711 940.208 374.337 932.833 365.241 932.833C356.146 932.833 348.772 940.208 348.772 949.304C348.772 958.401 356.146 965.775 365.241 965.775Z" fill="#F2F2F2"/>
<path d="M708.349 420.873C717.445 420.873 724.818 413.499 724.818 404.402C724.818 395.306 717.445 387.932 708.349 387.932C699.253 387.932 691.88 395.306 691.88 404.402C691.88 413.499 699.253 420.873 708.349 420.873Z" fill="#F2F2F2"/>
<path d="M735.37 678.755C733.235 679.682 730.924 680.13 728.597 680.067C726.271 680.005 723.986 679.432 721.905 678.391C719.823 677.35 717.996 675.865 716.55 674.041C715.105 672.217 714.077 670.098 713.539 667.833L657.252 662.146L675.822 639.353L726.425 648.248C730.289 647.596 734.257 648.384 737.579 650.463C740.9 652.542 743.344 655.768 744.446 659.528C745.549 663.288 745.234 667.322 743.561 670.866C741.888 674.41 738.974 677.216 735.37 678.755Z" fill="#F9E426"/>
<path d="M700.75 669.713L569.397 657.609L569.217 657.402L473.352 547.548C467.043 537.882 464.667 526.169 466.712 514.808C468.757 503.447 475.066 493.298 484.349 486.438C489.486 482.652 495.366 479.996 501.602 478.647C507.839 477.297 514.29 477.284 520.532 478.608C526.774 479.931 532.665 482.562 537.817 486.327C542.969 490.092 547.265 494.905 550.423 500.45L609.468 604.138L702.197 641.399L700.75 669.713Z" fill="#E6E6E6"/>
<path d="M1030.44 458.454C1027.18 434.525 1023.09 408.834 1006.21 391.561C1000.86 386.08 994.448 381.74 987.37 378.803C980.293 375.866 972.695 374.393 965.033 374.472C957.371 374.552 949.805 376.182 942.79 379.264C935.775 382.347 929.457 386.819 924.217 392.409C911.933 405.515 906.508 423.919 906.011 441.876C905.515 459.833 909.514 477.591 913.95 494.998C937.427 495.467 960.73 490.88 982.278 481.548C987.666 479.209 992.967 476.565 998.66 475.116C1004.35 473.667 1008.41 477.313 1013.71 479.856L1016.61 474.289C1018.99 478.718 1026.36 477.405 1029.03 473.147C1031.71 468.889 1031.12 463.436 1030.44 458.454Z" fill="#2F2E41"/>
<path d="M937.38 592.015L841.481 594.066C840.008 591.52 837.827 589.457 835.204 588.128C832.58 586.799 829.626 586.261 826.703 586.58C823.779 586.899 821.011 588.061 818.736 589.925C816.46 591.788 814.775 594.273 813.886 597.076C812.997 599.88 812.942 602.882 813.727 605.716C814.513 608.55 816.105 611.096 818.311 613.041C820.516 614.987 823.239 616.25 826.149 616.676C829.059 617.103 832.03 616.674 834.701 615.442C847.42 616.165 946.927 630.29 952.864 621.187C958.889 611.948 991.051 579.343 991.051 579.343L966.329 544.146L937.38 592.015Z" fill="#F7D4D4"/>
<path d="M960.749 482.129C985.634 482.129 1005.81 461.954 1005.81 437.068C1005.81 412.181 985.634 392.007 960.749 392.007C935.865 392.007 915.692 412.181 915.692 437.068C915.692 461.954 935.865 482.129 960.749 482.129Z" fill="#FFB8B8"/>
<path d="M1032.92 523.77C1027.61 513.201 1025.03 500.145 1013.71 496.719C1006.06 494.406 975.145 497.873 968.178 501.778C956.59 508.275 967.091 520.448 960.255 531.84C952.823 544.224 932.625 569.077 925.193 581.461C920.084 589.975 937.294 614.964 934.531 624.501C931.769 634.038 931.636 644.743 936.342 653.486C940.554 661.311 934.46 668.234 938.696 676.046C943.101 684.171 948.507 714.55 944.407 722.834L941.662 731.069C968.901 732.669 991.803 700.126 1018.87 696.698C1025.6 695.846 1032.58 694.734 1038.12 690.831C1046.28 685.082 1049.5 674.65 1051.52 664.872C1061.23 617.079 1054.68 567.413 1032.92 523.77Z" fill="#3F3D56"/>
<path d="M1073.75 635.36C1069.96 625.003 1063.09 579.722 1063.09 579.722L1020.1 578.461L1041.12 630.305L983.765 710.603C983.765 710.603 983.871 710.779 984.064 711.094C981.048 710.61 977.957 711.048 975.194 712.35C972.432 713.652 970.127 715.758 968.58 718.392C967.034 721.026 966.319 724.065 966.528 727.112C966.738 730.159 967.862 733.072 969.754 735.47C971.646 737.867 974.218 739.638 977.133 740.549C980.048 741.461 983.17 741.472 986.091 740.58C989.012 739.688 991.595 737.935 993.504 735.55C995.412 733.165 996.556 730.26 996.786 727.214C996.997 727.335 997.244 727.379 997.484 727.338C997.724 727.297 997.942 727.173 998.101 726.989C1004.48 718.979 1077.55 645.717 1073.75 635.36Z" fill="#FFB8B8"/>
<path d="M1078.12 606.763C1074.18 590.108 1070.2 573.362 1063.55 557.591C1056.9 541.82 1047.37 526.924 1033.98 516.27C1029.7 512.863 1024.91 509.857 1019.54 508.798C1014.17 507.739 1008.12 508.924 1004.35 512.89C998.318 519.236 1000.13 529.422 1002.35 537.895C1008.87 562.876 1015.4 587.857 1021.92 612.838C1040.76 610.84 1059.61 608.843 1078.45 606.845L1078.12 606.763Z" fill="#3F3D56"/>
<path d="M1015.96 443.318C1014.3 432.417 1012.57 421.425 1008.67 411.161C1004.77 400.897 998.487 391.283 989.473 385.469C975.201 376.263 956.724 378.038 940.723 383.334C928.349 387.429 916.27 393.653 907.544 403.66C898.817 413.667 893.916 427.946 897.162 441.03C914.23 436.997 931.298 432.964 948.366 428.931L946.498 430.252C952.102 433.046 956.996 437.081 960.808 442.05C964.62 447.019 967.25 452.791 968.499 458.928C969.719 465.14 969.544 471.545 967.986 477.681C966.427 483.816 963.525 489.529 959.488 494.405C971.129 490.275 982.769 486.146 994.41 482.016C1001.59 479.467 1009.28 476.53 1013.54 469.992C1018.48 462.412 1017.34 452.364 1015.96 443.318Z" fill="#2F2E41"/>
<ellipse cx="928.801" cy="454.802" rx="4.80148" ry="4.80211" fill="#2F2E41"/>
<ellipse cx="951.801" cy="444.802" rx="4.80148" ry="4.80211" fill="#2F2E41"/>
<ellipse cx="586.801" cy="392.802" rx="4.80148" ry="4.80211" fill="#2F2E41"/>
<path d="M770.249 392.733L779.784 385.107C772.377 384.29 769.333 388.33 768.087 391.527C762.3 389.124 756 392.274 756 392.274L775.079 399.2C774.116 396.629 772.441 394.386 770.249 392.733Z" fill="#F9E426"/>
<path d="M831.249 352.733L840.784 345.107C833.377 344.29 830.333 348.33 829.087 351.527C823.3 349.124 817 352.274 817 352.274L836.079 359.2C835.116 356.629 833.441 354.386 831.249 352.733Z" fill="#F9E426"/>
<path d="M687.249 433.733L696.784 426.107C689.377 425.29 686.333 429.33 685.087 432.527C679.3 430.124 673 433.274 673 433.274L692.079 440.2C691.116 437.629 689.441 435.386 687.249 433.733Z" fill="#F9E426"/>
<path d="M323.119 733.238C343.62 733.238 360.238 716.62 360.238 696.119C360.238 675.619 343.62 659 323.119 659C302.619 659 286 675.619 286 696.119C286 716.62 302.619 733.238 323.119 733.238Z" fill="#FFB7B7"/>
<path d="M324.502 731H324.055L316 1192H333L324.502 731Z" fill="white"/>
</g>
<defs>
<clipPath id="clip0_6_461">
<rect width="1184" height="885" fill="white" transform="translate(158 308)"/>
</clipPath>
</defs>
</svg>
