<?xml version="1.0" standalone="no"?>
<!DOCTYPE svg PUBLIC "-//W3C//DTD SVG 20010904//EN"
 "http://www.w3.org/TR/2001/REC-SVG-20010904/DTD/svg10.dtd">
<svg version="1.0" xmlns="http://www.w3.org/2000/svg"
 width="2000.000000pt" height="2000.000000pt" viewBox="0 0 2000.000000 2000.000000"
 preserveAspectRatio="xMidYMid meet">
<metadata>
Created by potrace 1.16, written by Peter Selinger 2001-2019
</metadata>
<g transform="translate(0.000000,2000.000000) scale(0.100000,-0.100000)"
fill="#d865c3" stroke="none">
<path d="M14125 18413 c-62 -97 -230 -348 -750 -1123 -167 -249 -354 -545
-409 -645 -33 -62 -60 -101 310 454 171 256 389 584 486 727 201 300 449 694
436 694 -2 0 -35 -48 -73 -107z"/>
<path d="M12284 17320 c0 -346 2 -497 6 -400 4 85 7 265 7 400 0 135 -3 315
-7 400 -4 97 -6 -54 -6 -400z"/>
<path d="M14095 16531 c-296 -123 -848 -372 -841 -379 6 -5 251 97 556 233
291 129 450 204 435 204 -5 0 -73 -26 -150 -58z"/>
<path d="M7155 16250 c-151 -24 -334 -102 -452 -193 -183 -141 -310 -332 -371
-557 l-26 -95 -4 -698 -3 -698 -32 -14 c-55 -23 -154 -101 -198 -157 -156
-196 -165 -449 -23 -623 38 -47 41 -57 48 -130 13 -143 61 -323 123 -463 12
-29 23 -55 23 -57 0 -3 -76 96 -168 218 -93 123 -229 300 -302 393 -74 93
-139 180 -146 194 -6 14 -15 67 -18 118 -26 367 -158 684 -362 871 -127 116
-235 162 -389 168 -117 5 -156 -9 -190 -67 -32 -56 -27 -180 13 -297 84 -248
235 -454 452 -617 148 -111 265 -167 395 -190 l70 -12 210 -266 c294 -372 340
-432 324 -423 -8 5 -43 28 -79 51 -36 23 -85 51 -110 64 -25 12 -67 39 -95 60
-186 142 -375 209 -610 215 -253 8 -415 -48 -441 -151 -38 -150 240 -313 541
-316 181 -2 345 41 485 128 39 24 77 44 83 44 21 0 178 -95 245 -147 37 -29
84 -74 105 -99 l37 -46 0 -667 c0 -366 -3 -683 -7 -704 -4 -30 -9 -37 -22 -31
-38 15 -122 34 -201 43 -47 6 -114 18 -150 27 -89 22 -366 23 -470 1 -41 -8
-93 -18 -115 -22 -56 -9 -145 -59 -195 -108 -58 -57 -93 -110 -145 -219 -41
-85 -46 -105 -60 -226 -20 -180 -35 -212 -147 -316 -98 -92 -138 -155 -138
-219 0 -22 12 -87 26 -145 32 -130 29 -162 -25 -279 -54 -117 -56 -180 -10
-272 101 -202 360 -298 665 -246 125 22 127 23 69 51 -100 48 -199 158 -244
272 -45 114 -54 193 -56 477 -1 149 0 311 2 361 l4 90 60 -4 c76 -6 193 30
304 92 52 30 68 36 46 18 -19 -15 -46 -37 -60 -50 l-26 -23 39 6 c73 12 220
67 337 125 l117 58 15 -82 c29 -156 87 -261 175 -317 62 -39 101 -49 202 -49
141 0 209 -48 218 -154 6 -79 -20 -126 -134 -238 -113 -112 -129 -143 -119
-241 7 -68 7 -69 -30 -122 -46 -68 -59 -122 -45 -189 19 -88 79 -159 167 -197
l43 -18 -2 -63 -2 -63 -131 -88 c-183 -123 -315 -162 -468 -137 -139 22 -237
76 -292 162 l-30 47 -841 0 c-947 1 -901 5 -980 -74 l-42 -42 -83 113 c-46 62
-86 113 -90 114 -9 0 -119 -101 -119 -110 0 -4 57 -82 128 -171 l127 -164 5
-1465 c5 -1384 6 -1467 23 -1505 25 -55 63 -93 122 -121 l50 -24 1254 0 1254
0 -5 -862 c-3 -487 -1 -896 4 -938 27 -225 126 -430 287 -591 169 -169 375
-265 615 -288 58 -6 988 -13 2171 -18 2667 -10 2657 -10 2730 5 413 89 711
382 802 787 10 47 18 154 22 330 6 215 10 267 25 298 10 22 22 37 29 34 316
-131 492 -168 792 -168 603 0 1170 194 1678 573 337 251 475 434 494 654 22
261 -170 436 -478 436 -79 0 -123 -7 -245 -38 -118 -31 -168 -38 -240 -39 -85
0 -96 2 -160 35 -116 60 -158 157 -114 272 50 135 158 198 435 254 316 63 522
133 780 261 303 151 431 277 429 423 -1 68 -28 123 -85 174 -58 53 -127 82
-276 116 -183 41 -236 63 -299 124 -81 79 -95 167 -39 234 13 16 90 63 171
106 504 265 904 609 1005 863 19 48 23 77 24 168 0 102 -2 115 -29 170 -17 35
-55 86 -91 121 -249 251 -650 191 -986 -146 -61 -62 -164 -187 -289 -355 -153
-205 -221 -287 -324 -390 -194 -193 -288 -235 -361 -162 -46 46 -52 89 -31
215 15 85 16 111 6 152 -15 62 -74 131 -144 168 -43 22 -64 27 -131 27 -68 0
-89 -5 -140 -29 -90 -44 -182 -141 -233 -246 -57 -118 -80 -225 -167 -780 -42
-267 -85 -522 -95 -567 -72 -306 -280 -368 -531 -159 -36 30 -78 70 -92 90
l-27 34 -2 959 -3 958 -29 53 c-35 63 -90 106 -157 123 l-49 13 0 763 0 763
2078 2 2077 3 56 26 c69 33 129 91 166 161 l28 53 3 920 2 920 -46 -75 c-26
-41 -75 -112 -109 -158 l-62 -83 -6 -98 c-15 -245 -102 -523 -235 -746 -52
-88 -162 -231 -234 -304 l-62 -65 -8 35 c-3 19 -21 135 -38 259 -18 124 -34
231 -36 238 -2 8 -56 -36 -136 -111 -232 -218 -435 -386 -640 -529 -127 -90
-128 -89 64 -62 223 31 456 91 667 173 55 21 101 35 101 31 0 -13 -158 -80
-294 -126 -193 -64 -468 -114 -626 -114 -46 0 -66 -8 -174 -70 -221 -126 -440
-206 -597 -217 -81 -5 -92 -4 -141 20 -129 63 -301 247 -510 547 -26 37 15
-69 50 -129 l26 -46 -59 51 c-183 158 -317 334 -425 556 -47 96 -57 125 -47
134 10 10 740 452 867 526 l46 26 143 -198 c78 -109 173 -236 210 -282 79 -97
80 -98 188 -36 71 40 403 284 473 348 l35 31 -34 -5 c-151 -26 -795 -54 -846
-37 -28 9 -27 9 20 10 28 1 181 8 340 16 160 9 346 18 415 20 l125 5 155 127
c254 208 521 435 516 440 -2 2 -73 -3 -158 -11 -322 -32 -836 -56 -1183 -55
-355 2 -347 14 15 22 388 8 704 22 1086 46 l271 17 74 64 c89 77 185 204 199
263 5 23 16 64 24 91 l15 48 -42 -6 c-351 -49 -1648 -99 -2037 -79 -125 7 -72
10 400 21 758 17 1664 60 1680 80 4 4 19 39 34 79 50 130 101 179 146 138 25
-23 25 -52 -1 -161 -35 -147 -24 -257 27 -270 79 -20 193 77 364 311 40 55 76
102 80 105 4 3 87 108 185 233 l177 229 -57 58 c-32 33 -62 57 -67 54 -4 -3
-74 -93 -155 -201 l-148 -196 -5 89 c-4 70 -11 101 -33 146 -35 71 -109 139
-185 170 l-57 23 -667 3 -668 3 0 23 c0 22 -2 23 -45 15 -138 -26 -272 -168
-326 -347 l-12 -43 -18 56 c-31 101 -109 192 -232 272 -124 81 -353 175 -368
151 -4 -6 -6 -37 -6 -70 l2 -58 -888 0 -888 0 1 763 c2 679 0 771 -15 841 -89
424 -436 744 -860 794 -57 7 -598 13 -1495 17 -773 3 -1841 7 -2375 10 -571 2
-995 0 -1030 -5z m1321 -405 c57 -17 115 -70 139 -127 10 -26 15 -71 15 -150
0 -62 5 -132 10 -156 15 -63 54 -116 109 -145 l48 -27 919 -6 919 -6 55 29
c40 21 63 42 85 77 28 47 30 54 35 200 5 143 7 154 33 199 16 26 47 60 69 75
l42 27 515 3 c594 3 613 1 771 -75 79 -38 108 -59 181 -132 73 -73 94 -102
132 -181 78 -164 77 -148 77 -929 l0 -691 -2372 -2 -2373 -3 -60 -24 c-71 -29
-149 -103 -185 -176 l-25 -50 0 -1495 0 -1495 26 -55 c33 -70 95 -132 167
-167 l57 -28 382 -3 c350 -3 382 -4 387 -20 2 -9 28 -152 57 -317 28 -165 55
-304 59 -308 4 -4 141 139 306 318 l299 325 1627 0 1628 0 0 -643 c0 -354 -3
-699 -7 -765 l-6 -122 -3009 0 -3008 0 0 61 0 62 38 -7 c54 -8 206 11 281 35
139 46 239 149 261 270 14 76 1 132 -50 210 -50 78 -51 105 -5 215 55 134 44
190 -53 272 -93 79 -153 135 -165 157 -8 12 -12 69 -12 151 l0 132 -31 38
c-17 22 -62 63 -100 92 -65 50 -71 58 -100 135 -16 45 -35 92 -42 104 -7 12
-12 61 -12 112 0 88 0 90 30 111 44 31 83 104 84 155 1 52 -24 91 -78 120
l-37 20 6 1700 c6 1987 10 2283 31 2375 44 192 190 377 369 465 148 74 148 74
826 74 505 1 614 -1 655 -14z m7439 -2130 c253 -82 477 -217 660 -398 116
-115 115 -117 -6 -24 l-76 57 -358 0 c-253 0 -356 3 -348 11 7 7 118 9 346 7
l335 -3 -42 28 c-61 42 -189 105 -286 142 -85 32 -123 46 -127 47 -1 0 -24 6
-50 14 -27 8 -88 24 -138 35 -49 11 -93 25 -97 32 -4 7 -8 33 -8 59 l0 48 33
-7 c17 -3 91 -25 162 -48z m-1680 -415 c-3 -5 -52 -35 -108 -66 -139 -77 -624
-352 -664 -376 -18 -11 -33 -16 -33 -11 0 11 173 122 340 218 124 72 454 245
466 245 3 0 2 -4 -1 -10z m-7947 -582 l-3 -193 -47 121 c-54 138 -91 274 -107
388 -18 126 -16 133 27 155 20 10 57 35 82 55 l45 36 3 -185 c1 -101 1 -271 0
-377z m8177 208 c-56 -38 -752 -414 -965 -521 -49 -25 -90 -42 -90 -38 0 19
1028 573 1062 573 7 0 4 -6 -7 -14z m-2046 -173 c463 -3 836 -10 829 -14 -19
-13 -4775 -11 -4783 1 -4 6 188 11 557 13 1407 6 2621 6 3397 0z m2231 -309
c-181 -99 -1036 -519 -1109 -545 -25 -9 -25 -9 -6 7 25 19 646 332 935 470
211 102 308 138 180 68z m-2231 -121 c463 -3 836 -10 829 -14 -19 -13 -4775
-11 -4783 1 -4 6 186 11 552 13 1393 6 2627 6 3402 0z m736 -432 c240 -13
-583 -21 -2295 -21 -1667 0 -2529 8 -2310 21 131 7 4469 8 4605 0z m-1640
-440 c199 -14 -280 -21 -1485 -21 -1170 0 -1686 7 -1495 21 113 8 2871 8 2980
0z m-4802 -2842 c51 -14 47 -28 -7 -22 -99 12 -152 -18 -206 -113 -23 -41 -41
-60 -68 -71 -35 -15 -41 -14 -119 12 -73 26 -86 27 -121 17 -37 -11 -67 -38
-99 -88 -11 -18 -12 -18 -12 5 -1 15 14 39 42 66 59 59 96 65 193 32 93 -32
112 -27 158 45 43 67 74 96 123 113 47 17 67 18 116 4z m-2503 -279 c35 -37
92 -171 126 -298 38 -139 97 -218 278 -373 137 -117 140 -119 189 -119 51 0
67 -11 134 -93 27 -32 50 -34 103 -7 66 34 134 25 188 -23 35 -32 26 -40 -15
-12 -47 31 -108 33 -163 5 -71 -36 -112 -25 -159 44 -28 40 -78 73 -99 65 -15
-6 660 -563 698 -577 8 -3 34 -18 57 -34 54 -36 82 -36 119 3 41 43 76 59 129
59 45 0 105 -22 105 -39 0 -5 -19 -2 -42 6 -58 20 -101 9 -151 -36 -23 -21
-53 -44 -65 -50 -23 -12 -19 -16 88 -92 125 -88 212 -134 235 -125 16 6 175
242 175 259 0 5 6 7 14 4 12 -5 568 -433 649 -500 l38 -32 -94 -132 c-222
-309 -413 -507 -545 -564 -53 -23 -123 -24 -232 -3 -357 67 -827 353 -1297
790 -93 86 -103 93 -107 72 -3 -13 -21 -133 -41 -268 l-36 -245 80 -76 c139
-131 336 -259 519 -334 31 -13 52 -24 46 -25 -6 0 -39 12 -74 26 -290 118
-575 338 -743 575 -82 115 -170 257 -204 328 -81 172 -148 425 -160 609 -6 95
-7 98 -48 152 -134 175 -255 398 -301 555 -31 108 -35 219 -10 315 25 98 57
190 64 190 4 0 25 -25 47 -56 179 -247 309 -371 382 -362 62 7 81 132 43 278
-24 91 -25 134 -4 154 24 24 53 19 84 -14z m1045 6 c37 -24 28 -28 -30 -11
-81 25 -156 0 -209 -70 -57 -75 -115 -81 -200 -20 -27 19 -63 37 -80 41 -41 7
-110 -20 -136 -54 -27 -34 -34 -24 -10 15 25 42 72 65 132 65 39 0 59 -7 103
-35 87 -58 95 -58 163 7 32 30 74 62 93 71 44 20 137 15 174 -9z m1722 -179
c14 -14 35 -49 47 -78 l21 -54 90 0 c53 0 99 -5 111 -12 33 -19 74 -72 74 -96
0 -18 -4 -16 -24 14 -14 20 -42 44 -62 54 -33 15 -46 16 -97 7 -89 -17 -115
-1 -146 85 -23 64 -70 97 -126 89 -38 -6 -39 -5 -20 10 29 23 101 13 132 -19z
m-1077 -84 c14 -8 40 -35 58 -59 37 -49 47 -52 100 -25 56 28 89 33 134 21 39
-11 88 -49 88 -69 0 -6 -16 1 -36 14 -57 39 -94 41 -160 11 -75 -34 -100 -33
-133 5 -89 106 -115 118 -181 84 -31 -16 -41 -6 -16 14 37 31 97 33 146 4z
m-668 -199 c15 -8 42 -35 60 -60 18 -25 46 -53 61 -61 27 -14 33 -12 104 21
86 41 137 45 198 17 42 -19 93 -67 82 -77 -3 -3 -16 4 -29 16 -63 61 -139 65
-243 14 -97 -47 -119 -43 -183 36 -73 90 -140 112 -211 69 -18 -11 -35 -18
-38 -16 -8 9 41 48 67 53 14 3 30 7 35 9 15 5 67 -6 97 -21z m6409 -161 c650
-6 837 -10 664 -14 -351 -9 -3854 -10 -4235 -1 l-325 7 605 5 c1078 9 2366 10
3291 3z m-4703 -133 c21 -13 40 -37 52 -68 34 -80 28 -77 126 -77 77 0 93 -3
122 -23 34 -25 66 -75 59 -95 -2 -6 -11 2 -21 18 -35 59 -61 70 -162 67 -104
-3 -117 5 -150 92 -22 61 -62 89 -116 82 -21 -2 -38 0 -38 4 0 25 86 25 128 0z
m518 -232 c32 -215 8 -487 -61 -708 -37 -120 -143 -328 -222 -440 -83 -117
-270 -305 -379 -383 -145 -102 -366 -217 -464 -241 l-25 -6 25 12 c14 6 66 30
115 51 279 122 420 310 442 589 3 42 9 82 13 88 5 8 20 3 50 -19 24 -17 47
-28 51 -24 18 20 201 524 281 773 27 85 65 189 84 230 19 43 39 109 46 153 15
92 21 83 44 -75z m-1264 44 c18 -18 4 -24 -28 -12 -43 17 -91 3 -137 -39 -46
-42 -78 -61 -100 -61 -8 0 -37 16 -65 34 -71 49 -123 52 -166 9 -14 -14 -29
-23 -32 -20 -4 4 9 22 29 42 49 49 101 49 176 1 58 -38 70 -37 116 4 61 55 77
62 138 58 31 -3 63 -10 69 -16z m252 -106 c19 -8 47 -33 64 -59 17 -24 38 -47
47 -51 9 -3 43 5 75 19 33 14 71 25 85 25 39 0 89 -24 113 -55 27 -34 20 -46
-11 -18 -55 51 -91 54 -179 17 -73 -31 -98 -27 -135 23 -52 68 -73 83 -115 83
-22 0 -48 -5 -60 -11 -34 -18 -32 -1 3 20 40 25 67 26 113 7z m5206 -4 c652
-5 829 -9 650 -13 -360 -9 -3850 -10 -4230 -1 l-325 7 600 5 c1067 9 2389 10
3305 2z m780 -432 c63 -3 -965 -6 -2285 -6 -1320 0 -2353 3 -2295 6 147 9
4439 9 4580 0z m-5707 -24 c41 -17 59 -39 81 -98 10 -27 25 -52 34 -57 8 -5
50 -7 91 -4 64 4 81 1 108 -16 39 -24 66 -64 61 -88 -3 -15 -7 -12 -22 13 -35
59 -83 75 -181 60 -43 -7 -54 -5 -77 13 -14 12 -34 43 -43 70 -21 66 -45 85
-114 92 -51 5 -54 6 -31 17 34 15 55 14 93 -2z m4072 -415 c154 -10 -1373 -18
-2260 -12 -434 3 -749 9 -700 12 127 8 2839 8 2960 0z m-5961 -432 c13 -6 38
-31 55 -55 17 -23 40 -45 50 -49 10 -3 42 6 72 20 81 37 135 31 192 -23 29
-28 38 -55 10 -30 -31 27 -81 48 -113 48 -17 0 -53 -11 -80 -25 -72 -37 -86
-33 -150 35 -63 68 -99 82 -151 56 -38 -19 -39 -19 -39 -6 0 31 105 51 154 29z
m1146 -344 c44 -23 36 -35 -11 -19 -59 21 -103 9 -160 -42 -63 -56 -96 -58
-165 -9 -30 21 -61 35 -79 35 -29 0 -72 -22 -87 -44 -4 -6 -10 -7 -14 -3 -10
9 24 46 60 64 39 20 87 11 138 -26 54 -40 79 -39 125 2 21 19 47 39 58 45 29
16 101 15 135 -3z m4724 -606 c162 -176 298 -320 303 -320 4 0 26 107 49 238
54 304 65 364 71 386 4 16 48 17 735 17 l731 0 -6 -807 c-7 -863 -8 -865 -59
-986 -94 -223 -301 -386 -539 -427 -73 -12 -4720 7 -4818 20 -162 22 -285 84
-406 205 -84 84 -132 162 -176 285 l-24 65 -3 823 -3 822 1925 0 1924 0 296
-321z"/>
<path d="M9190 4283 c-33 -12 -60 -47 -60 -78 0 -85 139 -110 176 -32 21 44 6
83 -41 102 -36 16 -50 17 -75 8z"/>
<path d="M9471 4273 c-65 -34 -62 -111 5 -139 65 -27 134 10 134 71 0 63 -77
100 -139 68z"/>
<path d="M9786 4279 c-93 -26 -86 -136 11 -155 39 -8 91 18 104 53 23 62 -43
122 -115 102z"/>
<path d="M15224 16251 c-101 -26 -201 -107 -245 -197 l-24 -51 -65 -5 c-76 -6
-130 -31 -182 -85 -47 -49 -68 -99 -68 -165 0 -79 -14 -115 -64 -161 -48 -46
-66 -91 -66 -170 0 -65 17 -101 84 -177 31 -36 69 -91 84 -122 20 -43 32 -57
49 -57 20 -1 29 -7 61 -46 7 -8 29 -15 48 -15 71 0 111 86 121 257 l6 102 33
11 c55 19 118 88 162 181 22 47 47 91 56 98 32 27 184 8 314 -41 31 -11 100
-40 153 -64 123 -55 237 -79 338 -71 42 3 86 9 99 13 21 6 22 4 22 -55 0 -36
4 -61 10 -61 20 0 89 40 125 72 95 82 117 235 50 336 -48 73 -150 108 -233 79
-32 -11 -44 -12 -47 -4 -44 158 -142 240 -285 239 -36 0 -78 -5 -95 -12 -27
-10 -31 -9 -49 17 -66 92 -175 152 -287 158 -41 2 -88 1 -105 -4z"/>
<path d="M15331 15242 c-44 -22 -62 -49 -41 -62 17 -11 197 -1 222 11 42 22
-29 69 -104 69 -23 0 -58 -8 -77 -18z"/>
<path d="M15908 15244 c-70 -38 -1 -83 106 -70 71 9 90 34 50 65 -32 25 -115
28 -156 5z"/>
<path d="M15371 15088 c-30 -16 -43 -45 -15 -34 15 6 17 5 7 -5 -22 -22 -15
-67 12 -85 49 -32 104 23 75 75 -6 12 -18 21 -27 21 -9 0 -14 3 -10 6 3 4 29
-1 58 -10 28 -10 53 -15 55 -13 2 2 -7 14 -20 26 -30 28 -100 38 -135 19z"/>
<path d="M15930 15078 c-28 -17 -31 -23 -17 -26 14 -3 16 -7 6 -18 -17 -20 -2
-63 26 -76 55 -25 100 48 58 94 -17 19 -16 19 12 12 17 -4 38 -11 47 -15 28
-15 42 -11 27 7 -38 46 -105 56 -159 22z"/>
</g>
</svg>
