<?xml version="1.0" standalone="no"?>
<!DOCTYPE svg PUBLIC "-//W3C//DTD SVG 20010904//EN"
 "http://www.w3.org/TR/2001/REC-SVG-20010904/DTD/svg10.dtd">
<svg version="1.0" xmlns="http://www.w3.org/2000/svg"
 width="7507.000000pt" height="5000.000000pt" viewBox="0 0 7507.000000 5000.000000"
 preserveAspectRatio="xMidYMid meet">
<metadata>
Created by potrace 1.16, written by Peter Selinger 2001-2019
</metadata>
<g transform="translate(0.000000,5000.000000) scale(0.100000,-0.100000)"
fill="#d865c3" stroke="none">
<path d="M34550 45945 l0 -1125 100 0 100 0 0 1125 0 1125 -100 0 -100 0 0
-1125z"/>
<path d="M32700 45875 l0 -1055 403 0 c464 0 528 8 672 79 217 108 321 262
332 491 14 278 -127 472 -380 524 -38 8 -71 16 -73 19 -2 2 21 11 51 21 128
40 243 156 282 284 25 80 24 257 -1 332 -40 121 -129 219 -249 275 -151 72
-261 85 -704 85 l-333 0 0 -1055z m756 844 c214 -39 349 -217 313 -413 -14
-78 -40 -127 -95 -183 -56 -56 -148 -99 -239 -113 -39 -6 -170 -9 -295 -8
l-225 3 -3 350 c-1 192 0 356 3 362 6 17 454 18 541 2z m87 -914 c148 -31 252
-106 303 -218 26 -56 29 -72 29 -167 0 -86 -4 -113 -22 -152 -51 -111 -173
-198 -330 -235 -65 -15 -122 -18 -343 -18 l-265 0 -3 403 -2 402 282 0 c208 0
301 -4 351 -15z"/>
<path d="M35771 46240 c-179 -25 -355 -120 -457 -247 -54 -68 -117 -194 -139
-278 -9 -33 -18 -103 -22 -155 -23 -370 195 -673 547 -761 82 -21 317 -18 400
5 146 39 273 119 369 231 57 66 125 211 147 309 24 113 16 302 -18 408 -77
234 -260 408 -492 468 -90 23 -246 32 -335 20z m230 -184 c182 -39 322 -166
383 -348 92 -274 -20 -576 -257 -693 -305 -149 -656 12 -741 341 -20 79 -21
232 -1 309 73 285 334 450 616 391z"/>
<path d="M37515 46240 c-184 -28 -343 -120 -443 -254 -99 -134 -152 -295 -152
-463 0 -122 22 -212 76 -323 39 -78 61 -109 128 -175 141 -139 308 -205 521
-205 216 0 378 68 485 202 l40 51 0 -175 c0 -263 -34 -371 -151 -483 -222
-212 -653 -172 -884 82 l-40 44 -73 -81 c-85 -93 -87 -81 28 -173 145 -116
307 -174 515 -184 354 -17 607 101 724 339 77 154 74 128 78 996 l4 772 -101
0 -100 0 0 -110 0 -109 -67 67 c-76 75 -188 140 -288 166 -77 20 -224 27 -300
16z m250 -185 c102 -22 188 -68 259 -139 73 -74 110 -138 136 -242 36 -140 24
-270 -36 -392 -120 -245 -433 -355 -679 -239 -291 138 -399 508 -227 772 128
197 331 285 547 240z"/>
<path d="M39360 46243 c-292 -33 -518 -232 -597 -523 -28 -101 -25 -302 6
-400 38 -123 87 -207 171 -290 141 -140 281 -200 492 -208 95 -3 145 0 201 12
137 31 266 109 328 200 13 20 28 36 33 36 14 0 -1 -346 -19 -418 -58 -238
-245 -372 -520 -372 -179 0 -335 62 -464 184 l-76 72 -75 -79 -75 -79 50 -45
c115 -104 264 -182 410 -214 38 -9 123 -14 230 -14 193 1 262 14 380 71 188
91 291 227 334 441 20 97 21 132 21 847 l0 746 -95 0 -95 0 0 -117 0 -117 -50
56 c-139 156 -364 237 -590 211z m294 -207 c217 -78 345 -267 346 -508 0 -190
-75 -340 -220 -437 -301 -200 -679 -68 -797 278 -27 79 -31 216 -8 300 44 167
178 312 340 369 82 29 98 31 192 26 52 -2 106 -13 147 -28z"/>
<path d="M41155 46239 c-272 -40 -488 -236 -567 -515 -18 -64 -22 -104 -22
-209 0 -156 15 -221 81 -355 38 -78 60 -109 127 -175 89 -89 170 -137 296
-177 64 -20 95 -23 220 -23 139 1 149 2 245 36 55 19 127 52 160 74 64 43 185
157 185 176 0 12 -14 24 -98 90 l-53 42 -16 -24 c-30 -45 -125 -127 -182 -158
-149 -79 -323 -81 -474 -5 -71 36 -178 142 -216 214 -32 60 -75 205 -65 221 3
5 257 9 580 9 l574 0 0 101 c0 129 -21 222 -75 334 -53 109 -112 178 -206 241
-141 93 -312 129 -494 103z m205 -179 c180 -29 315 -162 350 -347 7 -34 10
-69 7 -78 -6 -13 -62 -15 -473 -15 l-467 0 6 52 c15 127 133 277 270 342 108
52 189 64 307 46z"/>
<path d="M42834 46235 c-134 -29 -241 -106 -305 -221 l-34 -59 -3 128 -3 127
-96 0 -96 0 6 -137 c4 -75 7 -387 7 -695 l0 -558 100 0 100 0 0 418 c0 374 2
424 18 483 36 131 120 232 239 291 64 31 73 33 180 33 l111 0 18 88 c9 48 14
91 10 94 -9 9 -95 22 -146 22 -25 -1 -73 -7 -106 -14z"/>
<path d="M33140 39715 c-576 -72 -1315 -340 -1776 -643 -308 -203 -534 -472
-637 -758 -50 -140 -60 -211 -61 -459 -1 -272 3 -259 -144 -476 -143 -212
-137 -186 -137 -562 0 -310 0 -318 -20 -322 -11 -2 -128 -20 -260 -40 -316
-48 -331 -51 -355 -82 -28 -36 -26 -94 4 -130 32 -36 49 -36 341 10 127 20
246 37 265 39 l35 3 3 -253 c3 -269 -5 -338 -48 -422 -44 -86 -123 -150 -218
-175 l-47 -12 60 -8 c211 -28 445 91 557 283 28 47 38 45 38 -7 0 -52 -40
-129 -96 -187 -107 -109 -422 -327 -641 -444 -35 -18 -63 -36 -63 -40 0 -13
92 -41 157 -47 141 -13 302 34 552 163 90 47 167 81 171 77 4 -4 13 -55 19
-113 14 -118 58 -441 67 -482 3 -16 21 -37 45 -54 23 -15 58 -52 80 -82 24
-34 40 -50 43 -41 3 8 60 221 127 474 67 253 128 465 135 471 8 6 60 16 116
23 223 27 342 62 645 189 368 155 428 167 799 158 360 -8 465 5 612 77 76 37
145 96 183 155 15 24 29 39 32 35 3 -5 13 -57 23 -117 15 -92 16 -119 6 -178
-27 -154 -107 -241 -245 -267 -68 -12 -97 -26 -97 -46 0 -30 286 -16 440 21
193 47 297 135 435 369 151 257 237 322 590 445 173 61 271 108 370 178 78 54
199 172 247 238 58 82 32 142 452 -1052 208 -594 379 -1080 381 -1082 1 -1 39
14 84 35 94 44 81 15 146 308 63 288 121 622 160 932 l7 53 53 -6 c51 -6 56
-5 84 24 24 24 31 39 31 70 0 53 -23 78 -90 101 -53 18 -55 19 -52 52 9 124
22 387 22 453 l0 79 40 -55 c67 -94 189 -168 276 -168 l37 0 -28 27 c-48 48
-68 101 -73 189 -6 105 5 153 78 339 109 281 102 367 -55 615 -81 129 -102
182 -155 396 -27 107 -62 223 -78 257 -78 167 -235 283 -460 340 -76 19 -114
22 -297 22 -115 0 -235 -3 -267 -7 l-56 -8 -7 43 c-14 81 -66 242 -105 322
-75 155 -176 251 -359 341 -54 26 -237 94 -420 154 -441 147 -665 207 -941
252 -166 27 -589 34 -760 13z m264 -329 c206 -56 236 -74 236 -143 0 -39 -5
-50 -34 -78 -53 -50 -128 -69 -250 -62 -163 9 -401 69 -448 115 -48 45 -33
137 29 177 91 60 220 57 467 -9z m-1093 -292 c17 -8 37 -30 45 -49 31 -74 5
-276 -50 -383 -28 -56 -83 -113 -142 -147 -23 -13 -140 -63 -260 -111 -121
-48 -231 -95 -246 -106 -28 -19 -42 -54 -52 -127 -12 -84 -68 -160 -185 -254
-98 -77 -160 -107 -229 -107 -103 0 -159 53 -155 146 2 65 35 115 138 209 170
157 231 276 245 477 11 158 10 156 205 255 130 66 293 130 425 166 185 52 215
55 261 31z"/>
<path d="M43523 38056 c-91 -22 -182 -74 -248 -141 l-61 -62 -60 56 c-106 99
-213 141 -359 141 -227 0 -412 -129 -495 -345 -19 -48 -23 -81 -24 -165 -1
-92 2 -113 25 -168 75 -177 206 -334 742 -887 171 -176 196 -198 214 -190 12
6 114 114 229 240 549 609 683 808 684 1015 0 149 -45 255 -155 365 -132 132
-313 184 -492 141z m256 -75 c165 -51 292 -199 322 -372 32 -195 -103 -399
-688 -1045 l-166 -183 -166 172 c-92 95 -218 226 -281 292 -330 344 -450 519
-458 669 -16 273 246 508 518 465 120 -18 253 -102 310 -194 31 -49 61 -47 98
8 64 92 176 174 269 196 67 16 177 12 242 -8z"/>
<path d="M28915 36225 c-180 -42 -521 -130 -607 -156 -78 -23 -98 -45 -98
-107 0 -55 33 -92 83 -92 19 0 119 23 223 51 104 28 281 72 394 99 176 42 208
53 228 75 41 48 20 133 -39 154 -39 13 -17 16 -184 -24z"/>
<path d="M37465 35788 c-23 -27 -26 -39 -22 -71 3 -22 14 -48 24 -58 10 -10
104 -48 208 -84 105 -37 278 -100 386 -141 107 -41 208 -74 223 -74 43 0 86
49 86 99 0 66 -23 81 -245 164 -565 212 -611 223 -660 165z"/>
<path d="M32156 35360 c-188 -22 -329 -77 -426 -167 -107 -99 -140 -190 -80
-220 43 -22 187 -16 322 13 147 31 235 30 506 -10 96 -15 205 -26 242 -26 60
0 73 3 101 27 112 94 78 278 -61 337 -90 37 -444 64 -604 46z"/>
<path d="M34665 35363 c-104 -7 -271 -35 -310 -52 -70 -31 -125 -113 -125
-186 0 -46 24 -102 60 -137 36 -37 40 -38 108 -38 39 0 148 11 244 26 269 39
358 41 509 10 82 -17 159 -26 218 -26 85 0 94 2 117 25 29 29 27 44 -14 115
-111 193 -407 290 -807 263z"/>
<path d="M38933 35235 c-12 -8 -27 -31 -33 -50 -10 -30 -9 -41 7 -72 16 -33
34 -44 208 -125 105 -49 271 -129 370 -178 202 -101 234 -108 279 -64 28 29
36 87 16 125 -11 20 -286 162 -584 300 -176 82 -221 93 -263 64z"/>
<path d="M34804 34811 c-65 -40 -110 -123 -147 -271 -31 -122 -30 -408 1 -522
39 -143 107 -238 171 -238 67 0 139 87 179 217 34 109 44 189 44 333 0 215
-40 368 -116 447 -50 52 -88 62 -132 34z"/>
<path d="M32306 34761 c-60 -40 -110 -141 -142 -287 -22 -103 -22 -339 -1
-444 40 -196 126 -317 211 -296 97 24 178 220 192 462 18 302 -82 584 -206
584 -14 0 -38 -9 -54 -19z"/>
<path d="M40317 34520 c-32 -25 -44 -79 -27 -119 9 -23 44 -48 143 -107 73
-42 232 -139 354 -215 192 -120 227 -139 263 -139 57 0 90 33 90 93 0 24 -6
51 -12 60 -16 20 -212 145 -499 318 -233 139 -261 149 -312 109z"/>
<path d="M30724 34505 c-22 -7 -58 -22 -80 -33 -114 -59 -193 -201 -197 -354
-2 -52 1 -63 16 -66 14 -3 17 4 17 35 0 64 29 165 62 216 56 87 144 142 259
162 45 8 80 -8 136 -67 35 -36 133 -205 133 -229 0 -4 -12 -10 -27 -14 -42
-10 -62 -33 -79 -93 -25 -86 -2 -184 58 -244 29 -29 15 -47 -58 -77 -39 -16
-86 -26 -141 -29 -74 -4 -86 -2 -128 22 -50 27 -65 27 -65 -4 0 -48 116 -88
219 -75 118 15 251 84 251 131 0 12 -16 40 -35 61 -52 56 -79 116 -71 161 9
58 36 86 85 90 25 2 44 9 48 17 13 36 -106 277 -169 342 -60 62 -139 78 -234
48z"/>
<path d="M36458 34500 c-46 -25 -96 -86 -140 -170 -48 -90 -90 -200 -84 -216
3 -9 21 -14 44 -14 51 0 83 -33 89 -92 6 -52 -13 -98 -62 -153 -65 -74 -58
-98 48 -149 94 -46 191 -63 269 -47 62 13 108 43 108 70 0 30 -11 31 -63 4
-45 -22 -60 -25 -132 -21 -64 3 -95 11 -148 36 -37 17 -67 36 -67 41 0 6 9 18
19 28 100 95 87 313 -20 341 l-30 7 45 92 c53 105 122 187 171 203 66 22 207
-31 275 -103 49 -52 89 -146 98 -229 5 -55 11 -73 22 -73 10 0 16 12 18 37 9
104 -58 272 -133 334 -101 82 -250 116 -327 74z"/>
<path d="M33547 34444 c-4 -4 -7 -80 -7 -168 0 -324 -48 -585 -164 -879 -57
-146 -61 -212 -20 -295 40 -80 96 -116 238 -152 84 -21 100 -40 91 -110 -10
-85 -10 -103 2 -107 20 -7 44 42 49 99 3 35 -2 70 -13 103 -17 46 -22 51 -63
63 -168 47 -185 55 -226 96 -27 27 -46 57 -54 86 -13 48 -19 27 75 284 77 213
120 448 130 709 8 201 -6 303 -38 271z"/>
<path d="M45607 34369 c-258 -63 -456 -254 -539 -519 -30 -97 -32 -288 -5
-390 57 -210 200 -385 391 -479 120 -59 190 -75 331 -75 141 0 211 16 331 75
187 92 320 250 385 459 34 108 34 302 1 410 -69 218 -221 393 -417 479 -139
61 -329 77 -478 40z m308 -134 c102 -49 159 -143 159 -260 1 -86 -34 -167 -94
-218 l-39 -33 58 -42 c64 -45 137 -135 182 -225 29 -56 89 -223 89 -246 0 -8
-138 -11 -485 -11 l-486 0 7 38 c36 199 150 398 270 468 l44 26 -30 25 c-73
61 -111 178 -90 276 39 188 242 287 415 202z"/>
<path d="M41623 33666 c-23 -20 -28 -32 -28 -71 0 -57 -1 -56 256 -247 101
-75 236 -177 299 -227 63 -50 127 -93 143 -96 45 -11 100 23 111 66 16 65 4
83 -122 182 -128 102 -352 271 -476 360 -92 66 -135 74 -183 33z"/>
<path d="M22716 33217 c-51 -48 -59 -83 -31 -137 17 -32 72 -55 107 -45 22 7
171 115 166 120 -9 9 -182 105 -188 105 -4 0 -28 -19 -54 -43z"/>
<path d="M22115 32711 c-35 -22 -341 -300 -503 -457 -109 -106 -112 -110 -112
-152 0 -78 76 -126 143 -91 12 7 74 62 137 123 63 62 194 183 290 270 96 88
180 168 187 180 36 63 -14 146 -89 146 -13 0 -36 -9 -53 -19z"/>
<path d="M42863 32705 c-42 -18 -64 -81 -42 -125 8 -16 73 -81 144 -146 72
-64 202 -185 290 -269 88 -83 170 -157 182 -163 67 -36 143 12 143 90 0 41 -3
46 -97 137 -171 165 -487 453 -518 472 -35 22 -59 23 -102 4z"/>
<path d="M60560 32464 c-215 -40 -333 -76 -475 -144 -445 -214 -758 -620 -857
-1113 -19 -92 -23 -145 -23 -297 0 -152 4 -205 23 -297 113 -564 518 -1023
1052 -1191 187 -59 245 -67 485 -67 240 0 298 8 485 67 534 168 939 626 1052
1191 32 161 32 433 0 594 -125 625 -577 1086 -1207 1234 -73 17 -130 22 -300
24 -115 2 -221 1 -235 -1z m431 -159 c213 -37 447 -136 609 -259 181 -136 358
-352 446 -540 92 -200 128 -368 128 -596 0 -182 -14 -277 -64 -430 -67 -206
-175 -384 -330 -544 -127 -131 -238 -213 -395 -291 -207 -103 -387 -145 -620
-145 -233 0 -413 42 -620 145 -603 299 -915 973 -749 1614 98 376 371 721 714
900 149 78 299 128 449 150 96 14 342 12 432 -4z"/>
<path d="M60224 31982 c-33 -22 -34 -44 -34 -1047 0 -1003 1 -1025 34 -1047
42 -28 64 -15 816 478 782 514 766 501 744 562 -6 18 -219 173 -744 543 -625
440 -740 518 -770 518 -19 0 -40 -3 -46 -7z m746 -653 c475 -334 598 -425 588
-435 -17 -15 -1206 -794 -1213 -794 -3 0 -5 374 -5 831 0 728 2 830 15 825 8
-3 285 -195 615 -427z"/>
<path d="M40429 31810 c-9 -5 -74 -127 -145 -270 -70 -143 -131 -260 -134
-260 -22 0 -559 -80 -573 -86 -11 -4 -17 -17 -17 -38 0 -29 23 -55 207 -237
l207 -204 -48 -282 c-26 -155 -45 -291 -41 -302 15 -47 43 -38 311 103 l258
136 258 -136 c272 -143 301 -152 313 -101 3 12 -16 149 -43 303 l-48 281 208
203 c173 167 208 206 208 230 0 15 -6 32 -13 38 -7 6 -141 30 -298 53 -156 22
-285 42 -285 42 -1 1 -60 120 -132 263 -136 271 -149 290 -193 264z m141 -394
c105 -217 109 -224 142 -229 18 -3 130 -20 248 -38 118 -17 217 -33 220 -36 3
-3 -75 -82 -173 -177 -128 -123 -178 -177 -177 -193 0 -13 18 -127 40 -255 22
-127 39 -233 37 -234 -1 -2 -100 49 -219 112 -120 63 -225 114 -235 114 -10
-1 -115 -52 -233 -115 -118 -62 -216 -112 -218 -110 -2 1 15 109 37 239 23
130 41 244 41 253 0 9 -82 96 -182 193 l-182 176 230 33 c126 18 240 36 254
40 21 5 45 47 138 229 62 122 115 222 118 222 3 0 54 -101 114 -224z"/>
<path d="M35200 31717 c-85 -104 -242 -261 -355 -355 -364 -305 -820 -474
-1267 -473 -158 1 -246 12 -377 47 -347 91 -701 312 -1046 650 l-81 79 149
-255 c265 -454 376 -609 577 -811 204 -205 382 -313 617 -376 87 -23 117 -26
273 -27 158 -1 182 1 244 22 283 95 563 370 911 892 128 193 429 680 423 685
-2 1 -32 -34 -68 -78z"/>
<path d="M21002 31627 c-24 -14 -124 -121 -331 -357 -244 -278 -234 -265 -234
-317 0 -61 34 -93 98 -93 49 0 41 -8 221 200 59 69 167 190 239 270 73 80 137
155 143 167 45 83 -52 176 -136 130z"/>
<path d="M10495 30128 c-3 -7 -4 -699 -3 -1538 l3 -1525 1508 -3 1507 -2 10
26 c14 35 14 2993 0 3028 l-10 26 -1505 0 c-1195 0 -1507 -3 -1510 -12z m2925
-1528 l0 -1440 -1415 0 -1415 0 0 1440 0 1440 1415 0 1415 0 0 -1440z"/>
<path d="M11449 29571 c-160 -52 -257 -197 -247 -369 8 -144 86 -260 213 -319
53 -25 72 -28 155 -28 81 0 103 4 152 27 79 37 142 98 181 177 29 60 32 73 32
161 0 82 -4 103 -27 152 -38 81 -105 150 -181 184 -82 36 -195 43 -278 15z
m187 -116 c213 -63 240 -342 43 -449 -203 -111 -435 116 -329 324 26 51 94
107 150 125 59 18 76 18 136 0z"/>
<path d="M12288 29413 c-12 -3 -99 -165 -248 -461 -126 -251 -235 -465 -242
-475 -13 -17 -24 -11 -153 88 -159 121 -176 131 -211 113 -16 -9 -117 -162
-287 -438 l-263 -425 -92 -5 c-98 -5 -112 -12 -112 -58 0 -13 5 -32 10 -43 11
-19 36 -19 1308 -19 996 0 1301 3 1310 12 16 16 15 85 0 95 -7 4 -43 10 -79
13 l-67 5 -397 790 c-219 435 -401 793 -404 797 -9 10 -53 17 -73 11z m483
-1105 c131 -263 239 -482 239 -488 0 -7 -332 -10 -985 -10 -542 0 -985 3 -985
6 0 13 433 704 442 704 5 0 68 -46 141 -102 157 -121 180 -134 212 -120 17 8
83 130 251 461 l228 450 109 -212 c60 -117 216 -427 348 -689z"/>
<path d="M44710 25071 l0 -4081 6260 0 6260 0 0 1509 0 1508 -122 66 c-447
239 -1042 427 -1678 531 -85 14 -167 28 -182 31 -23 4 -27 0 -33 -27 -12 -50
-61 -162 -104 -235 -76 -129 -201 -268 -329 -370 l-24 -18 60 -115 c176 -337
207 -603 97 -821 -88 -174 -320 -331 -667 -450 -127 -43 -155 -39 -338 50
-205 100 -329 131 -546 138 -267 9 -458 -35 -699 -162 -132 -69 -154 -74 -210
-51 -88 37 -333 220 -459 344 -178 173 -254 322 -276 538 -6 60 -17 132 -25
159 -33 113 -128 193 -312 266 l-108 42 -50 -27 c-28 -14 -98 -55 -155 -91
-85 -53 -112 -65 -146 -65 -60 0 -94 36 -94 99 0 56 17 75 124 141 62 39 67
45 51 56 -32 24 -70 60 -91 86 -17 22 -39 29 -159 52 -377 74 -750 174 -1165
312 -135 45 -246 81 -248 80 -1 -2 16 -42 38 -90 60 -131 53 -200 -25 -226
-71 -24 -101 1 -166 140 -27 58 -81 152 -120 210 l-72 105 -131 54 c-72 29
-158 66 -191 81 -69 32 -161 74 -223 101 l-44 19 20 -33 c11 -17 48 -81 82
-142 143 -252 295 -447 550 -710 96 -99 190 -204 209 -233 73 -115 90 -240 47
-362 -31 -89 -155 -303 -172 -296 -19 7 -950 714 -1069 811 -215 176 -337 340
-393 530 -82 274 26 538 256 625 l45 17 -44 25 c-24 14 -97 53 -161 87 -205
107 -546 304 -803 464 l-170 106 -18 -34 c-24 -48 -49 -58 -123 -52 -126 10
-212 84 -336 288 -102 169 -157 224 -435 428 -89 66 -170 132 -180 147 -26 40
-25 133 3 171 32 44 81 65 137 59 42 -5 69 -21 230 -139 619 -454 1185 -814
1817 -1156 278 -151 948 -471 985 -471 8 0 15 8 15 19 0 10 27 74 61 141 68
140 83 188 99 327 6 54 13 112 15 128 12 103 55 204 111 260 20 20 32 40 28
44 -5 4 -58 38 -119 76 -450 281 -964 651 -1905 1370 -1158 886 -1770 1307
-2402 1654 l-78 42 0 -4080z m1991 -420 c22 -23 29 -39 29 -69 0 -34 -32 -89
-256 -435 -230 -357 -258 -397 -290 -407 -25 -9 -43 -9 -69 0 -45 15 -65 44
-65 95 0 36 28 84 241 415 132 206 254 387 270 403 42 39 100 38 140 -2z
m8864 -1060 c28 -16 44 -54 173 -398 78 -209 142 -394 142 -411 0 -49 -46 -94
-96 -96 -78 -2 -78 -3 -233 411 -86 230 -141 392 -141 413 1 79 86 124 155 81z
m-5824 -720 c370 -140 771 -166 1162 -77 113 26 140 25 179 -11 42 -38 29
-132 -23 -159 -32 -16 -157 -46 -273 -64 -205 -32 -518 -29 -729 9 -204 37
-456 118 -503 162 -50 47 -34 137 28 164 45 19 41 20 159 -24z m-1558 -152
c144 -73 301 -208 408 -352 78 -104 149 -247 149 -299 0 -82 -98 -129 -162
-78 -14 11 -42 53 -61 95 -88 184 -236 342 -413 440 -90 49 -102 61 -110 102
-12 65 33 122 99 123 15 0 56 -14 90 -31z m-2501 -159 c217 -172 532 -351 783
-445 67 -25 128 -54 138 -66 26 -32 23 -101 -7 -136 -20 -24 -32 -28 -73 -28
-91 1 -441 157 -673 300 -116 72 -321 226 -349 261 -52 66 -5 164 78 164 33 0
51 -9 103 -50z m8907 -265 c36 -36 37 -104 1 -139 -42 -42 -464 -221 -720
-306 -307 -102 -483 -133 -755 -134 -242 -1 -377 19 -419 61 -38 38 -37 104 3
144 34 34 49 35 176 14 178 -29 444 -15 660 35 210 49 482 147 800 289 177 79
207 83 254 36z"/>
<path d="M23283 28623 c-10 -4 -13 -143 -13 -648 0 -577 2 -643 16 -649 9 -3
296 -6 638 -6 470 0 625 3 634 12 17 17 17 1269 0 1286 -9 9 -163 12 -638 11
-344 0 -631 -3 -637 -6z m1207 -648 l0 -565 -570 0 -570 0 0 565 0 565 570 0
570 0 0 -565z"/>
<path d="M24363 28418 c-11 -13 -136 -178 -278 -367 l-258 -344 -66 69 c-36
38 -106 111 -154 162 -60 63 -95 92 -110 92 -27 0 -47 -17 -47 -42 0 -9 82
-103 181 -208 140 -147 186 -190 203 -188 14 2 104 113 294 363 352 465 328
430 314 460 -15 32 -51 33 -79 3z"/>
<path d="M63342 27474 c-47 -33 -33 -59 142 -249 200 -219 481 -488 686 -659
47 -39 92 -77 102 -86 9 -9 29 -72 48 -155 95 -424 199 -897 220 -1005 5 -25
25 -121 44 -214 20 -93 34 -171 32 -174 -4 -4 -141 86 -175 114 -9 8 -30 24
-47 36 -51 37 -148 111 -160 122 -6 6 -33 29 -60 51 -147 122 -422 398 -547
549 -140 170 -140 170 -170 162 -36 -9 -46 -48 -22 -90 10 -17 21 -33 25 -36
3 -3 39 -45 80 -95 282 -339 638 -657 1007 -899 56 -37 104 -74 107 -84 39
-134 384 -2088 371 -2100 -3 -3 -127 69 -276 159 -148 90 -278 169 -287 174
-43 25 -293 182 -342 215 -184 124 -261 170 -282 170 -58 0 -66 -64 -14 -104
19 -14 37 -26 39 -26 4 0 305 -192 462 -295 28 -18 86 -54 130 -80 44 -27 163
-98 265 -160 102 -61 218 -130 257 -153 48 -28 75 -50 78 -65 3 -12 30 -193
60 -402 30 -209 62 -425 70 -480 133 -872 293 -2396 375 -3565 42 -610 95
-1610 88 -1680 -3 -29 -9 -19 -52 86 -395 955 -926 1874 -1555 2689 -87 112
-272 346 -281 355 -9 9 -63 74 -100 120 -19 24 -42 51 -51 59 -8 9 -40 45 -70
81 -30 35 -64 76 -76 90 l-23 25 0 475 c0 414 -2 478 -16 498 -18 27 -55 29
-77 4 -15 -16 -17 -65 -19 -431 l-3 -413 -70 82 c-38 46 -74 88 -80 94 -53 57
-354 418 -477 571 l-97 121 9 139 c5 77 14 268 20 424 9 251 9 287 -5 307 -19
29 -55 31 -78 6 -13 -14 -17 -39 -17 -108 0 -149 -22 -608 -29 -617 -16 -16
-313 418 -456 668 -144 250 -290 567 -360 783 -21 65 -50 84 -90 58 -30 -20
-30 -24 -6 -101 63 -198 226 -555 361 -785 40 -69 78 -134 84 -146 18 -33 262
-394 303 -448 44 -58 49 -60 -142 57 -318 195 -677 452 -976 700 -65 53 -126
97 -134 97 -32 0 -55 -20 -55 -49 0 -21 12 -38 53 -72 28 -24 61 -51 72 -61
55 -48 297 -235 430 -332 257 -187 669 -450 893 -571 43 -23 75 -55 155 -155
105 -130 242 -296 280 -340 13 -14 61 -70 107 -125 47 -55 121 -140 164 -190
l79 -90 -69 -3 c-149 -7 -685 35 -999 79 -77 10 -145 19 -152 19 -36 0 -57
-66 -29 -90 42 -34 704 -102 1144 -116 l202 -7 63 -72 c141 -163 295 -349 448
-540 687 -860 1269 -1864 1688 -2912 44 -111 87 -226 95 -255 24 -86 40 -1108
33 -2113 -7 -1012 -27 -1650 -78 -2570 -33 -599 -109 -1654 -128 -1765 l-7
-45 -24 95 c-193 780 -759 1499 -1595 2027 -325 205 -609 350 -1070 548 l-190
81 -82 185 c-45 101 -92 207 -104 234 -12 28 -35 79 -52 115 -16 36 -76 171
-134 300 -57 129 -111 245 -119 258 -18 28 -55 29 -80 1 -17 -19 -17 -23 -3
-62 13 -34 265 -602 341 -767 42 -91 88 -198 88 -204 0 -3 -21 4 -47 15 -27
12 -82 33 -123 49 -413 155 -567 212 -635 236 -62 21 -92 39 -135 79 -30 28
-95 89 -145 136 -49 46 -155 145 -235 220 -80 75 -217 203 -305 286 -185 174
-196 181 -231 158 -39 -26 -31 -56 34 -116 55 -51 323 -303 387 -364 69 -66
272 -254 295 -275 l25 -22 -25 7 c-14 3 -106 26 -205 50 -337 83 -636 117
-851 96 -65 -7 -124 -17 -131 -23 -17 -13 -17 -64 0 -75 6 -4 118 -8 247 -8
252 -1 329 -10 592 -66 146 -31 353 -85 378 -100 12 -7 11 -8 -7 -9 -44 0
-496 -121 -689 -184 -330 -108 -574 -217 -749 -334 -158 -106 -189 -147 -145
-187 25 -23 54 -15 105 30 224 200 830 427 1557 585 l148 32 87 -30 c49 -17
198 -72 333 -123 364 -137 392 -147 397 -153 6 -5 -40 -26 -56 -26 -41 0 -393
-157 -534 -238 -233 -134 -502 -332 -722 -532 -75 -68 -105 -103 -105 -123 0
-22 28 -47 52 -47 17 0 101 67 186 148 46 43 234 191 326 257 291 207 587 359
861 443 176 55 157 57 393 -44 237 -101 638 -299 822 -404 119 -69 360 -226
502 -327 215 -154 521 -447 695 -664 354 -444 566 -934 613 -1419 6 -63 16
-127 21 -141 14 -37 -68 -820 -174 -1652 l-43 -337 47 0 c44 0 48 2 53 27 22
103 165 1337 212 1828 l27 280 43 97 c179 409 655 1032 1244 1630 l135 138
595 -35 c661 -39 711 -40 728 -23 18 18 15 53 -6 71 -16 14 -107 22 -611 51
-326 19 -595 37 -597 39 -7 7 445 441 561 538 22 19 67 60 100 91 33 32 71 62
85 68 14 5 401 120 860 255 459 135 845 249 858 255 12 5 27 21 34 35 9 21 8
28 -7 45 -10 11 -26 20 -35 20 -10 0 -140 -36 -291 -81 -151 -44 -341 -100
-424 -124 -82 -24 -296 -87 -474 -139 -178 -53 -326 -95 -327 -93 -2 2 208
179 329 277 17 14 47 39 67 56 19 17 94 77 165 133 72 57 137 108 145 115 8 6
56 42 105 80 88 68 138 107 162 126 102 83 651 472 907 643 118 79 146 102
146 121 0 26 -28 56 -53 56 -14 0 -431 -271 -447 -290 -3 -4 -42 -31 -86 -62
-92 -63 -313 -223 -389 -280 -27 -21 -61 -47 -75 -57 -52 -40 -356 -272 -370
-284 -8 -6 -35 -28 -60 -47 -75 -58 -377 -307 -510 -419 -68 -58 -137 -116
-152 -129 -32 -27 -40 -45 166 387 64 134 116 252 116 261 0 25 -35 52 -62 48
-14 -2 -30 -16 -41 -38 -18 -36 -150 -313 -207 -435 -18 -38 -59 -126 -92
-195 -78 -164 -86 -182 -90 -201 -2 -8 -75 -80 -162 -160 -88 -79 -223 -205
-300 -280 -162 -156 -216 -205 -216 -193 0 5 18 200 39 434 35 375 37 428 25
448 -20 30 -67 30 -82 0 -6 -13 -30 -232 -52 -488 -22 -256 -43 -478 -46 -495
-5 -32 -26 -56 -213 -250 -433 -449 -849 -974 -1056 -1333 -26 -45 -50 -81
-52 -79 -1 2 1 48 7 103 5 54 21 244 35 421 24 317 26 329 90 625 218 1006
453 1940 740 2933 103 357 255 859 295 971 11 33 45 136 74 229 30 94 100 303
155 465 113 329 88 286 245 427 26 24 84 77 129 120 127 118 205 191 302 280
50 44 106 96 126 115 33 31 75 70 240 223 36 33 107 98 158 145 52 47 133 121
180 166 47 44 110 103 140 130 112 102 161 152 161 163 0 15 -45 61 -60 61 -9
0 -79 -57 -105 -86 -5 -6 -104 -98 -220 -204 -251 -231 -321 -295 -400 -369
-33 -31 -107 -99 -164 -151 -110 -100 -125 -114 -212 -195 -243 -228 -331
-307 -334 -304 -2 3 19 65 46 139 73 197 179 478 189 503 5 12 30 78 56 147
26 69 66 175 90 235 151 392 200 519 260 670 37 94 81 206 98 249 28 70 35 80
66 92 19 7 159 56 310 109 151 53 280 101 287 107 29 24 6 88 -32 88 -8 0 -75
-21 -148 -46 -336 -116 -390 -134 -393 -131 -2 2 25 75 60 163 35 87 113 285
174 439 97 247 176 448 347 880 124 314 447 1164 517 1360 15 44 35 96 43 115
15 36 263 735 285 803 10 33 10 41 -6 58 -21 24 -56 25 -76 2 -8 -10 -40 -90
-71 -178 -108 -310 -156 -445 -275 -766 -146 -395 -315 -840 -318 -836 -1 1 2
594 5 1317 5 831 4 1323 -2 1337 -5 12 -17 23 -26 26 -23 6 -57 -8 -64 -27 -3
-8 -9 -673 -13 -1478 l-7 -1463 -85 -215 c-46 -118 -95 -242 -107 -275 -59
-157 -444 -1122 -445 -1115 0 3 -16 508 -35 1123 -22 705 -38 1124 -45 1137
-12 23 -48 26 -75 6 -19 -14 -19 -34 18 -1273 l38 -1258 -91 -230 c-50 -126
-113 -286 -140 -355 -89 -228 -316 -821 -406 -1062 -48 -131 -89 -236 -89
-235 -1 1 11 540 26 1197 l27 1195 -25 23 c-30 27 -38 27 -63 2 -15 -15 -20
-34 -20 -72 0 -29 -13 -640 -29 -1359 l-29 -1305 -132 -390 c-137 -406 -171
-515 -374 -1189 -262 -866 -542 -1925 -727 -2739 -30 -131 -55 -227 -57 -213
-2 15 6 210 17 434 61 1208 82 2412 61 3513 -16 895 -21 1052 -55 1770 -67
1394 -189 2785 -366 4170 -27 217 -56 449 -64 515 -8 66 -37 275 -65 465 -28
190 -56 383 -62 430 l-10 85 252 685 c139 377 268 726 286 775 17 50 53 146
78 214 25 69 46 130 46 136 0 19 -34 45 -58 45 -37 0 -23 32 -247 -580 -54
-146 -110 -299 -125 -340 -189 -519 -264 -719 -268 -715 -2 2 -22 111 -43 242
-71 435 -189 1089 -295 1636 l-26 137 56 183 c59 191 150 465 235 706 28 79
51 152 51 162 0 27 -42 51 -70 41 -27 -10 -38 -38 -199 -518 l-118 -351 -22
106 c-61 289 -169 788 -230 1061 l-69 305 38 90 c20 50 54 142 75 205 21 63
41 120 45 125 5 6 11 26 15 47 6 29 3 40 -14 57 -50 50 -71 23 -136 -168 -30
-90 -65 -185 -76 -212 l-21 -49 -37 29 c-20 16 -48 40 -62 53 -14 13 -39 34
-55 47 -97 76 -456 428 -624 611 -175 191 -161 180 -198 154z"/>
<path d="M17753 26338 c-28 -14 -37 -33 -121 -273 -104 -297 -172 -517 -172
-556 0 -45 22 -75 65 -89 30 -10 41 -9 72 7 l37 18 122 360 c66 198 126 373
132 388 43 104 -39 192 -135 145z"/>
<path d="M53687 25972 c-22 -24 -22 -65 1 -90 9 -11 93 -81 186 -157 155 -124
172 -136 205 -133 42 4 68 39 58 79 -4 17 -67 74 -188 172 -150 121 -187 147
-214 147 -18 0 -39 -8 -48 -18z"/>
<path d="M32425 25933 c-40 -8 -64 -27 -80 -58 -13 -30 -15 -306 -15 -2608 l0
-2574 22 -28 c45 -58 -29 -55 1433 -55 1462 0 1388 -3 1433 55 l22 28 0 725 0
724 -72 -64 c-294 -261 -551 -405 -676 -380 -18 4 -33 12 -32 17 0 6 176 240
390 522 l390 512 0 89 0 89 -175 25 -176 24 -77 -59 c-189 -145 -467 -315
-634 -386 -130 -56 -208 -75 -308 -75 -88 0 -147 19 -180 59 -13 15 -11 20 15
43 98 84 535 464 535 465 0 1 -58 0 -130 -2 -192 -5 -324 32 -397 111 l-22 23
297 230 c163 127 410 321 549 432 248 197 255 202 326 219 44 10 132 19 225
22 l152 4 0 492 0 491 -61 75 c-98 122 -178 245 -227 348 -41 87 -46 106 -50
185 -3 53 -1 87 5 87 6 0 82 -57 169 -126 l159 -125 3 168 c3 187 -4 231 -46
259 -26 18 -79 19 -1387 20 -748 1 -1369 0 -1380 -3z m348 -259 c65 -48 86
-143 45 -204 -38 -55 -73 -75 -133 -75 -57 0 -91 18 -127 66 -22 29 -33 87
-24 123 8 31 62 95 90 107 34 14 120 5 149 -17z"/>
<path d="M50195 25394 c-126 -96 -393 -283 -460 -322 -113 -66 -213 -95 -320
-92 -49 1 -118 3 -152 4 -90 2 -99 -16 -21 -43 35 -12 72 -26 83 -32 75 -34
563 -198 776 -259 164 -48 454 -120 641 -159 l137 -29 12 37 c22 67 141 335
210 473 l69 137 -133 42 c-166 52 -431 150 -617 229 -79 33 -148 60 -154 60
-6 0 -38 -21 -71 -46z"/>
<path d="M53273 25293 c-54 -19 -103 -64 -103 -95 0 -37 27 -68 60 -68 16 0
50 11 76 25 88 47 198 25 305 -59 56 -44 179 -196 179 -221 0 -7 -16 -33 -36
-57 -100 -118 -96 -222 10 -315 62 -54 114 -71 262 -82 142 -10 191 -28 248
-91 90 -100 129 -256 91 -371 -23 -69 -79 -182 -118 -237 -51 -70 -79 -82
-194 -82 -121 0 -175 -16 -238 -72 -55 -48 -90 -106 -105 -173 -18 -79 4 -125
60 -125 34 0 70 40 70 77 0 40 38 102 82 130 39 26 48 28 152 28 135 0 180 18
255 102 83 93 177 302 187 418 12 133 -54 313 -151 409 -80 80 -141 105 -288
117 -67 6 -140 15 -161 21 -46 11 -96 57 -96 87 0 11 22 49 49 84 81 108 78
164 -18 293 -102 138 -197 217 -309 255 -68 23 -207 25 -269 2z"/>
<path d="M52360 25273 c-25 -9 -40 -35 -40 -70 0 -29 6 -37 56 -69 150 -96
217 -208 184 -308 -15 -47 -54 -78 -140 -111 -146 -56 -225 -138 -257 -269
-32 -132 9 -250 142 -411 91 -109 107 -132 176 -259 60 -110 114 -166 186
-190 63 -22 118 -20 170 5 52 25 79 59 135 169 27 53 53 90 69 99 25 14 30 13
98 -28 135 -82 204 -68 341 68 132 131 171 233 136 353 -25 87 -87 133 -219
163 -23 4 -27 10 -21 23 4 9 9 54 12 99 5 105 -14 165 -74 232 -61 68 -131 95
-234 89 -162 -10 -282 -112 -309 -264 -30 -165 77 -336 159 -254 26 26 25 64
-2 102 -74 105 8 263 147 284 128 19 226 -126 166 -244 -11 -22 -25 -43 -31
-47 -5 -3 -10 -21 -10 -40 0 -55 42 -80 208 -125 24 -6 52 -20 63 -31 24 -24
25 -87 3 -132 -20 -39 -139 -163 -175 -182 -28 -15 -26 -16 -133 49 -36 22
-60 29 -100 29 -92 0 -144 -44 -216 -180 -25 -48 -57 -95 -71 -106 -24 -17
-29 -17 -61 -4 -50 21 -82 59 -133 158 -45 87 -87 147 -191 274 -73 89 -104
155 -104 220 1 101 64 180 182 224 173 65 235 150 226 310 -3 57 -11 90 -32
131 -59 119 -244 266 -306 243z"/>
<path d="M51732 25104 c-231 -184 -344 -396 -329 -614 6 -88 27 -157 69 -223
44 -69 113 -78 138 -18 11 27 8 36 -23 93 -40 73 -50 110 -49 191 1 73 25 156
65 226 37 66 147 184 240 258 58 47 67 58 67 87 0 40 -26 66 -66 66 -22 0 -52
-18 -112 -66z"/>
<path d="M17288 24845 c-32 -18 -37 -32 -102 -305 -63 -262 -116 -513 -116
-550 0 -66 78 -109 143 -79 36 16 43 35 77 195 17 82 58 262 91 399 62 260 65
297 30 329 -27 24 -90 30 -123 11z"/>
<path d="M15361 24663 c-19 -17 -24 -47 -56 -403 -245 -2658 -609 -5479 -961
-7435 -174 -969 -304 -1596 -620 -2990 -321 -1414 -418 -1891 -503 -2485 -92
-640 -122 -1095 -120 -1820 l1 -495 -331 -3 -331 -2 0 292 c0 591 -23 1489
-55 2188 -78 1680 -244 3273 -475 4566 -23 126 -43 247 -46 269 -9 67 -63 320
-109 510 -369 1509 -1199 3310 -2394 5195 -402 634 -940 1410 -1323 1908 -102
131 -113 142 -143 142 -36 0 -65 -26 -65 -57 0 -12 19 -45 43 -75 232 -285
768 -1040 1113 -1564 1313 -1995 2215 -3879 2628 -5488 43 -164 117 -495 157
-696 34 -168 137 -806 178 -1100 235 -1662 368 -3630 374 -5510 l2 -575 -62
-3 -62 -3 -5 33 c-3 18 -26 159 -51 313 -216 1322 -541 2509 -918 3345 -266
591 -460 885 -816 1240 -583 580 -1388 980 -2446 1215 -370 82 -740 140 -1235
194 -421 46 -447 47 -470 26 -42 -38 -9 -105 50 -105 43 0 466 -45 710 -76
1499 -188 2554 -613 3279 -1319 370 -360 625 -750 881 -1350 331 -773 620
-1827 824 -3001 61 -348 84 -497 79 -506 -2 -5 -328 -8 -724 -8 l-719 0 0
-501 0 -502 63 7 c387 41 805 66 1094 66 589 0 874 -90 1418 -446 288 -188
329 -213 457 -274 545 -260 1249 -259 2153 3 l80 23 6 89 c4 50 7 415 8 813
l1 722 -850 0 c-467 0 -850 2 -850 5 0 20 126 194 233 322 113 134 264 238
647 446 199 108 586 299 899 442 212 98 236 117 210 164 -26 47 -58 40 -270
-56 -472 -214 -1066 -523 -1304 -681 -165 -109 -359 -324 -509 -564 l-48 -78
-239 0 c-224 0 -239 1 -239 18 0 38 104 639 156 907 298 1517 701 2684 1170
3390 611 920 1649 1506 3154 1779 327 60 764 117 1190 157 149 14 172 24 168
76 -2 20 -10 41 -20 47 -30 18 -732 -58 -1148 -125 -1411 -226 -2416 -687
-3098 -1421 -255 -275 -435 -545 -615 -923 -179 -376 -275 -616 -418 -1045
-249 -746 -437 -1537 -598 -2510 l-57 -345 -131 -3 c-119 -2 -132 -1 -137 15
-3 10 -8 167 -11 348 -13 626 29 1297 121 1925 83 572 183 1066 469 2325 208
914 293 1298 400 1810 47 226 92 437 100 470 22 93 88 438 154 800 320 1769
637 4129 890 6645 73 715 121 1257 115 1273 -5 14 -45 37 -63 37 -5 0 -18 -8
-30 -17z"/>
<path d="M16978 23315 c-14 -8 -31 -29 -37 -47 -13 -40 -53 -328 -85 -613 -21
-180 -23 -214 -11 -241 16 -39 41 -54 92 -54 43 0 79 26 88 63 3 12 16 121 30
242 14 121 37 301 51 399 28 199 25 225 -27 251 -35 19 -66 18 -101 0z"/>
<path d="M16810 21752 c-13 -10 -26 -37 -31 -62 -5 -25 -12 -223 -15 -441 l-7
-397 26 -26 c20 -20 36 -26 67 -26 52 0 75 12 88 47 6 16 13 149 16 298 4 149
9 338 12 420 l7 150 -26 28 c-21 21 -35 27 -70 27 -28 0 -53 -7 -67 -18z"/>
<path d="M16812 20194 c-39 -27 -43 -54 -32 -237 12 -194 37 -522 47 -611 8
-79 34 -106 98 -106 35 0 52 6 70 25 29 28 31 63 15 240 -6 61 -19 233 -29
384 l-17 274 -28 24 c-32 27 -90 31 -124 7z"/>
<path d="M27648 19346 c-174 -99 -342 -206 -603 -386 -88 -61 -160 -98 -354
-184 -388 -172 -737 -338 -791 -376 -32 -23 -41 -60 -14 -60 9 0 111 47 227
104 187 92 424 201 557 258 l45 19 -27 -23 c-14 -13 -50 -41 -78 -63 -202
-155 -390 -321 -572 -505 -168 -170 -175 -178 -266 -298 -62 -83 -74 -115 -48
-125 20 -8 38 9 92 83 202 279 686 714 1188 1068 120 85 406 278 439 297 9 5
74 44 145 87 70 42 144 84 165 94 27 13 37 24 37 41 0 37 -35 29 -142 -31z"/>
<path d="M39160 19308 c0 -20 11 -31 53 -53 28 -16 97 -55 152 -88 55 -33 109
-65 120 -71 33 -18 333 -219 425 -284 184 -131 394 -293 590 -455 198 -164
536 -502 628 -628 74 -100 103 -120 110 -73 5 34 -135 209 -300 377 -197 200
-333 320 -581 516 -71 55 -127 101 -124 101 6 0 87 -35 196 -86 51 -24 95 -44
97 -44 4 0 185 -85 304 -143 47 -23 116 -59 153 -80 73 -40 101 -42 95 -5 -4
29 -67 65 -358 200 -319 150 -291 137 -515 236 -124 54 -227 107 -270 138
-257 184 -686 449 -745 461 -27 5 -30 3 -30 -19z"/>
<path d="M16995 18653 c-28 -7 -62 -41 -69 -69 -11 -41 122 -815 146 -854 30
-48 106 -53 149 -11 37 38 37 49 -5 274 -19 100 -49 272 -66 382 -17 110 -36
213 -42 229 -7 17 -24 34 -44 42 -35 15 -36 15 -69 7z"/>
<path d="M47885 18173 c-9 -54 -32 -177 -51 -273 -19 -96 -34 -192 -34 -213 0
-55 35 -87 93 -87 62 0 86 22 102 95 15 62 105 551 105 566 0 5 -44 9 -99 9
l-99 0 -17 -97z"/>
<path d="M60407 17598 c-16 -12 -17 -63 -15 -703 l3 -690 684 -3 c497 -1 688
1 697 9 12 9 14 131 14 695 0 665 -1 684 -19 694 -31 16 -1342 14 -1364 -2z
m1293 -698 l0 -610 -610 0 -610 0 0 610 0 610 610 0 610 0 0 -610z"/>
<path d="M61290 17013 c-160 -214 -295 -389 -299 -391 -5 -1 -79 73 -165 165
-87 92 -167 171 -178 175 -29 12 -58 -8 -58 -40 0 -39 369 -432 405 -432 20 0
77 69 337 415 172 229 317 427 322 440 12 31 -7 55 -44 55 -24 0 -59 -43 -320
-387z"/>
<path d="M17253 17094 c-23 -23 -25 -31 -20 -82 9 -88 195 -753 223 -799 28
-45 120 -46 157 -2 9 12 17 36 17 54 0 18 -38 165 -84 326 -46 162 -94 337
-106 389 -28 116 -48 140 -115 140 -36 0 -51 -6 -72 -26z"/>
<path d="M47655 17008 c-20 -19 -34 -55 -70 -193 -37 -138 -75 -272 -121 -427
-5 -16 4 -18 99 -18 l104 0 22 78 c120 430 133 482 121 517 -6 19 -21 42 -33
50 -32 23 -91 19 -122 -7z"/>
<path d="M25185 15981 c-10 -32 148 -315 224 -400 11 -13 21 -27 21 -31 0 -16
167 -175 221 -210 76 -49 97 -56 115 -38 16 16 9 48 -11 48 -37 0 -184 127
-280 241 -40 47 -141 204 -195 303 -55 101 -82 126 -95 87z"/>
<path d="M41704 15885 c-25 -60 -139 -245 -205 -334 -82 -111 -173 -198 -254
-245 -51 -30 -65 -44 -65 -62 0 -77 175 41 329 221 47 56 134 183 176 260 99
179 104 195 59 195 -19 0 -28 -8 -40 -35z"/>
<path d="M18450 13743 c0 -22 207 -403 231 -425 41 -39 90 -38 130 1 48 48 41
78 -57 266 l-86 165 -109 0 c-60 0 -109 -3 -109 -7z"/>
<path d="M23452 12978 c-6 -7 -33 -176 -61 -376 -28 -200 -53 -367 -56 -373
-4 -5 -79 -9 -173 -9 -92 0 -173 -4 -180 -8 -9 -7 -12 -57 -10 -218 l3 -209
150 -5 150 -5 -2 -25 c-1 -14 -11 -94 -23 -179 -11 -85 -20 -158 -20 -163 0
-4 -76 -8 -170 -8 -226 0 -210 17 -210 -223 0 -242 -12 -227 176 -227 l144 0
-5 -22 c-9 -41 -95 -674 -95 -701 0 -16 8 -30 19 -37 30 -15 413 -13 434 3 13
9 27 87 67 372 27 198 50 365 50 372 0 10 33 13 138 13 l138 0 -32 -232 c-70
-496 -71 -508 -49 -524 26 -19 413 -20 438 -1 13 9 27 91 67 376 27 201 50
368 50 373 0 4 78 8 174 8 169 0 175 1 190 22 13 18 16 56 16 205 0 237 11
223 -179 223 l-140 0 5 33 c3 17 15 102 27 187 l22 155 175 3 c150 2 177 5
188 19 15 21 17 375 2 404 -10 17 -23 19 -157 19 l-145 0 4 53 c3 28 25 193
49 365 32 234 41 317 33 330 -10 15 -36 17 -226 20 -167 2 -218 -1 -226 -11
-6 -7 -34 -176 -62 -377 -28 -200 -53 -367 -56 -372 -3 -4 -63 -8 -135 -8
-127 0 -129 0 -129 23 0 12 20 166 45 342 49 347 51 375 33 393 -17 17 -431
17 -446 0z m348 -95 c0 -5 -23 -170 -50 -367 -28 -198 -50 -361 -50 -362 0 -1
7 -10 16 -18 23 -23 435 -24 454 -1 7 8 36 180 64 382 l51 368 133 3 c72 1
132 0 132 -2 0 -3 -22 -166 -50 -363 -27 -197 -50 -361 -50 -365 0 -3 7 -14
16 -22 13 -13 42 -16 160 -16 l144 0 0 -120 0 -120 -169 0 c-135 0 -171 -3
-181 -15 -6 -8 -28 -132 -47 -277 l-35 -262 22 -18 c19 -15 42 -18 161 -18
l139 0 0 -120 0 -120 -174 0 c-115 0 -177 -4 -182 -11 -3 -6 -29 -178 -58
-382 l-51 -372 -133 -3 c-72 -1 -132 1 -132 5 0 4 23 169 50 366 38 269 48
362 40 377 -10 19 -22 20 -229 20 -180 0 -221 -3 -231 -15 -7 -8 -34 -175 -61
-372 -28 -197 -52 -364 -54 -370 -3 -10 -40 -13 -136 -13 l-131 0 5 33 c4 17
27 184 53 370 37 271 44 340 34 352 -10 12 -42 15 -161 15 l-149 0 0 120 0
120 163 0 c117 0 168 4 181 13 14 10 24 62 51 262 40 292 39 279 19 299 -13
13 -42 16 -160 16 l-144 0 0 120 0 120 170 0 c165 0 170 1 183 23 8 12 35 173
61 372 26 193 49 356 51 363 3 9 39 12 135 12 71 0 130 -3 130 -7z"/>
<path d="M23677 11868 c-14 -10 -25 -68 -53 -278 l-36 -265 22 -17 c20 -16 46
-18 224 -18 146 0 207 3 219 13 13 9 25 67 52 267 19 140 35 260 35 267 0 6
-7 19 -16 27 -13 14 -48 16 -223 16 -150 0 -212 -3 -224 -12z m346 -113 c-1
-11 -12 -95 -24 -187 l-22 -168 -136 0 -137 0 23 178 c13 97 26 183 28 190 4
10 36 12 137 10 126 -3 133 -4 131 -23z"/>
<path d="M19069 12781 c-54 -54 -46 -82 89 -298 151 -239 321 -494 341 -510 9
-7 37 -13 62 -13 53 0 85 26 95 77 7 38 7 38 -131 248 -61 94 -154 238 -205
320 -51 83 -105 162 -121 178 -41 38 -90 37 -130 -2z"/>
<path d="M45480 12193 c-97 -148 -110 -173 -110 -211 0 -57 33 -92 87 -92 21
0 48 7 60 15 19 13 226 310 292 418 l23 37 -121 0 -121 0 -110 -167z"/>
<path d="M19983 11513 c-35 -7 -63 -50 -63 -97 0 -39 12 -57 150 -235 205
-263 366 -457 385 -465 90 -34 177 55 134 136 -6 11 -61 82 -123 157 -62 75
-174 216 -250 313 -101 130 -145 179 -168 187 -17 6 -34 10 -37 10 -3 -1 -16
-4 -28 -6z"/>
<path d="M44948 11438 c-9 -7 -67 -78 -129 -158 -62 -80 -162 -206 -224 -280
-61 -74 -114 -141 -119 -147 -5 -10 21 -13 122 -13 l130 0 149 188 c228 286
223 278 223 329 0 61 -32 93 -93 93 -24 0 -50 -6 -59 -12z"/>
<path d="M20968 10305 c-35 -19 -48 -44 -48 -89 0 -28 10 -47 46 -88 96 -110
510 -532 539 -550 73 -44 155 0 155 83 0 41 -4 45 -232 278 -127 130 -261 267
-297 304 -74 75 -113 90 -163 62z"/>
<path d="M43472 9767 c-98 -99 -114 -119 -119 -153 -4 -33 -1 -45 22 -72 23
-28 33 -32 73 -32 41 1 53 6 95 43 l48 42 -3 143 -3 142 -113 -113z"/>
<path d="M22065 9195 c-34 -33 -35 -103 -2 -138 88 -95 610 -523 647 -530 79
-16 143 61 114 137 -4 9 -81 78 -173 154 -91 75 -235 197 -319 270 -147 127
-155 132 -198 132 -34 0 -51 -6 -69 -25z"/>
<path d="M42825 9158 c-11 -7 -94 -75 -185 -153 -91 -78 -226 -190 -300 -250
-74 -60 -140 -116 -147 -125 -17 -21 -16 -91 2 -117 21 -31 75 -46 111 -33 32
12 140 98 394 311 264 221 270 228 270 276 0 55 -7 71 -41 88 -33 18 -76 19
-104 3z"/>
<path d="M23315 8241 c-48 -20 -72 -78 -54 -129 8 -24 53 -60 202 -165 334
-234 495 -337 528 -337 37 0 84 23 93 45 12 32 6 93 -11 113 -10 11 -103 78
-208 148 -104 70 -248 168 -320 219 -174 123 -180 126 -230 106z"/>
<path d="M41611 8193 c-8 -3 -60 -38 -115 -78 -56 -39 -205 -141 -331 -225
-127 -84 -236 -159 -242 -168 -7 -9 -13 -35 -13 -58 0 -77 63 -120 133 -90 38
16 278 174 514 339 183 128 201 147 189 211 -11 58 -77 92 -135 69z"/>
<path d="M11550 7614 c-349 -21 -899 -68 -906 -78 0 0 3 -75 7 -166 12 -232
35 -471 69 -710 28 -194 92 -545 101 -554 2 -2 69 -9 149 -16 494 -39 924
-146 1336 -332 75 -34 268 -133 428 -221 441 -241 545 -290 763 -361 471 -152
1075 -156 1816 -14 l167 32 19 50 c26 71 113 356 155 511 75 276 149 640 186
915 11 85 23 169 25 186 l6 32 -133 -34 c-827 -210 -1550 -204 -2121 20 -204
80 -325 146 -647 358 -386 254 -532 319 -815 364 -98 15 -465 26 -605 18z"/>
<path d="M19730 7433 c-8 -3 -18 -11 -22 -17 -4 -6 -8 -315 -8 -686 0 -513 3
-679 12 -688 17 -17 1369 -17 1386 0 15 15 17 1354 2 1378 -8 13 -96 15 -682
17 -370 1 -680 -1 -688 -4z m1288 -700 l-3 -608 -610 0 -610 0 -3 608 -2 607
615 0 615 0 -2 -607z"/>
<path d="M20888 7213 c-9 -10 -143 -187 -298 -393 -155 -206 -283 -375 -284
-375 -1 0 -75 78 -165 173 -137 145 -168 172 -192 172 -32 0 -53 -28 -42 -57
7 -19 342 -379 373 -402 11 -7 30 -11 42 -7 15 4 128 146 333 418 269 358 310
418 310 448 0 32 -3 35 -31 38 -19 2 -36 -3 -46 -15z"/>
<path d="M24630 7393 c-30 -11 -60 -47 -66 -78 -11 -59 14 -86 148 -162 202
-116 455 -252 543 -295 78 -37 87 -39 119 -28 20 6 43 21 51 33 18 26 19 96 2
118 -7 9 -107 67 -222 129 -116 62 -276 150 -357 196 -142 82 -187 99 -218 87z"/>
<path d="M40125 7253 c-93 -52 -251 -138 -350 -189 -99 -52 -190 -106 -203
-121 -20 -21 -22 -32 -17 -72 8 -58 34 -81 88 -81 30 0 75 18 185 75 233 120
552 298 578 322 19 17 24 32 24 68 0 63 -32 95 -92 94 -35 0 -74 -17 -213 -96z"/>
<path d="M36680 7239 c-46 -22 -86 -42 -88 -44 -2 -2 17 -39 42 -82 327 -549
897 -961 1681 -1213 320 -103 787 -197 1006 -203 73 -2 79 0 108 27 37 35 48
83 29 122 -25 51 -54 63 -193 79 -417 48 -900 176 -1264 336 -520 228 -932
562 -1159 940 -26 45 -53 79 -62 78 -8 0 -53 -18 -100 -40z"/>
<path d="M30467 7203 c-3 -5 -21 -51 -42 -103 -207 -526 -685 -896 -1351
-1045 -284 -64 -667 -96 -919 -78 -107 8 -147 7 -170 -2 -27 -11 -50 -6 -240
56 -256 83 -300 87 -330 28 -21 -39 -19 -82 6 -112 16 -21 60 -40 219 -91 308
-100 300 -98 300 -77 0 18 1 18 34 1 82 -41 524 -33 864 16 194 27 466 93 617
149 138 50 369 163 473 231 341 221 587 524 725 895 l25 66 -96 37 c-104 39
-109 40 -115 29z"/>
<path d="M25979 6651 c-33 -34 -40 -91 -14 -128 24 -34 743 -343 799 -343 37
0 72 19 85 47 16 36 13 88 -6 112 -10 11 -109 58 -223 104 -113 47 -283 119
-377 161 -95 42 -186 76 -203 76 -21 0 -41 -9 -61 -29z"/>
<path d="M32635 6448 c8 -112 145 -3166 145 -3223 l0 -45 -8650 0 -8650 0 0
325 0 325 -314 2 -314 3 65 115 c110 192 359 697 350 707 -2 1 -93 -11 -202
-26 -825 -119 -1450 -57 -2029 201 -123 54 -270 131 -535 278 -314 174 -465
244 -700 324 -221 76 -459 129 -721 162 -139 17 -130 17 -130 0 0 -25 131
-419 197 -591 135 -352 300 -707 467 -1005 47 -84 86 -158 86 -162 0 -4 -139
-8 -310 -8 l-310 0 0 -325 0 -325 -2513 -2 -2512 -3 -60 -24 c-82 -33 -184
-134 -212 -211 -77 -205 6 -420 195 -508 l57 -27 32485 -3 c23726 -2 32499 0
32537 8 69 15 164 78 207 137 56 76 79 158 74 262 -3 65 -10 99 -30 141 -51
111 -155 194 -276 219 -39 8 -5027 11 -18471 11 l-18418 0 -7 98 c-3 53 -38
790 -77 1637 -39 847 -71 1540 -72 1541 -6 3 -211 -16 -215 -21 -5 -5 133
-3100 143 -3202 l5 -53 -454 0 -455 0 -5 53 c-5 49 -147 3172 -146 3228 0 25
-4 27 -107 48 -60 11 -111 21 -116 21 -4 0 -5 -37 -2 -82z"/>
</g>
</svg>
