<?xml version="1.0" standalone="no"?>
<!DOCTYPE svg PUBLIC "-//W3C//DTD SVG 20010904//EN"
 "http://www.w3.org/TR/2001/REC-SVG-20010904/DTD/svg10.dtd">
<svg version="1.0" xmlns="http://www.w3.org/2000/svg"
 width="9000.000000pt" height="6000.000000pt" viewBox="0 0 9000.000000 6000.000000"
 preserveAspectRatio="xMidYMid meet">
<metadata>
Created by potrace 1.16, written by Peter Selinger 2001-2019
</metadata>
<g transform="translate(0.000000,6000.000000) scale(0.100000,-0.100000)"
fill="#d865c3" stroke="none">
<path d="M68391 54997 c-16 -29 -139 -269 -272 -534 -134 -265 -247 -479 -253
-476 -5 3 -6 1 -2 -5 7 -12 -64 -163 -75 -157 -4 3 -6 -1 -5 -8 2 -20 -5188
-10315 -5198 -10309 -5 3 -6 0 -2 -6 9 -14 -65 -163 -77 -155 -6 3 -7 2 -4 -3
3 -5 -120 -259 -273 -564 l-279 -555 -3 3855 c-3 3672 -4 3859 -22 3930 -119
499 -470 848 -976 973 -83 20 -111 21 -1077 24 l-993 4 0 -101 0 -100 628 0
c692 0 728 -2 907 -62 347 -116 629 -392 741 -724 61 -184 58 -74 61 -1771 l4
-1553 32 0 c121 -2 158 -16 201 -74 l21 -27 0 -1664 0 -1664 -21 -27 c-40 -54
-68 -67 -154 -72 l-80 -5 0 -5118 0 -5117 -27 -33 c-16 -19 -149 -175 -298
-349 -148 -173 -299 -350 -334 -393 -35 -43 -67 -74 -70 -69 -3 6 -33 26 -66
46 l-60 36 -12 -23 c-7 -12 -20 -43 -28 -69 -9 -27 -19 -48 -21 -48 -3 0 -98
55 -212 122 -868 509 -967 568 -970 578 -2 5 7 23 19 40 14 18 19 34 13 39 -5
5 -233 140 -507 301 -484 284 -499 292 -517 274 -22 -24 -532 -658 -793 -987
-108 -136 -197 -253 -197 -260 0 -51 306 -671 465 -942 114 -195 312 -495 438
-665 750 -1010 1590 -1586 2517 -1727 124 -19 547 -25 688 -10 l72 7 -2 -2987
-3 -2988 -47 -3 -48 -3 0 -496 c0 -273 2 -494 4 -492 2 2 61 146 131 319 137
339 409 993 524 1260 l71 164 0 2712 0 2712 98 52 c242 129 467 302 748 572
l111 108 6 -228 c19 -639 125 -1388 297 -2079 26 -107 52 -198 56 -203 12 -10
427 -146 639 -209 1996 -588 3837 -686 5370 -286 417 108 860 280 1120 433 60
36 66 42 42 42 -28 0 -28 0 -23 53 3 28 8 115 11 192 3 77 8 172 10 210 3 39
7 126 10 195 3 69 7 159 10 200 2 41 7 129 10 195 3 66 8 161 10 210 5 82 26
517 40 805 3 63 8 149 10 190 2 41 7 129 10 195 3 66 8 158 10 205 4 74 11
211 40 805 3 61 8 148 10 195 3 47 10 177 15 290 5 113 12 252 15 310 3 58 12
231 20 385 8 154 15 292 15 308 0 26 2 27 56 27 l55 0 -5 -42 c-3 -24 -8 -113
-11 -198 -3 -85 -8 -177 -10 -205 -2 -27 -7 -124 -10 -215 -4 -91 -8 -181 -10
-200 -2 -19 -6 -98 -10 -175 -3 -77 -8 -176 -10 -220 -2 -44 -7 -134 -10 -200
-3 -66 -7 -160 -10 -210 -2 -49 -7 -139 -10 -200 -3 -60 -8 -148 -10 -195 -5
-82 -29 -560 -40 -800 -3 -63 -7 -151 -10 -195 -2 -44 -7 -138 -10 -210 -3
-71 -7 -161 -10 -200 -2 -38 -7 -126 -11 -195 -33 -663 -38 -790 -34 -790 3 0
65 29 138 65 162 79 286 151 411 240 l95 67 18 -24 c9 -12 18 -27 18 -31 1
-29 258 201 396 354 497 550 828 1228 979 2008 47 247 85 610 85 829 l0 102
-33 0 -33 0 -12 238 c-14 271 -38 474 -82 687 -104 499 -299 960 -587 1389
-115 170 -254 349 -263 339 -4 -4 -44 -53 -88 -108 -213 -267 -580 -554 -866
-678 -555 -240 -1305 -271 -1990 -81 -650 180 -1198 550 -1582 1071 -331 447
-562 1083 -654 1801 -11 84 -20 158 -20 164 0 17 -355 -4 -700 -42 -96 -11
-267 -27 -380 -35 -113 -9 -252 -23 -310 -31 -360 -52 -717 -196 -1142 -460
-211 -130 -479 -342 -778 -614 -161 -146 -925 -911 -1095 -1097 l-120 -131 -3
4057 -3 4056 148 297 c81 163 150 295 153 293 4 -2 7 2 7 9 0 24 1868 3724
1877 3718 5 -3 6 0 3 5 -4 6 988 1984 2203 4396 1216 2413 2210 4395 2210
4405 0 13 -11 24 -32 32 -18 6 -47 18 -65 25 l-32 14 -30 -52z"/>
<path d="M52860 55030 c-843 -58 -1603 -312 -2282 -762 -76 -51 -138 -96 -138
-100 0 -8 72 -116 102 -154 6 -9 42 10 120 64 554 376 1192 620 1863 711 233
32 370 41 635 41 264 0 402 -9 633 -41 1275 -174 2410 -898 3119 -1989 396
-609 632 -1267 725 -2020 25 -207 25 -762 0 -975 -56 -463 -163 -875 -337
-1289 -72 -172 -172 -362 -576 -1092 -217 -392 -394 -717 -394 -722 0 -9 152
-92 169 -92 12 0 817 1458 900 1632 172 359 297 734 375 1128 118 591 123
1196 15 1775 -255 1368 -1075 2554 -2249 3250 -63 37 -200 110 -303 161 -510
252 -1015 397 -1597 459 -175 19 -607 27 -780 15z"/>
<path d="M48811 52093 c-26 -51 -119 -319 -166 -482 -132 -459 -184 -841 -182
-1339 l2 -302 -508 0 -509 0 -34 -34 c-29 -29 -34 -41 -34 -80 0 -36 6 -52 29
-78 l29 -33 526 -3 525 -3 6 -47 c69 -527 223 -1033 456 -1502 54 -107 918
-1680 1922 -3495 1787 -3233 1825 -3301 1893 -3370 112 -115 232 -165 394
-165 100 0 176 18 262 61 67 34 155 111 198 174 25 36 2125 3831 2136 3858 4
11 -143 107 -164 107 -5 0 -487 -865 -1072 -1922 -585 -1058 -1072 -1935
-1084 -1949 -69 -84 -186 -134 -299 -126 -82 5 -174 47 -229 104 -46 48 -3710
6669 -3814 6893 -83 180 -132 300 -186 460 -341 1003 -325 2092 47 3080 24 63
45 121 47 129 2 9 -28 25 -87 47 -49 19 -91 34 -92 34 -1 0 -6 -8 -12 -17z"/>
<path d="M38003 50999 c-306 -44 -590 -192 -810 -423 -138 -144 -228 -289
-292 -470 -30 -85 -37 -110 -64 -231 -7 -36 -12 -1019 -16 -3419 l-6 -3368
-52 -20 c-70 -26 -145 -98 -180 -173 l-28 -60 0 -1700 0 -1700 26 -56 c44 -94
125 -165 222 -193 16 -5 17 -36 17 -476 0 -416 -2 -470 -15 -470 -29 0 -116
-51 -156 -91 -23 -23 -53 -66 -68 -98 l-26 -56 -3 -1697 -2 -1696 21 -59 c30
-78 113 -162 189 -190 l55 -21 3 -4766 2 -4766 100 0 100 0 0 4865 0 4865 -72
0 c-96 0 -149 25 -177 84 -21 42 -21 47 -21 1682 0 1540 1 1641 18 1674 30 60
72 80 168 80 l84 0 0 659 0 658 -85 5 c-91 5 -118 17 -159 72 l-21 27 0 1664
0 1664 21 27 c40 54 66 66 158 71 l86 6 3 3451 c3 3793 -2 3481 61 3670 112
332 394 608 741 724 202 67 -214 62 4952 62 l4673 0 0 100 0 100 -4692 -1
c-2661 -1 -4720 -5 -4755 -10z"/>
<path d="M46136 50038 c-22 -13 -53 -40 -70 -61 -26 -32 -31 -48 -34 -106 -3
-53 0 -76 16 -107 68 -133 240 -154 339 -41 81 93 60 237 -45 307 -54 35 -152
39 -206 8z"/>
<path d="M50533 49926 c4 -25 14 -76 23 -115 l16 -71 834 0 c916 0 877 -3 909
60 30 57 10 127 -45 155 -25 13 -140 15 -886 15 l-857 0 6 -44z"/>
<path d="M21563 43468 c-70 -88 -138 -196 -173 -273 l-30 -66 -54 47 c-56 50
-171 124 -191 124 -11 0 -72 -128 -64 -133 2 -1 20 -11 39 -21 58 -31 137 -93
160 -126 l21 -30 -99 0 c-446 0 -758 -240 -886 -681 -48 -168 -61 -283 -60
-549 0 -195 5 -280 23 -415 25 -193 67 -414 117 -623 l34 -143 -20 -157 c-65
-506 -17 -817 152 -986 38 -38 86 -73 121 -90 66 -31 185 -59 231 -54 l31 3
27 165 c14 91 29 181 32 201 5 33 3 37 -32 57 -58 32 -140 125 -169 189 -96
217 -59 466 89 610 47 45 119 93 140 93 5 0 8 -9 8 -20 0 -17 7 -20 43 -20 61
0 189 -34 249 -67 28 -15 73 -50 102 -78 l51 -51 62 40 c74 47 74 47 -26 137
l-68 62 18 83 c82 376 240 644 437 742 69 34 83 37 158 37 74 0 85 -3 120 -29
279 -205 591 -360 869 -431 361 -92 682 -66 962 79 l81 42 6 -29 c3 -16 6
-100 7 -186 l1 -156 68 138 c38 76 92 201 121 277 l52 138 71 62 c88 77 190
192 257 287 47 69 132 223 126 230 -2 2 -38 12 -79 22 -97 25 -187 70 -225
114 -22 26 -34 52 -43 103 -39 211 -118 371 -254 509 -138 141 -289 205 -569
242 l-59 8 -18 52 c-63 179 -194 329 -362 414 -201 101 -501 117 -811 43 -217
-52 -491 -156 -738 -280 -61 -30 -113 -54 -115 -52 -14 15 117 236 182 308
l37 41 -55 55 -55 56 -50 -64z"/>
<path d="M30522 41791 c-59 -19 -72 -26 -67 -40 224 -567 4803 -12586 4799
-12593 -4 -6 -3 -9 2 -6 8 5 639 -1631 639 -1657 0 -5 3 -12 6 -15 3 -3 140
-356 304 -785 163 -429 308 -807 321 -841 25 -60 60 -97 251 -257 l33 -29 -19
49 c-10 26 -1396 3655 -3079 8063 -1684 4408 -3069 8033 -3080 8055 -10 22
-23 49 -28 60 -9 20 -10 20 -82 -4z"/>
<path d="M48790 41169 c-946 -35 -1885 -232 -2772 -581 -98 -38 -179 -72 -182
-76 -3 -6 59 -169 69 -180 1 -1 87 31 191 72 1288 506 2699 681 4069 506 82
-11 153 -16 156 -12 7 8 33 181 28 187 -7 6 -330 45 -504 60 -181 16 -650 36
-775 33 -41 0 -167 -5 -280 -9z"/>
<path d="M48754 39635 c-666 -101 -1234 -564 -1708 -1394 -402 -702 -740
-1708 -941 -2801 -36 -195 -95 -573 -95 -607 0 -15 38 -29 222 -82 489 -140
1062 -269 1523 -341 189 -30 216 -32 496 -34 l297 -1 6 65 c32 341 42 757 27
1075 -6 132 -14 261 -17 286 l-6 47 -157 5 c-100 3 -177 11 -216 22 -285 79
-457 309 -416 556 6 39 24 97 38 128 50 106 186 212 317 247 76 20 202 18 278
-6 34 -11 65 -20 67 -20 2 0 0 47 -4 104 l-7 103 99 22 c650 146 1164 379
1478 672 77 72 73 59 -15 -60 -131 -177 -348 -360 -552 -466 -59 -31 -108 -58
-108 -60 0 -8 44 -121 50 -128 10 -11 153 61 260 131 246 159 432 348 564 572
54 90 117 235 131 298 8 40 16 40 39 1 11 -18 52 -76 92 -129 187 -249 432
-406 689 -442 29 -5 33 -51 41 -453 11 -592 -34 -990 -151 -1343 -71 -211
-212 -438 -339 -547 -48 -41 -199 -135 -217 -135 -4 0 -14 18 -23 40 l-16 39
-42 -15 c-79 -28 -266 -54 -387 -54 -336 0 -591 93 -810 296 l-71 66 -55 -47
c-65 -55 -65 -57 27 -137 211 -184 417 -280 688 -318 100 -14 295 -14 410 1
164 21 154 25 162 -51 4 -36 17 -127 29 -202 21 -129 24 -137 43 -133 394 86
572 134 805 219 313 114 603 260 803 403 l46 34 -48 92 c-92 174 -180 409
-234 622 -81 322 -115 627 -136 1240 -29 860 -91 1212 -280 1593 -260 524
-650 851 -1109 927 -123 21 -368 16 -468 -9 -60 -15 -63 -15 -135 10 -92 31
-236 68 -353 89 -123 23 -487 29 -611 10z m1868 -1617 c94 -91 223 -186 323
-235 57 -29 167 -68 210 -75 22 -4 32 -35 34 -111 1 -47 1 -47 -26 -41 -263
58 -512 273 -683 589 l-33 60 43 -50 c24 -27 83 -89 132 -137z"/>
<path d="M29025 39511 c-23 -10 -49 -31 -59 -46 -27 -41 -866 -2563 -866
-2603 0 -43 21 -91 52 -120 37 -33 499 -186 513 -169 7 6 61 68 120 136 l109
124 -49 45 c-28 24 -72 61 -100 82 -50 38 -51 38 -160 42 -125 5 -188 26 -193
65 -8 53 83 91 243 100 124 7 171 -8 316 -98 55 -34 103 -59 106 -56 7 8 -119
169 -153 196 -15 12 -45 26 -68 31 -175 44 -249 79 -266 124 -19 51 34 76 164
76 180 0 243 -27 424 -183 51 -44 95 -77 98 -74 3 3 -38 58 -91 123 -156 192
-271 348 -299 407 -42 89 -33 141 24 139 70 -2 205 -112 401 -329 119 -132
151 -161 141 -128 -2 6 -50 96 -107 200 -177 325 -220 459 -154 480 48 15 180
-104 311 -281 l63 -85 232 698 c250 750 245 728 201 801 -11 18 -34 40 -51 49
-56 29 -801 273 -832 273 -16 0 -48 -9 -70 -19z"/>
<path d="M43079 38633 c-982 -998 -1685 -2192 -2074 -3523 -250 -857 -359
-1716 -334 -2645 74 -2728 1501 -5289 3789 -6800 1090 -719 2319 -1175 3600
-1334 394 -49 511 -55 1045 -56 520 0 601 4 980 46 1153 128 2270 498 3293
1092 67 39 122 75 122 79 0 5 -71 129 -95 165 -1 2 -71 -38 -156 -87 -509
-297 -1202 -593 -1791 -765 -505 -148 -1132 -267 -1585 -301 l-91 -6 -6 43
c-7 56 -33 597 -46 984 -6 165 -13 360 -16 433 l-6 132 -80 0 -79 0 6 -157
c22 -602 38 -982 50 -1198 7 -137 11 -252 8 -255 -11 -11 -923 -4 -1068 8
-1000 84 -1798 275 -2645 634 -283 120 -301 129 -463 210 -1159 579 -2168
1426 -2941 2468 -1008 1357 -1579 2997 -1624 4663 -39 1424 247 2731 869 3967
383 762 875 1446 1493 2078 l190 193 -70 70 -70 70 -205 -208z"/>
<path d="M21860 38719 c-30 -22 -54 -45 -52 -52 6 -19 71 -97 135 -160 167
-165 387 -282 627 -333 81 -17 380 -27 394 -14 2 3 0 37 -6 76 l-11 70 -87 -4
c-325 -16 -656 130 -872 382 -34 39 -64 72 -67 73 -3 1 -31 -16 -61 -38z"/>
<path d="M19483 37758 l-31 -52 100 -62 c55 -33 98 -65 96 -70 -1 -5 -84 -32
-183 -61 -432 -125 -890 -302 -1300 -504 -532 -261 -968 -568 -1185 -834 -272
-334 -666 -1100 -1037 -2018 -558 -1382 -923 -2761 -1003 -3786 -80 -1041 237
-2105 955 -3206 352 -540 764 -1037 1307 -1578 l280 -278 -35 -42 c-44 -54
-117 -158 -117 -167 0 -4 28 -24 62 -45 l63 -37 15 23 c48 73 48 75 23 -162
-247 -2429 -334 -4992 -253 -7519 5 -173 13 -374 16 -447 l7 -131 60 81 c79
108 258 290 379 387 90 73 211 160 222 160 6 0 66 -98 66 -109 0 -5 -19 -21
-42 -36 -90 -59 -237 -183 -339 -284 -161 -161 -271 -318 -341 -486 -37 -89
-43 -95 -83 -82 -18 6 -25 -10 -79 -201 -614 -2155 -1109 -4492 -1470 -6942
-76 -516 -192 -1408 -184 -1415 12 -11 495 -97 613 -109 28 -3 109 -12 180
-20 881 -100 1981 -65 2988 95 149 24 200 36 206 48 9 16 35 106 316 1066 801
2739 1492 5177 1890 6665 140 524 315 1211 315 1238 0 14 -9 21 -31 26 -23 4
-30 10 -25 22 11 30 77 370 116 599 51 301 123 803 160 1120 39 328 119 1042
145 1285 14 135 28 263 30 285 5 37 21 187 45 425 5 52 12 115 15 140 3 25 28
254 55 510 69 634 177 1548 196 1658 6 29 9 32 44 32 71 0 99 -10 95 -34 -4
-23 -41 -316 -80 -641 -14 -115 -27 -226 -30 -245 -3 -19 -27 -240 -55 -490
-27 -250 -52 -475 -55 -500 -14 -128 -46 -423 -60 -560 -9 -85 -27 -258 -41
-385 -13 -126 -26 -250 -29 -275 -14 -136 -41 -376 -96 -860 -22 -195 -41
-368 -40 -385 0 -16 12 -84 26 -150 14 -66 67 -311 116 -545 50 -234 103 -486
119 -560 16 -74 70 -328 120 -565 50 -236 127 -599 171 -805 44 -206 97 -458
119 -560 36 -173 124 -588 225 -1060 74 -346 404 -1905 440 -2075 19 -88 48
-225 65 -305 17 -80 49 -228 70 -330 21 -102 51 -239 65 -305 15 -66 30 -140
35 -165 5 -25 36 -173 70 -330 33 -157 94 -445 136 -640 41 -195 97 -458 124
-585 27 -126 65 -304 84 -395 61 -290 164 -776 231 -1090 36 -168 65 -310 65
-317 0 -7 -17 -15 -37 -19 l-38 -8 45 -7 c60 -10 446 -46 640 -59 263 -18 987
-24 1280 -10 145 6 271 13 280 15 8 1 69 6 135 10 66 4 127 8 135 10 8 1 51 6
95 9 150 13 489 56 685 87 107 17 212 33 233 36 20 3 37 11 38 17 2 27 -2 157
-6 226 -7 104 -24 363 -30 435 -2 33 -7 94 -10 135 -8 118 -54 689 -60 745 -2
28 -16 183 -30 345 -27 319 -33 384 -40 445 -2 22 -7 76 -10 120 -3 44 -8 96
-10 115 -3 19 -9 85 -15 145 -27 298 -135 1415 -155 1595 -3 25 -12 117 -20
205 -28 286 -164 1565 -236 2215 -447 4048 -959 7921 -1464 11078 l-17 102 52
46 c97 88 176 220 212 352 17 65 20 105 19 259 l-1 182 27 3 c23 2 29 8 31 35
2 18 -15 326 -38 684 -23 359 -40 662 -38 674 3 21 430 -193 5333 -2674 l5330
-2696 3 85 c2 46 -1 86 -5 87 -4 2 -2409 1218 -5343 2702 l-5335 2700 -16 273
c-9 150 -20 361 -24 468 l-8 194 29 -19 c177 -118 440 -224 688 -279 200 -44
269 -51 531 -51 281 1 394 15 645 81 417 109 795 342 1069 659 507 587 776
1412 873 2675 17 222 17 1238 0 1500 -30 456 -114 1405 -126 1417 -4 4 -207
27 -976 108 -946 100 -1013 106 -1020 98 -4 -4 -29 -98 -55 -208 -25 -110 -51
-219 -57 -243 l-10 -42 -94 50 c-52 27 -98 50 -102 50 -12 0 -63 -92 -59 -104
3 -7 53 -37 111 -66 69 -36 106 -61 106 -71 0 -20 -327 -1396 -338 -1423 -6
-13 -22 27 -56 140 -148 481 -380 1143 -561 1599 -265 669 -400 942 -606 1218
-61 82 -187 232 -226 269 -344 325 -757 559 -1358 768 -99 34 -186 64 -193 66
-11 3 -9 12 7 37 33 54 92 200 84 208 -4 3 -32 13 -60 22 l-53 15 -45 -96
c-143 -302 -411 -571 -717 -720 -448 -218 -1041 -241 -1743 -65 -634 158
-1353 478 -2147 955 -109 65 -201 118 -205 118 -5 0 -22 -23 -40 -52z m376
-12511 c141 -206 178 -254 189 -245 52 44 233 360 277 486 11 28 23 52 29 52
5 0 36 -7 68 -16 47 -14 58 -20 52 -33 -3 -9 -14 -38 -24 -66 -45 -126 -144
-308 -234 -430 -323 -441 -775 -757 -1366 -955 -121 -40 -400 -113 -407 -106
-7 6 -35 128 -31 130 2 1 57 15 123 31 66 15 175 46 243 67 l123 39 -20 27
c-11 15 -139 171 -284 347 -245 297 -263 321 -248 337 9 9 272 205 585 437
l569 421 91 -133 c50 -74 170 -249 265 -390z m5307 446 c14 -55 76 -210 121
-298 171 -339 433 -584 733 -685 48 -17 85 -35 85 -42 -1 -47 -19 -118 -30
-118 -32 0 -179 56 -264 101 -299 157 -531 415 -689 765 -49 110 -97 252 -88
262 9 8 96 40 113 41 7 1 16 -11 19 -26z m1214 -6995 c110 -110 255 -366 418
-733 82 -187 232 -557 232 -574 0 -8 -99 -51 -118 -51 -4 0 -36 73 -71 163
-205 521 -430 968 -546 1087 l-44 45 26 58 c14 31 31 57 38 57 7 0 36 -24 65
-52z"/>
<path d="M23526 37754 c-31 -92 -89 -178 -180 -270 -79 -79 -105 -98 -196
-143 -173 -85 -355 -119 -575 -106 -333 18 -748 137 -1171 335 -59 28 -110 50
-114 50 -8 0 -63 -110 -58 -115 11 -10 279 -127 412 -180 533 -211 995 -274
1348 -185 217 56 407 177 530 339 49 65 130 221 142 273 6 25 3 27 -45 37 -73
16 -76 15 -93 -35z"/>
<path d="M66395 36878 c-180 -111 -445 -178 -704 -178 -119 0 -121 0 -121 -22
0 -13 -3 -47 -7 -77 l-6 -54 189 6 c256 7 423 44 620 136 l81 38 6 48 c9 64 9
135 0 134 -5 0 -30 -14 -58 -31z"/>
<path d="M52631 33268 c26 -113 65 -392 81 -568 16 -185 16 -828 0 -1055 -17
-238 -49 -548 -78 -762 -13 -100 -24 -189 -24 -197 0 -13 14 -16 78 -16 l78 0
22 163 c118 863 131 1649 36 2262 -8 55 -18 108 -20 117 -5 16 -168 138 -185
138 -4 0 2 -37 12 -82z"/>
<path d="M51300 32313 c-30 -8 -58 -17 -62 -21 -4 -4 8 -68 27 -142 115 -457
222 -1128 278 -1742 12 -136 25 -250 29 -253 6 -6 136 10 144 18 2 2 -5 100
-16 218 -10 118 -22 246 -25 284 -29 360 -132 976 -242 1453 -37 160 -50 202
-62 201 -9 0 -41 -7 -71 -16z"/>
<path d="M47238 31897 c-339 -433 -611 -1045 -740 -1667 l-23 -112 -80 7
c-319 27 -722 137 -1113 302 -272 115 -674 328 -918 486 -47 31 -71 41 -76 33
-4 -6 -17 -40 -29 -75 l-22 -64 24 -18 c13 -10 92 -59 174 -108 656 -392 1320
-642 1880 -707 71 -8 130 -16 131 -17 0 -1 -6 -55 -14 -119 -9 -65 -13 -120
-10 -124 3 -3 40 -8 81 -11 l74 -6 7 79 c17 192 84 515 158 769 134 462 370
942 612 1245 29 36 55 70 59 77 4 6 -17 32 -52 62 l-58 51 -65 -83z"/>
<path d="M51590 27853 c-52 -35 -167 -100 -255 -143 -321 -159 -683 -255
-1155 -307 -206 -23 -927 -26 -1160 -5 -790 70 -1560 218 -2354 451 l-168 49
6 -39 c3 -22 11 -61 17 -88 l10 -48 217 -62 c526 -149 1148 -282 1639 -352
l82 -11 -27 -42 c-167 -259 -433 -496 -774 -688 l-97 -55 67 -44 c37 -24 72
-45 79 -47 6 -2 60 27 120 63 323 199 552 410 726 672 67 101 85 122 101 118
36 -8 325 -34 491 -45 205 -13 679 -13 860 0 136 10 435 45 478 55 18 5 33 -8
83 -77 74 -100 191 -228 299 -328 276 -255 621 -433 977 -504 119 -24 327 -50
335 -42 2 2 -6 38 -18 80 -25 85 -19 81 -129 91 -314 30 -652 170 -945 394
-135 103 -419 403 -397 421 4 4 66 22 137 40 227 57 477 151 645 242 94 51
260 158 260 167 0 12 -42 136 -49 142 -3 4 -49 -22 -101 -58z"/>
<path d="M49533 27049 c-236 -45 -328 -335 -160 -507 59 -61 109 -84 193 -90
125 -8 227 47 292 156 24 42 27 56 27 142 0 110 -15 147 -87 217 -71 69 -171
100 -265 82z m119 -165 c9 -3 31 -21 47 -40 26 -29 31 -43 31 -87 0 -91 -54
-147 -140 -147 -132 0 -196 153 -102 243 45 43 90 51 164 31z"/>
<path d="M70427 25920 c-32 -4 -60 -10 -64 -13 -3 -4 13 -170 36 -369 276
-2423 428 -4797 502 -7818 27 -1126 22 -3536 -11 -4835 -43 -1700 -125 -3453
-220 -4680 -10 -132 -17 -241 -16 -241 0 -1 33 -4 73 -6 l72 -5 6 41 c16 119
89 1274 125 1961 105 2034 147 3901 137 6075 -6 1189 -12 1613 -37 2485 -65
2270 -205 4445 -415 6425 -76 726 -108 990 -119 989 -6 -1 -37 -5 -69 -9z"/>
<path d="M66870 22055 c0 -3 -48 -159 -106 -348 -1073 -3474 -2548 -7199
-4304 -10872 -399 -834 -1068 -2162 -1396 -2772 l-44 -81 66 -37 c36 -20 67
-35 68 -33 1 1 16 26 32 53 l29 50 3 -95 c2 -52 1 -462 -1 -910 -3 -785 -4
-818 -24 -900 -134 -544 -598 -910 -1154 -910 l-119 0 0 -25 c0 -24 -2 -25
-69 -25 l-69 0 -7 37 c-4 21 -9 49 -12 63 -3 14 -6 30 -7 36 -1 7 -8 20 -16
30 -12 15 -12 16 -1 9 12 -7 13 -1 7 31 -4 21 -10 57 -13 79 -3 22 -8 42 -12
45 -3 3 -6 19 -7 35 -1 50 -9 82 -24 101 -9 11 -10 15 -2 10 12 -7 17 6 6 17
-4 4 -8 30 -10 59 -4 65 -10 81 -26 72 -9 -6 -9 -3 0 9 18 21 2 117 -19 117
-6 0 -7 -5 -3 -12 5 -7 3 -8 -5 -4 -9 6 -8 13 5 28 15 15 16 21 5 27 -8 5 -11
13 -7 19 8 14 -4 43 -16 36 -5 -3 -4 -13 4 -22 10 -14 10 -15 -2 -5 -17 16
-22 43 -7 40 15 -2 16 35 4 88 -9 38 -13 63 -16 94 0 7 -7 11 -15 8 -10 -4
-13 -1 -9 8 3 8 10 12 16 8 6 -4 7 -1 2 8 -5 7 -9 27 -9 43 -1 16 -7 31 -15
34 -9 3 -11 0 -6 -8 5 -8 4 -11 -3 -6 -6 4 -9 13 -6 21 4 8 9 13 13 10 4 -2 8
2 8 10 0 8 -4 15 -8 15 -4 0 -6 8 -4 18 2 10 -2 19 -9 19 -8 0 -11 -9 -8 -22
2 -13 -1 -25 -6 -29 -6 -3 -8 2 -5 13 6 22 -16 39 -27 22 -4 -7 -11 -11 -16
-10 -25 4 -45 -2 -38 -13 4 -6 3 -8 -2 -5 -19 11 -158 -29 -149 -43 2 -3 -18
-5 -43 -5 -43 0 -47 -2 -46 -23 1 -12 -1 -20 -5 -17 -3 4 -6 12 -6 18 0 7 -9
11 -20 9 -11 -2 -28 -3 -37 -3 -10 0 -21 -5 -24 -11 -5 -7 -2 -8 6 -3 8 5 11
4 7 -3 -7 -10 -32 -11 -41 -1 -7 7 -146 -13 -146 -21 0 -4 -14 -5 -30 -2 -32
5 -64 -14 -53 -31 3 -6 1 -7 -6 -3 -6 4 -9 12 -6 17 4 5 -3 9 -14 9 -24 0 -27
-10 -8 -30 10 -12 9 -12 -4 -2 -13 10 -19 9 -28 -1 -6 -8 -9 -17 -6 -20 3 -4
2 -5 -2 -2 -10 8 -13 36 -3 30 4 -3 11 2 14 11 5 12 2 15 -10 10 -8 -3 -23 -6
-31 -6 -13 0 -14 -2 -2 -17 13 -17 13 -17 -5 -3 -26 20 -109 23 -102 3 3 -8 6
-17 6 -19 0 -3 5 -2 12 2 7 5 8 3 3 -6 -6 -10 -11 -9 -22 5 -7 11 -13 23 -13
27 0 5 -46 7 -102 6 -57 -2 -109 1 -117 6 -11 7 -12 6 -6 -5 7 -11 6 -12 -6
-3 -8 7 -41 14 -74 17 -33 3 -82 10 -109 17 -27 6 -51 8 -54 5 -3 -2 -10 -1
-16 4 -6 4 -24 11 -39 15 -22 5 -27 4 -21 -6 4 -7 -2 -5 -14 5 -11 11 -26 16
-31 12 -6 -3 -11 -2 -11 3 0 8 -71 34 -85 32 -4 -1 -18 6 -32 15 -18 12 -23
13 -18 4 3 -8 0 -6 -9 5 -8 10 -21 16 -28 14 -7 -3 -18 2 -24 10 -7 9 -16 12
-24 7 -10 -6 -9 -11 5 -22 11 -7 14 -13 8 -13 -7 0 -15 5 -18 10 -4 6 -11 7
-17 4 -7 -5 -8 -2 -3 6 6 9 2 10 -16 5 -23 -7 -23 -7 -4 8 13 10 22 12 26 5 4
-7 9 -7 13 1 8 12 -43 40 -61 34 -19 -7 -16 7 10 53 13 22 23 48 21 56 -1 12
3 15 14 10 15 -5 15 -4 2 12 -13 17 -12 17 25 1 22 -10 48 -18 57 -19 9 0 14
-4 12 -8 -3 -4 0 -9 5 -9 21 -3 26 -5 61 -27 22 -14 43 -19 60 -16 19 4 22 3
10 -5 -12 -9 -11 -11 10 -12 14 -1 31 -1 39 0 7 2 10 -2 7 -7 -3 -5 3 -12 14
-15 11 -3 18 -2 15 3 -3 4 2 10 10 13 9 4 12 1 9 -7 -8 -20 52 -37 138 -40 20
-1 34 -4 32 -8 -4 -5 49 -14 116 -18 87 -6 288 -8 300 -3 8 3 19 7 23 7 4 1
12 8 18 16 9 13 10 12 5 -2 -5 -16 1 -17 62 -12 37 3 68 9 70 13 1 5 14 6 29
3 20 -4 24 -2 18 9 -6 11 -5 12 6 2 15 -15 33 -17 25 -4 -4 5 3 7 14 4 11 -3
28 -2 37 2 10 4 30 7 46 6 15 -2 27 3 27 9 0 6 -5 8 -12 4 -7 -4 -8 -3 -4 4 5
9 12 8 26 -1 17 -10 22 -8 35 11 9 12 24 22 33 21 12 0 11 -3 -5 -9 -35 -14
-27 -21 15 -14 21 3 45 15 55 27 15 19 16 19 10 3 -5 -15 -3 -18 10 -13 8 3
32 9 51 13 20 3 33 10 30 15 -3 5 2 6 10 3 8 -3 21 -2 28 2 7 5 20 9 28 11 8
1 40 9 71 18 l56 17 -3 42 c-2 22 -7 52 -10 66 -7 24 -9 37 -12 73 -1 12 -6
15 -14 11 -8 -5 -8 -1 1 10 12 14 12 19 2 26 -8 4 -11 12 -7 18 10 16 -5 44
-20 38 -7 -3 -16 -1 -19 5 -4 5 -3 9 2 8 22 -4 33 3 33 22 0 11 -4 18 -8 15
-5 -3 -7 11 -6 30 4 39 -1 41 -29 17 -11 -10 -17 -12 -13 -6 5 9 2 11 -8 7 -9
-3 -16 -9 -16 -13 0 -4 -10 -8 -22 -8 -13 -1 -24 -7 -26 -13 -2 -5 -8 -7 -14
-4 -6 4 -14 1 -18 -6 -4 -7 -22 -14 -40 -15 -18 -2 -35 -7 -39 -11 -3 -5 -17
-11 -31 -12 -14 -2 -27 -8 -28 -13 -2 -5 -8 -7 -13 -4 -5 3 -19 0 -31 -7 -13
-7 -27 -11 -33 -9 -5 1 -15 -6 -22 -15 -7 -10 -13 -12 -13 -6 0 13 -32 8 -80
-11 -25 -10 -41 -13 -81 -16 -11 0 -17 -6 -14 -11 4 -7 -2 -9 -17 -5 -12 3
-45 1 -73 -5 -27 -6 -61 -11 -74 -11 -13 1 -31 -5 -39 -11 -13 -11 -14 -11 -7
1 6 10 4 12 -5 6 -13 -8 -249 -7 -340 2 -30 3 -66 6 -80 8 -14 1 -34 5 -45 8
-11 3 -31 8 -45 11 -14 3 -40 9 -59 15 -19 6 -38 8 -42 5 -5 -3 -9 0 -9 6 0 6
-4 8 -10 5 -18 -11 -11 -27 10 -22 11 3 22 2 25 -2 2 -5 -8 -7 -23 -6 -43 3
-45 4 -32 20 10 12 9 16 -6 21 -11 3 -29 10 -41 15 -13 4 -30 6 -38 3 -9 -4
-23 0 -33 7 -9 8 -28 20 -41 27 -19 11 -22 11 -15 0 4 -7 -2 -4 -14 6 -21 18
-27 15 -22 -9 1 -5 -2 -6 -7 -2 -4 5 -8 13 -8 18 0 5 -4 10 -10 10 -5 1 -19 8
-30 15 -23 17 -49 19 -40 3 4 -6 1 -9 -6 -8 -17 4 -79 -28 -79 -40 0 -4 -6 -8
-12 -8 -13 0 -188 -101 -198 -114 -3 -3 -15 -9 -26 -13 -12 -4 -34 -19 -50
-34 -15 -15 -24 -20 -19 -12 8 13 7 13 -11 0 -10 -8 -22 -19 -26 -25 -4 -5 -8
-6 -8 -1 0 4 -11 1 -25 -8 -13 -9 -46 -28 -72 -43 -26 -14 -51 -31 -55 -37 -4
-6 -8 -7 -8 -2 0 5 -6 3 -14 -4 -8 -6 -12 -19 -9 -28 4 -13 3 -14 -5 -3 -8 11
-16 11 -50 -4 -22 -10 -38 -23 -36 -30 3 -6 -2 -12 -10 -12 -8 0 -13 4 -10 8
2 4 -10 1 -27 -8 -24 -12 -28 -18 -18 -25 10 -7 7 -8 -11 -4 -16 3 -31 -1 -45
-14 -11 -10 -23 -19 -27 -20 -33 -7 -47 -13 -43 -20 3 -5 -4 -6 -15 -3 -18 5
-25 -5 -21 -29 0 -5 -4 -8 -10 -8 -6 0 -9 7 -5 15 6 17 -85 -25 -118 -54 -10
-9 -21 -15 -25 -14 -3 0 -5 -3 -3 -9 1 -5 -2 -7 -8 -3 -12 8 -80 -16 -80 -28
0 -4 -4 -6 -9 -2 -6 3 -20 -5 -32 -17 -12 -13 -18 -17 -14 -10 6 11 3 12 -14
3 -11 -7 -21 -14 -21 -17 0 -3 4 -3 8 0 5 3 9 -1 9 -9 0 -10 -4 -12 -12 -5
-18 15 -85 -7 -86 -28 0 -9 -3 -12 -5 -6 -7 17 -86 -15 -80 -32 3 -7 -1 -15
-9 -18 -9 -3 -12 0 -8 10 4 10 0 12 -11 8 -9 -3 -16 -10 -16 -16 0 -5 -5 -6
-12 -2 -8 5 -9 2 -4 -11 5 -15 4 -16 -8 -6 -10 8 -16 9 -21 1 -3 -6 -10 -8
-15 -5 -5 3 -11 1 -15 -5 -3 -5 -14 -10 -24 -10 -9 0 -26 -8 -37 -18 -11 -10
-25 -17 -32 -14 -6 2 -12 -1 -12 -7 0 -6 -7 -8 -16 -4 -12 4 -14 0 -9 -23 5
-26 5 -27 -5 -6 -5 13 -14 20 -20 17 -6 -4 -8 -10 -5 -15 3 -5 0 -12 -6 -16
-7 -4 -9 -3 -5 4 3 6 2 13 -4 17 -5 3 -10 -2 -10 -12 0 -15 -2 -16 -10 -3 -5
8 -10 10 -10 4 0 -6 -6 -11 -14 -11 -26 0 -76 -25 -69 -36 3 -6 1 -7 -6 -3
-13 8 -71 -14 -71 -27 0 -5 -4 -6 -9 -3 -15 10 -41 -5 -42 -23 0 -9 -3 -11 -6
-4 -3 8 -11 9 -21 4 -9 -4 -41 -19 -69 -33 -29 -14 -50 -21 -47 -16 4 6 -4 4
-17 -2 -31 -16 -39 -25 -16 -17 11 4 16 3 12 -3 -3 -6 -17 -7 -29 -4 -28 7
-60 -21 -53 -47 4 -16 2 -17 -14 -8 -10 5 -19 12 -19 15 0 3 4 3 9 0 5 -3 12
1 15 10 7 17 5 16 -71 -34 -30 -19 -50 -39 -46 -45 3 -6 1 -7 -5 -3 -15 9
-162 -138 -162 -162 0 -11 -7 -23 -16 -26 -8 -3 -12 -11 -8 -17 4 -8 3 -9 -4
-5 -13 8 -41 -43 -34 -63 3 -9 0 -11 -8 -6 -8 5 -11 4 -6 -3 3 -5 3 -12 -1
-15 -5 -2 -3 -2 4 -1 6 2 17 -5 25 -14 11 -15 11 -15 -3 -5 -12 10 -20 9 -37
-3 -12 -8 -22 -23 -22 -33 0 -9 -6 -23 -12 -30 -10 -11 -10 -13 0 -7 6 4 12 2
12 -3 0 -6 -4 -11 -9 -11 -5 0 -14 -14 -20 -31 -14 -40 -14 -48 0 -29 9 13 10
13 6 0 -3 -13 -958 -15 -8503 -18 -7637 -2 -8508 -1 -8584 13 -479 88 -834
421 -953 895 l-21 85 -3 4018 -3 4018 -98 -3 -97 -3 0 -4015 c0 -3815 1 -4019
18 -4103 80 -392 321 -732 652 -918 l60 -34 -6459 -3 c-3553 -1 -6461 0 -6463
1 -3 4 214 1269 222 1294 3 9 19 7 62 -8 99 -34 312 -87 453 -113 222 -40 339
-49 582 -44 245 6 358 23 531 79 82 27 297 125 297 136 0 4 -68 113 -76 122
-2 2 -46 -16 -96 -41 -195 -96 -374 -136 -638 -145 -321 -10 -646 39 -992 149
-88 28 -97 33 -93 52 13 54 73 411 69 415 -5 5 -138 30 -142 27 -1 -2 -78
-436 -169 -965 l-167 -961 -4488 0 -4488 0 5 23 c3 12 53 294 110 627 58 333
108 617 111 632 5 27 5 27 46 12 80 -28 296 -84 418 -108 203 -41 369 -57 575
-57 334 0 567 50 808 173 42 22 77 43 77 47 0 9 -70 121 -76 121 -3 0 -46 -20
-97 -45 -322 -155 -737 -188 -1222 -95 -222 43 -495 121 -495 143 0 6 16 103
35 215 20 113 33 207 30 211 -6 5 -138 31 -141 27 -1 0 -74 -424 -164 -941
-89 -517 -164 -950 -167 -962 l-5 -23 -954 0 -954 0 0 -100 0 -100 29415 0
29415 0 0 100 0 100 -1215 0 -1215 0 0 31 c0 16 -3 28 -7 26 -5 -3 -9 18 -10
45 0 28 -7 70 -13 94 -11 39 -15 43 -29 32 -15 -12 -15 -11 0 7 8 11 15 27 14
35 -1 8 -3 21 -3 28 -1 8 -7 10 -14 6 -10 -6 -10 -5 -1 7 13 16 6 102 -7 94
-5 -3 -6 4 -3 15 3 11 2 28 -3 37 -7 17 -9 31 -12 81 -1 13 -6 20 -12 17 -5
-3 -10 -1 -10 5 0 6 -3 9 -7 7 -5 -3 -9 7 -9 21 -2 26 -1 26 9 4 18 -39 24
-24 14 35 -5 32 -17 63 -26 69 -13 10 -13 15 -2 27 7 9 10 21 6 26 -3 6 -8 27
-11 48 -2 20 -9 40 -15 44 -7 4 -7 8 -2 10 12 5 -7 129 -19 129 -5 0 -6 -4 -3
-10 3 -5 1 -10 -4 -10 -14 0 -14 17 -2 25 8 5 9 16 2 69 0 5 -4 6 -8 3 -3 -4
-12 -2 -20 4 -10 9 -13 7 -13 -6 0 -10 -3 -16 -6 -12 -3 3 -3 16 1 28 7 20 8
20 17 5 10 -18 28 -13 28 10 0 8 -7 14 -16 14 -13 0 -14 3 -5 14 7 9 9 25 4
43 -4 15 -6 34 -5 41 2 6 -2 12 -8 12 -6 0 -8 5 -4 11 4 7 1 10 -7 7 -8 -3
-14 -10 -14 -15 0 -6 -3 -15 -7 -19 -5 -4 -8 0 -8 10 0 9 -5 14 -10 11 -6 -4
-7 -12 -3 -18 4 -8 1 -7 -9 1 -11 9 -18 10 -23 2 -3 -6 -10 -8 -15 -5 -5 3
-21 0 -37 -7 -15 -6 -32 -10 -37 -9 -4 1 -15 -4 -23 -10 -7 -7 -26 -13 -41
-15 -69 -6 -202 -39 -198 -49 2 -7 -2 -12 -10 -12 -7 0 -11 4 -8 9 3 5 -7 6
-23 4 -143 -24 -324 -47 -371 -46 -16 0 -21 -4 -16 -13 6 -9 5 -9 -7 0 -10 8
-53 11 -134 9 -66 -1 -128 2 -138 7 -13 6 -24 4 -38 -9 -16 -15 -19 -15 -14
-2 5 12 -2 17 -29 20 -20 2 -36 0 -36 -5 0 -5 -7 -4 -15 3 -8 7 -15 9 -15 5 0
-4 -6 -3 -12 3 -7 5 -35 13 -63 16 -27 4 -70 14 -94 22 -47 16 -77 12 -65 -7
4 -8 3 -9 -4 -5 -6 4 -9 13 -6 20 6 15 -132 70 -150 59 -6 -3 -8 -3 -4 2 8 9
-53 45 -64 38 -5 -2 -8 1 -8 7 0 7 -7 9 -16 6 -8 -3 -12 -2 -9 4 3 6 3 10 -2
10 -4 0 -19 10 -33 23 -14 12 -20 18 -13 13 9 -6 13 -3 13 12 0 12 5 24 12 28
7 4 8 3 4 -4 -15 -24 2 -11 19 14 12 18 13 24 4 19 -8 -4 -3 2 10 13 18 15 21
21 10 25 -10 4 -10 6 3 6 9 1 20 -4 23 -10 11 -17 170 -89 173 -78 2 5 8 9 13
9 4 0 6 -7 2 -16 -5 -14 -1 -16 20 -12 15 3 24 2 22 -2 -11 -17 29 -19 48 -3
11 10 17 13 14 6 -4 -6 -2 -13 5 -16 7 -2 5 -3 -4 -2 -10 2 -18 0 -18 -5 0 -9
90 -33 98 -26 3 3 10 2 16 -3 6 -5 33 -12 60 -16 39 -5 47 -4 40 7 -4 7 2 5
12 -4 23 -21 101 -19 96 1 -1 7 2 10 8 6 6 -3 8 -10 5 -15 -3 -4 3 -11 12 -14
9 -4 20 -1 25 6 6 10 8 10 8 1 0 -10 27 -13 101 -13 73 0 98 3 93 12 -5 7 -3
8 7 3 18 -12 90 -6 108 8 12 9 13 9 7 0 -9 -16 13 -17 34 -2 13 9 12 10 -2 5
-24 -7 -23 1 2 14 11 6 20 7 19 3 -4 -22 3 -25 20 -9 14 13 21 14 27 5 4 -7 3
-10 -4 -5 -6 3 -14 1 -18 -5 -5 -9 2 -10 27 -5 19 4 57 9 84 12 28 3 61 12 74
21 17 11 21 12 15 2 -6 -11 -5 -12 8 -2 8 7 18 10 21 7 6 -6 102 13 121 24 4
2 2 8 -5 13 -8 4 -16 3 -20 -2 -4 -7 -9 -4 -12 6 -4 9 -3 13 3 10 6 -3 10 -1
10 6 0 8 6 6 18 -4 10 -10 22 -14 27 -10 4 5 4 2 0 -6 -6 -11 -4 -13 11 -6 10
4 34 10 52 13 17 2 32 8 32 12 0 5 8 6 19 3 10 -2 24 2 32 9 8 7 22 14 32 14
44 3 48 4 41 16 -5 8 -2 9 10 5 10 -4 27 -2 38 4 21 11 21 25 2 125 -3 16 -8
40 -10 54 -2 14 -6 34 -8 45 -2 11 -4 33 -5 48 0 16 -5 26 -10 23 -4 -3 -8 11
-9 32 -1 55 -4 72 -14 72 -4 0 -8 -4 -8 -10 0 -5 -9 -10 -20 -10 -11 0 -28 -4
-38 -9 -33 -17 -77 -34 -97 -38 -11 -2 -24 -9 -30 -15 -7 -8 -6 -9 4 -3 9 5
12 4 8 -3 -4 -5 -15 -9 -25 -8 -9 2 -44 -5 -77 -14 -48 -14 -59 -21 -57 -36 2
-18 2 -18 -8 -1 -7 10 -16 14 -23 10 -12 -8 -17 -9 -50 -11 -10 -1 -15 -7 -12
-12 4 -7 -3 -8 -21 -4 -15 4 -25 3 -21 -2 3 -5 -7 -10 -21 -11 -15 -1 -38 -3
-52 -5 -14 -2 -53 -8 -87 -12 -35 -5 -63 -11 -63 -15 0 -11 -360 -15 -395 -4
-18 5 -19 4 -5 -13 14 -18 14 -18 -5 -3 -11 9 -30 15 -42 14 -13 -1 -23 2 -23
7 0 4 -12 8 -27 8 -16 0 -45 5 -66 11 -30 8 -42 7 -55 -3 -12 -10 -14 -10 -8
0 8 13 -19 27 -70 35 -16 3 -46 12 -67 21 -21 9 -42 14 -47 11 -6 -4 -10 -1
-10 5 0 7 -6 10 -14 7 -8 -3 -16 -2 -18 4 -2 5 -18 13 -35 18 -28 8 -33 7 -34
-7 0 -12 -3 -10 -9 6 -9 22 -48 44 -63 35 -4 -2 -4 -10 0 -16 5 -8 2 -8 -9 0
-8 7 -19 9 -23 5 -5 -4 -5 -1 -1 6 4 7 12 9 18 6 7 -4 8 -2 4 4 -9 15 -36 16
-36 2 0 -5 -7 -10 -15 -10 -8 0 -24 -9 -35 -20 -11 -11 -23 -20 -27 -21 -20
-3 -83 -41 -83 -50 0 -6 -4 -7 -10 -4 -5 3 -10 1 -10 -6 0 -7 -3 -9 -6 -6 -4
4 -19 -1 -33 -11 -50 -32 -66 -42 -90 -52 -19 -9 -21 -13 -10 -26 6 -8 18 -13
25 -10 7 3 16 2 18 -3 9 -14 -28 -9 -46 6 -15 13 -21 12 -57 -9 -23 -14 -38
-28 -34 -32 4 -4 0 -4 -9 -1 -9 4 -18 0 -22 -10 -3 -9 -10 -13 -16 -10 -5 3
-10 1 -10 -6 0 -7 -3 -10 -6 -6 -4 3 -22 -5 -40 -20 -19 -14 -34 -21 -34 -17
-1 5 -14 -7 -31 -26 -20 -23 -28 -28 -24 -15 6 18 5 18 -14 -3 -11 -13 -26
-22 -33 -20 -18 3 -88 -32 -88 -45 0 -7 4 -7 12 1 7 7 16 12 22 12 5 0 1 -6
-9 -14 -11 -8 -26 -11 -34 -8 -9 3 -12 1 -7 -6 3 -6 2 -13 -4 -17 -5 -3 -10 2
-11 12 0 16 -1 16 -9 -2 -5 -11 -9 -14 -9 -7 -1 9 -18 3 -53 -16 -29 -16 -52
-35 -50 -42 2 -10 0 -11 -10 -2 -11 8 -24 5 -57 -14 -24 -13 -50 -24 -58 -24
-8 0 -12 -4 -9 -9 3 -5 0 -8 -7 -8 -16 2 -150 -62 -158 -75 -4 -6 -11 -8 -17
-4 -6 4 -28 -8 -48 -26 -21 -18 -35 -27 -30 -20 9 16 5 15 -44 -4 -23 -9 -37
-21 -33 -27 3 -6 1 -7 -5 -3 -17 10 -132 -46 -129 -64 1 -8 -4 -14 -10 -13
-16 4 -17 -14 -1 -19 8 -3 7 -6 -4 -10 -11 -5 -15 0 -14 15 1 12 8 21 15 19 7
-1 10 2 7 7 -11 17 -45 0 -41 -21 3 -16 2 -18 -10 -8 -11 9 -23 9 -50 0 -31
-10 -34 -14 -23 -28 11 -15 11 -15 -4 -4 -14 11 -23 10 -59 -7 -24 -12 -48
-21 -54 -21 -5 0 -28 -12 -49 -26 -21 -15 -35 -21 -31 -14 4 6 -11 0 -33 -14
-22 -14 -42 -23 -45 -20 -3 3 -24 -4 -48 -15 -23 -12 -48 -21 -53 -21 -6 0
-22 -10 -36 -21 -14 -11 -20 -18 -14 -15 7 3 15 -1 18 -10 6 -15 4 -15 -18 -1
-22 15 -28 15 -65 0 -23 -9 -41 -20 -41 -26 0 -5 8 -3 18 4 15 12 16 12 5 -2
-7 -9 -9 -20 -5 -25 4 -5 3 -6 -2 -2 -5 4 -16 2 -25 -5 -14 -10 -14 -10 -3 5
9 11 10 18 2 23 -5 3 -10 1 -10 -6 0 -7 -3 -10 -6 -6 -8 8 -60 -18 -70 -35 -5
-8 0 -7 12 2 19 14 19 14 0 -8 -19 -22 -32 -30 -21 -13 3 5 1 12 -5 16 -6 3
-13 -1 -16 -9 -3 -9 -13 -16 -21 -16 -8 0 -27 -12 -43 -28 -15 -15 -36 -32
-46 -38 -11 -7 -18 -19 -18 -27 1 -9 -4 -13 -11 -10 -7 2 -16 -5 -20 -16 -3
-12 -11 -19 -16 -16 -5 4 -9 -1 -9 -9 0 -9 -5 -16 -12 -16 -6 0 -9 -2 -6 -5 3
-3 -10 -21 -28 -40 -22 -23 -31 -42 -29 -56 5 -26 -20 -68 -28 -47 -4 9 -6 7
-6 -4 -1 -10 -6 -18 -12 -18 -5 0 -7 -4 -4 -10 3 -5 2 -10 -3 -10 -8 0 -23
-35 -26 -62 -1 -3 -4 -10 -8 -14 -11 -11 -10 -36 1 -29 5 3 13 0 17 -6 4 -8 3
-9 -4 -5 -7 4 -12 2 -12 -4 0 -6 -4 -8 -10 -5 -9 6 -11 -2 -14 -57 -1 -10 -6
-22 -12 -28 -7 -7 -725 -9 -2225 -8 -2181 3 -2213 3 -2179 22 19 10 86 28 149
38 281 48 521 168 711 358 173 171 283 371 347 627 15 62 17 211 22 1668 l6
1600 214 430 c1862 3747 3595 8048 4746 11780 52 171 98 317 100 326 5 13 -9
21 -64 38 -74 22 -81 24 -81 16z"/>
<path d="M22257 18120 c-3 -8 -17 -103 -32 -210 -15 -107 -45 -300 -66 -429
-21 -129 -39 -248 -39 -264 0 -16 248 -1378 551 -3026 303 -1648 689 -3747
858 -4666 l307 -1670 110 -22 c115 -24 515 -85 520 -80 2 2 -32 168 -165 792
-17 77 -53 248 -81 380 -28 132 -82 386 -120 565 -38 179 -108 507 -155 730
-47 223 -94 446 -105 495 -11 50 -74 344 -139 655 -148 698 -274 1289 -397
1870 -52 245 -128 603 -169 795 -41 193 -126 595 -190 895 -64 300 -149 703
-190 895 -41 193 -128 607 -195 920 -155 728 -212 1000 -256 1205 -40 190 -40
190 -47 170z"/>
<path d="M67843 16165 l-41 -56 162 -162 c173 -173 321 -351 512 -617 110
-154 317 -463 409 -613 l40 -65 62 36 c35 21 63 40 63 45 0 11 -140 233 -282
445 -216 321 -454 629 -635 823 -82 86 -227 219 -241 219 -5 0 -26 -25 -49
-55z"/>
<path d="M68166 14794 l-46 -56 98 -103 c110 -115 204 -236 315 -405 345 -527
780 -1487 1112 -2457 5 -14 137 27 142 44 7 20 -210 605 -356 962 -180 438
-443 987 -611 1276 -99 170 -268 424 -345 520 -78 98 -200 230 -234 254 l-29
21 -46 -56z"/>
<path d="M58923 12429 l-42 -61 72 -58 c385 -307 664 -873 827 -1676 52 -258
91 -568 116 -926 l6 -88 75 0 75 0 -7 118 c-72 1277 -433 2247 -1004 2701 -36
28 -67 51 -70 51 -4 0 -25 -28 -48 -61z"/>
</g>
</svg>
